<svg width="300" height="300" viewBox="0 0 300 300" xmlns="http://www.w3.org/2000/svg">
<rect width="100%" height="100%" style="fill:white;stroke:gray;stroke-width:1" />
<path fill-rule="evenodd" fill-opacity="1" d="M 150.0 150.0  L 250.0 150.0  L 250.0 50.0  L 150.0 50.0  L 150.0 150.0  A -50 -50 0 0 1 150.0 250.0  A -50 -50 0 0 1 150.0 150.0 " stroke-linecap="round" style="stroke:red;stroke-width:2" fill="yellow" />
<g id="turtle" visibility="visible" transform="rotate(90.0,150.0,150.0) translate(150.0, 150.0)">
<path style="stroke:black;fill-rule:evenodd;fill:green;fill-opacity:1;" transform="skewX(0) scale(1,1)" d="m 1.1536693,-18.56101 c -2.105469,1.167969 -3.203125,3.441407 -3.140625,6.5 l 0.011719,0.519532 -0.300782,-0.15625 c -1.308594,-0.671875 -2.828125,-0.824219 -4.378906,-0.429688 -1.9375,0.484375 -3.8906253,2.089844 -6.0117193,4.9257825 -1.332031,1.785156 -1.714843,2.644531 -1.351562,3.035156 l 0.113281,0.125 h 0.363281 c 0.71875,0 1.308594,-0.265625 4.6679693,-2.113282 1.199219,-0.660156 2.183594,-1.199218 2.191406,-1.199218 0.00781,0 -0.023437,0.089844 -0.074218,0.195312 -0.472657,1.058594 -1.046876,2.785156 -1.335938,4.042969 -1.054688,4.574219 -0.351562,8.453125 2.101562,11.582031 0.28125,0.355469 0.292969,0.253906 -0.097656,0.722656 -2.046875,2.4609375 -3.027344,4.8984375 -2.734375,6.8046875 0.050781,0.339844 0.042969,0.335938 0.679688,0.335938 2.023437,0 4.15625,-1.316407 6.21875,-3.835938 0.222656,-0.269531 0.191406,-0.261719 0.425781,-0.113281 0.730469,0.46875 2.460938,1.390625 2.613281,1.390625 0.160157,0 1.765625,-0.753906 2.652344,-1.246094 0.167969,-0.09375 0.308594,-0.164062 0.308594,-0.160156 0.066406,0.105468 0.761719,0.855468 1.085937,1.171875 1.613282,1.570312 3.339844,2.402343 5.3593747,2.570312 0.324219,0.02734 0.355469,0.0078 0.425781,-0.316406 0.375,-1.742187 -0.382812,-4.058594 -2.1445307,-6.5585935 l -0.320312,-0.457031 0.15625,-0.183594 c 3.2460927,-3.824218 3.4335927,-9.08593704 0.558593,-15.816406 l -0.050781,-0.125 1.7382807,0.859375 c 3.585938,1.773437 4.371094,2.097656 5.085938,2.097656 0.945312,0 0.75,-0.863281 -0.558594,-2.507812 C 11.458356,-11.838353 8.3333563,-13.268041 4.8607003,-11.721166 l -0.363281,0.164063 0.019531,-0.09375 c 0.121094,-0.550781 0.183594,-1.800781 0.121094,-2.378907 -0.203125,-1.867187 -1.035157,-3.199218 -2.695313,-4.308593 -0.523437,-0.351563 -0.546875,-0.355469 -0.789062,-0.222657" />
</g> 
</svg>