<svg width="500" height="300" viewBox="0 0 500 300" xmlns="http://www.w3.org/2000/svg">
<rect width="100%" height="100%" style="fill:white;stroke:;stroke-width:1" />
<path fill-rule="evenodd" fill-opacity="1" d="M 25.0 150.0  L 225.0 150.0  L 28.038 115.27  L 215.977 183.674  L 42.772 83.674  L 195.981 212.232  L 67.423 59.023  L 167.423 232.228  L 99.019 44.289  L 133.749 241.251  L 133.749 41.251  L 99.019 238.213  L 167.423 50.274  L 67.423 223.479  L 195.981 70.27  L 42.772 198.828  L 215.977 98.828  L 28.038 167.232  L 225.0 132.502  L 25.0 132.502  L 221.962 167.232  L 34.023 98.828  L 207.228 198.828  L 54.019 70.27  L 182.577 223.479  L 82.577 50.274  L 150.981 238.213  L 116.251 41.251  L 116.251 241.251  L 150.981 44.289  L 82.577 232.228  L 182.577 59.023  L 54.019 212.232  L 207.228 83.674  L 34.023 183.674  L 221.962 115.27  L 25.0 150.0 " stroke-linecap="round" style="stroke:red;stroke-width:1.5" fill="yellow" />
<path fill-rule="nonzero" fill-opacity="1" d="M 275.0 150.0  L 475.0 150.0  L 278.038 115.27  L 465.977 183.674  L 292.772 83.674  L 445.981 212.232  L 317.423 59.023  L 417.423 232.228  L 349.019 44.289  L 383.749 241.251  L 383.749 41.251  L 349.019 238.213  L 417.423 50.274  L 317.423 223.479  L 445.981 70.27  L 292.772 198.828  L 465.977 98.828  L 278.038 167.232  L 475.0 132.502  L 275.0 132.502  L 471.962 167.232  L 284.023 98.828  L 457.228 198.828  L 304.019 70.27  L 432.577 223.479  L 332.577 50.274  L 400.981 238.213  L 366.251 41.251  L 366.251 241.251  L 400.981 44.289  L 332.577 232.228  L 432.577 59.023  L 304.019 212.232  L 457.228 83.674  L 284.023 183.674  L 471.962 115.27  L 275.0 150.0 " stroke-linecap="round" style="stroke:red;stroke-width:1.5" fill="yellow" />
</svg>