<svg width="400" height="400" viewBox="0 0 400 400" xmlns="http://www.w3.org/2000/svg">
<rect width="100%" height="100%" style="fill:black;stroke:;stroke-width:1" />
<line x1="200.0" y1="200.0" x2="200.0" y2="200.0" stroke-linecap="round" style="stroke:red;stroke-width:1" />
<line x1="200.0" y1="200.0" x2="200.258" y2="199.571" stroke-linecap="round" style="stroke:purple;stroke-width:1" />
<line x1="200.258" y1="199.571" x2="199.789" y2="198.688" stroke-linecap="round" style="stroke:blue;stroke-width:1" />
<line x1="199.789" y1="198.688" x2="198.291" y2="198.609" stroke-linecap="round" style="stroke:green;stroke-width:1" />
<line x1="198.291" y1="198.609" x2="197.173" y2="200.267" stroke-linecap="round" style="stroke:orange;stroke-width:1" />
<line x1="197.173" y1="200.267" x2="198.23" y2="202.533" stroke-linecap="round" style="stroke:yellow;stroke-width:1" />
<line x1="198.23" y1="202.533" x2="201.214" y2="202.847" stroke-linecap="round" style="stroke:red;stroke-width:1" />
<line x1="201.214" y1="202.847" x2="203.32" y2="200.052" stroke-linecap="round" style="stroke:purple;stroke-width:1" />
<line x1="203.32" y1="200.052" x2="201.822" y2="196.343" stroke-linecap="round" style="stroke:blue;stroke-width:1" />
<line x1="201.822" y1="196.343" x2="197.377" y2="195.639" stroke-linecap="round" style="stroke:green;stroke-width:1" />
<line x1="197.377" y1="195.639" x2="194.163" y2="199.469" stroke-linecap="round" style="stroke:orange;stroke-width:1" />
<line x1="194.163" y1="199.469" x2="195.954" y2="204.669" stroke-linecap="round" style="stroke:yellow;stroke-width:1" />
<line x1="195.954" y1="204.669" x2="201.823" y2="205.916" stroke-linecap="round" style="stroke:red;stroke-width:1" />
<line x1="201.823" y1="205.916" x2="206.256" y2="201.162" stroke-linecap="round" style="stroke:purple;stroke-width:1" />
<line x1="206.256" y1="201.162" x2="204.327" y2="194.433" stroke-linecap="round" style="stroke:blue;stroke-width:1" />
<line x1="204.327" y1="194.433" x2="197.083" y2="192.492" stroke-linecap="round" style="stroke:green;stroke-width:1" />
<line x1="197.083" y1="192.492" x2="191.328" y2="198.049" stroke-linecap="round" style="stroke:orange;stroke-width:1" />
<line x1="191.328" y1="198.049" x2="193.24" y2="206.331" stroke-linecap="round" style="stroke:yellow;stroke-width:1" />
<line x1="193.24" y1="206.331" x2="201.8" y2="209.112" stroke-linecap="round" style="stroke:red;stroke-width:1" />
<line x1="201.8" y1="209.112" x2="208.97" y2="202.879" stroke-linecap="round" style="stroke:purple;stroke-width:1" />
<line x1="208.97" y1="202.879" x2="207.234" y2="193.031" stroke-linecap="round" style="stroke:blue;stroke-width:1" />
<line x1="207.234" y1="193.031" x2="197.431" y2="189.268" stroke-linecap="round" style="stroke:green;stroke-width:1" />
<line x1="197.431" y1="189.268" x2="188.763" y2="196.04" stroke-linecap="round" style="stroke:orange;stroke-width:1" />
<line x1="188.763" y1="196.04" x2="190.164" y2="207.454" stroke-linecap="round" style="stroke:yellow;stroke-width:1" />
<line x1="190.164" y1="207.454" x2="201.127" y2="212.335" stroke-linecap="round" style="stroke:red;stroke-width:1" />
<line x1="201.127" y1="212.335" x2="211.366" y2="205.165" stroke-linecap="round" style="stroke:purple;stroke-width:1" />
<line x1="211.366" y1="205.165" x2="210.459" y2="192.197" stroke-linecap="round" style="stroke:blue;stroke-width:1" />
<line x1="210.459" y1="192.197" x2="198.43" y2="186.068" stroke-linecap="round" style="stroke:green;stroke-width:1" />
<line x1="198.43" y1="186.068" x2="186.557" y2="193.487" stroke-linecap="round" style="stroke:orange;stroke-width:1" />
<line x1="186.557" y1="193.487" x2="186.81" y2="207.985" stroke-linecap="round" style="stroke:yellow;stroke-width:1" />
<line x1="186.81" y1="207.985" x2="199.8" y2="215.485" stroke-linecap="round" style="stroke:red;stroke-width:1" />
<line x1="199.8" y1="215.485" x2="213.357" y2="207.97" stroke-linecap="round" style="stroke:purple;stroke-width:1" />
<line x1="213.357" y1="207.97" x2="213.915" y2="191.98" stroke-linecap="round" style="stroke:blue;stroke-width:1" />
<line x1="213.915" y1="191.98" x2="200.077" y2="182.993" stroke-linecap="round" style="stroke:green;stroke-width:1" />
<line x1="200.077" y1="182.993" x2="184.798" y2="190.445" stroke-linecap="round" style="stroke:orange;stroke-width:1" />
<line x1="184.798" y1="190.445" x2="183.273" y2="207.878" stroke-linecap="round" style="stroke:yellow;stroke-width:1" />
<line x1="183.273" y1="207.878" x2="197.835" y2="218.458" stroke-linecap="round" style="stroke:red;stroke-width:1" />
<line x1="197.835" y1="218.458" x2="214.864" y2="211.229" stroke-linecap="round" style="stroke:purple;stroke-width:1" />
<line x1="214.864" y1="211.229" x2="217.508" y2="192.414" stroke-linecap="round" style="stroke:blue;stroke-width:1" />
<line x1="217.508" y1="192.414" x2="202.354" y2="180.142" stroke-linecap="round" style="stroke:green;stroke-width:1" />
<line x1="202.354" y1="180.142" x2="183.56" y2="186.982" stroke-linecap="round" style="stroke:orange;stroke-width:1" />
<line x1="183.56" y1="186.982" x2="179.648" y2="207.105" stroke-linecap="round" style="stroke:yellow;stroke-width:1" />
<line x1="179.648" y1="207.105" x2="195.254" y2="221.157" stroke-linecap="round" style="stroke:red;stroke-width:1" />
<line x1="195.254" y1="221.157" x2="215.815" y2="214.871" stroke-linecap="round" style="stroke:purple;stroke-width:1" />
<line x1="215.815" y1="214.871" x2="221.137" y2="193.524" stroke-linecap="round" style="stroke:blue;stroke-width:1" />
<line x1="221.137" y1="193.524" x2="205.227" y2="177.614" stroke-linecap="round" style="stroke:green;stroke-width:1" />
<line x1="205.227" y1="177.614" x2="182.91" y2="183.178" stroke-linecap="round" style="stroke:orange;stroke-width:1" />
<line x1="182.91" y1="183.178" x2="176.039" y2="205.651" stroke-linecap="round" style="stroke:yellow;stroke-width:1" />
<line x1="176.039" y1="205.651" x2="192.098" y2="223.486" stroke-linecap="round" style="stroke:red;stroke-width:1" />
<line x1="192.098" y1="223.486" x2="216.148" y2="218.811" stroke-linecap="round" style="stroke:purple;stroke-width:1" />
<line x1="216.148" y1="218.811" x2="224.699" y2="195.319" stroke-linecap="round" style="stroke:blue;stroke-width:1" />
<line x1="224.699" y1="195.319" x2="208.651" y2="175.502" stroke-linecap="round" style="stroke:green;stroke-width:1" />
<line x1="208.651" y1="175.502" x2="182.904" y2="179.121" stroke-linecap="round" style="stroke:orange;stroke-width:1" />
<line x1="182.904" y1="179.121" x2="172.55" y2="203.514" stroke-linecap="round" style="stroke:yellow;stroke-width:1" />
<line x1="172.55" y1="203.514" x2="188.42" y2="225.357" stroke-linecap="round" style="stroke:red;stroke-width:1" />
<line x1="188.42" y1="225.357" x2="215.815" y2="222.96" stroke-linecap="round" style="stroke:purple;stroke-width:1" />
<line x1="215.815" y1="222.96" x2="228.089" y2="197.794" stroke-linecap="round" style="stroke:blue;stroke-width:1" />
<line x1="228.089" y1="197.794" x2="212.567" y2="173.892" stroke-linecap="round" style="stroke:green;stroke-width:1" />
<line x1="212.567" y1="173.892" x2="183.585" y2="174.904" stroke-linecap="round" style="stroke:orange;stroke-width:1" />
<line x1="183.585" y1="174.904" x2="169.283" y2="200.705" stroke-linecap="round" style="stroke:yellow;stroke-width:1" />
<line x1="169.283" y1="200.705" x2="184.283" y2="226.686" stroke-linecap="round" style="stroke:red;stroke-width:1" />
<line x1="184.283" y1="226.686" x2="214.778" y2="227.218" stroke-linecap="round" style="stroke:purple;stroke-width:1" />
<line x1="214.778" y1="227.218" x2="231.205" y2="200.929" stroke-linecap="round" style="stroke:blue;stroke-width:1" />
<line x1="231.205" y1="200.929" x2="216.904" y2="172.862" stroke-linecap="round" style="stroke:green;stroke-width:1" />
<line x1="216.904" y1="172.862" x2="184.982" y2="170.63" stroke-linecap="round" style="stroke:orange;stroke-width:1" />
<line x1="184.982" y1="170.63" x2="166.341" y2="197.252" stroke-linecap="round" style="stroke:yellow;stroke-width:1" />
<line x1="166.341" y1="197.252" x2="179.763" y2="227.399" stroke-linecap="round" style="stroke:red;stroke-width:1" />
<line x1="179.763" y1="227.399" x2="213.013" y2="231.482" stroke-linecap="round" style="stroke:purple;stroke-width:1" />
<line x1="213.013" y1="231.482" x2="233.945" y2="204.69" stroke-linecap="round" style="stroke:blue;stroke-width:1" />
<line x1="233.945" y1="204.69" x2="221.581" y2="172.481" stroke-linecap="round" style="stroke:green;stroke-width:1" />
<line x1="221.581" y1="172.481" x2="187.113" y2="166.403" stroke-linecap="round" style="stroke:orange;stroke-width:1" />
<line x1="187.113" y1="166.403" x2="163.823" y2="193.195" stroke-linecap="round" style="stroke:yellow;stroke-width:1" />
<line x1="163.823" y1="193.195" x2="174.948" y2="227.433" stroke-linecap="round" style="stroke:red;stroke-width:1" />
<line x1="174.948" y1="227.433" x2="210.513" y2="235.644" stroke-linecap="round" style="stroke:purple;stroke-width:1" />
<line x1="210.513" y1="235.644" x2="236.215" y2="209.028" stroke-linecap="round" style="stroke:blue;stroke-width:1" />
<line x1="236.215" y1="209.028" x2="226.509" y2="172.806" stroke-linecap="round" style="stroke:green;stroke-width:1" />
<line x1="226.509" y1="172.806" x2="189.981" y2="162.332" stroke-linecap="round" style="stroke:orange;stroke-width:1" />
<line x1="189.981" y1="162.332" x2="161.824" y2="188.589" stroke-linecap="round" style="stroke:yellow;stroke-width:1" />
<line x1="161.824" y1="188.589" x2="169.933" y2="226.737" stroke-linecap="round" style="stroke:red;stroke-width:1" />
<line x1="169.933" y1="226.737" x2="207.281" y2="239.597" stroke-linecap="round" style="stroke:purple;stroke-width:1" />
<line x1="207.281" y1="239.597" x2="237.923" y2="213.885" stroke-linecap="round" style="stroke:blue;stroke-width:1" />
<line x1="237.923" y1="213.885" x2="231.587" y2="173.884" stroke-linecap="round" style="stroke:green;stroke-width:1" />
<line x1="231.587" y1="173.884" x2="193.572" y2="158.525" stroke-linecap="round" style="stroke:orange;stroke-width:1" />
<line x1="193.572" y1="158.525" x2="160.429" y2="183.5" stroke-linecap="round" style="stroke:yellow;stroke-width:1" />
<line x1="160.429" y1="183.5" x2="164.819" y2="225.27" stroke-linecap="round" style="stroke:red;stroke-width:1" />
<line x1="164.819" y1="225.27" x2="203.337" y2="243.231" stroke-linecap="round" style="stroke:purple;stroke-width:1" />
<line x1="203.337" y1="243.231" x2="238.986" y2="219.186" stroke-linecap="round" style="stroke:blue;stroke-width:1" />
<line x1="238.986" y1="219.186" x2="236.709" y2="175.746" stroke-linecap="round" style="stroke:green;stroke-width:1" />
<line x1="236.709" y1="175.746" x2="197.859" y2="155.089" stroke-linecap="round" style="stroke:orange;stroke-width:1" />
<line x1="197.859" y1="155.089" x2="159.715" y2="178.008" stroke-linecap="round" style="stroke:yellow;stroke-width:1" />
<line x1="159.715" y1="178.008" x2="159.715" y2="223.008" stroke-linecap="round" style="stroke:red;stroke-width:1" />
<line x1="159.715" y1="223.008" x2="198.716" y2="246.442" stroke-linecap="round" style="stroke:purple;stroke-width:1" />
<line x1="198.716" y1="246.442" x2="239.332" y2="224.846" stroke-linecap="round" style="stroke:blue;stroke-width:1" />
<line x1="239.332" y1="224.846" x2="241.766" y2="178.41" stroke-linecap="round" style="stroke:green;stroke-width:1" />
<line x1="241.766" y1="178.41" x2="202.801" y2="152.128" stroke-linecap="round" style="stroke:orange;stroke-width:1" />
<line x1="202.801" y1="152.128" x2="159.751" y2="172.202" stroke-linecap="round" style="stroke:yellow;stroke-width:1" />
<line x1="159.751" y1="172.202" x2="154.734" y2="219.939" stroke-linecap="round" style="stroke:red;stroke-width:1" />
<line x1="154.734" y1="219.939" x2="193.468" y2="249.127" stroke-linecap="round" style="stroke:purple;stroke-width:1" />
<line x1="193.468" y1="249.127" x2="238.9" y2="230.771" stroke-linecap="round" style="stroke:blue;stroke-width:1" />
<line x1="238.9" y1="230.771" x2="246.644" y2="181.88" stroke-linecap="round" style="stroke:green;stroke-width:1" />
<line x1="246.644" y1="181.88" x2="208.342" y2="149.741" stroke-linecap="round" style="stroke:orange;stroke-width:1" />
<line x1="208.342" y1="149.741" x2="160.593" y2="166.182" stroke-linecap="round" style="stroke:yellow;stroke-width:1" />
<line x1="160.593" y1="166.182" x2="149.99" y2="216.068" stroke-linecap="round" style="stroke:red;stroke-width:1" />
<line x1="149.99" y1="216.068" x2="187.655" y2="251.191" stroke-linecap="round" style="stroke:purple;stroke-width:1" />
<line x1="187.655" y1="251.191" x2="237.641" y2="236.858" stroke-linecap="round" style="stroke:blue;stroke-width:1" />
<line x1="237.641" y1="236.858" x2="251.229" y2="186.147" stroke-linecap="round" style="stroke:green;stroke-width:1" />
<line x1="251.229" y1="186.147" x2="214.412" y2="148.022" stroke-linecap="round" style="stroke:orange;stroke-width:1" />
<line x1="214.412" y1="148.022" x2="162.283" y2="160.057" stroke-linecap="round" style="stroke:yellow;stroke-width:1" />
<line x1="162.283" y1="160.057" x2="145.596" y2="211.414" stroke-linecap="round" style="stroke:red;stroke-width:1" />
<line x1="145.596" y1="211.414" x2="181.351" y2="252.546" stroke-linecap="round" style="stroke:purple;stroke-width:1" />
<line x1="181.351" y1="252.546" x2="235.515" y2="242.995" stroke-linecap="round" style="stroke:blue;stroke-width:1" />
<line x1="235.515" y1="242.995" x2="255.404" y2="191.181" stroke-linecap="round" style="stroke:green;stroke-width:1" />
<line x1="255.404" y1="191.181" x2="220.927" y2="147.052" stroke-linecap="round" style="stroke:orange;stroke-width:1" />
<line x1="220.927" y1="147.052" x2="164.848" y2="153.938" stroke-linecap="round" style="stroke:yellow;stroke-width:1" />
<line x1="164.848" y1="153.938" x2="141.664" y2="206.01" stroke-linecap="round" style="stroke:red;stroke-width:1" />
<line x1="141.664" y1="206.01" x2="174.645" y2="253.111" stroke-linecap="round" style="stroke:purple;stroke-width:1" />
<line x1="174.645" y1="253.111" x2="232.504" y2="249.065" stroke-linecap="round" style="stroke:blue;stroke-width:1" />
<line x1="232.504" y1="249.065" x2="259.062" y2="196.941" stroke-linecap="round" style="stroke:green;stroke-width:1" />
<line x1="259.062" y1="196.941" x2="227.797" y2="146.906" stroke-linecap="round" style="stroke:orange;stroke-width:1" />
<line x1="227.797" y1="146.906" x2="168.306" y2="147.944" stroke-linecap="round" style="stroke:yellow;stroke-width:1" />
<line x1="168.306" y1="147.944" x2="138.306" y2="199.906" stroke-linecap="round" style="stroke:red;stroke-width:1" />
<line x1="138.306" y1="199.906" x2="167.637" y2="252.82" stroke-linecap="round" style="stroke:purple;stroke-width:1" />
<line x1="167.637" y1="252.82" x2="228.6" y2="254.949" stroke-linecap="round" style="stroke:blue;stroke-width:1" />
<line x1="228.6" y1="254.949" x2="262.095" y2="203.371" stroke-linecap="round" style="stroke:green;stroke-width:1" />
<line x1="262.095" y1="203.371" x2="234.916" y2="147.646" stroke-linecap="round" style="stroke:orange;stroke-width:1" />
<line x1="234.916" y1="147.646" x2="172.654" y2="142.199" stroke-linecap="round" style="stroke:yellow;stroke-width:1" />
<line x1="172.654" y1="142.199" x2="135.624" y2="193.167" stroke-linecap="round" style="stroke:red;stroke-width:1" />
<line x1="135.624" y1="193.167" x2="160.435" y2="251.619" stroke-linecap="round" style="stroke:purple;stroke-width:1" />
<line x1="160.435" y1="251.619" x2="223.812" y2="260.526" stroke-linecap="round" style="stroke:blue;stroke-width:1" />
<line x1="223.812" y1="260.526" x2="264.403" y2="210.4" stroke-linecap="round" style="stroke:green;stroke-width:1" />
<line x1="264.403" y1="210.4" x2="242.172" y2="149.32" stroke-linecap="round" style="stroke:orange;stroke-width:1" />
<line x1="242.172" y1="149.32" x2="177.875" y2="136.822" stroke-linecap="round" style="stroke:yellow;stroke-width:1" />
<line x1="177.875" y1="136.822" x2="133.712" y2="185.87" stroke-linecap="round" style="stroke:red;stroke-width:1" />
<line x1="133.712" y1="185.87" x2="153.155" y2="249.464" stroke-linecap="round" style="stroke:purple;stroke-width:1" />
<line x1="153.155" y1="249.464" x2="218.165" y2="265.673" stroke-linecap="round" style="stroke:blue;stroke-width:1" />
<line x1="218.165" y1="265.673" x2="265.895" y2="217.943" stroke-linecap="round" style="stroke:green;stroke-width:1" />
<line x1="265.895" y1="217.943" x2="249.444" y2="151.963" stroke-linecap="round" style="stroke:orange;stroke-width:1" />
<line x1="249.444" y1="151.963" x2="183.937" y2="131.936" stroke-linecap="round" style="stroke:yellow;stroke-width:1" />
<line x1="183.937" y1="131.936" x2="132.66" y2="178.106" stroke-linecap="round" style="stroke:red;stroke-width:1" />
<line x1="132.66" y1="178.106" x2="145.921" y2="246.329" stroke-linecap="round" style="stroke:purple;stroke-width:1" />
<line x1="145.921" y1="246.329" x2="211.699" y2="270.27" stroke-linecap="round" style="stroke:blue;stroke-width:1" />
<line x1="211.699" y1="270.27" x2="266.488" y2="225.903" stroke-linecap="round" style="stroke:green;stroke-width:1" />
<line x1="266.488" y1="225.903" x2="256.607" y2="155.594" stroke-linecap="round" style="stroke:orange;stroke-width:1" />
<line x1="256.607" y1="155.594" x2="190.791" y2="127.657" stroke-linecap="round" style="stroke:yellow;stroke-width:1" />
<line x1="190.791" y1="127.657" x2="132.542" y2="169.978" stroke-linecap="round" style="stroke:red;stroke-width:1" />
<line x1="132.542" y1="169.978" x2="138.861" y2="242.202" stroke-linecap="round" style="stroke:purple;stroke-width:1" />
<line x1="138.861" y1="242.202" x2="204.473" y2="274.203" stroke-linecap="round" style="stroke:blue;stroke-width:1" />
<line x1="204.473" y1="274.203" x2="266.115" y2="234.172" stroke-linecap="round" style="stroke:green;stroke-width:1" />
<line x1="266.115" y1="234.172" x2="263.532" y2="160.217" stroke-linecap="round" style="stroke:orange;stroke-width:1" />
<line x1="263.532" y1="160.217" x2="198.373" y2="124.099" stroke-linecap="round" style="stroke:yellow;stroke-width:1" />
<line x1="198.373" y1="124.099" x2="133.421" y2="161.599" stroke-linecap="round" style="stroke:red;stroke-width:1" />
<line x1="133.421" y1="161.599" x2="132.103" y2="237.088" stroke-linecap="round" style="stroke:purple;stroke-width:1" />
<line x1="132.103" y1="237.088" x2="196.555" y2="277.362" stroke-linecap="round" style="stroke:blue;stroke-width:1" />
<line x1="196.555" y1="277.362" x2="264.717" y2="242.632" stroke-linecap="round" style="stroke:green;stroke-width:1" />
<line x1="264.717" y1="242.632" x2="270.088" y2="165.82" stroke-linecap="round" style="stroke:orange;stroke-width:1" />
<line x1="270.088" y1="165.82" x2="206.604" y2="121.368" stroke-linecap="round" style="stroke:yellow;stroke-width:1" />
<line x1="206.604" y1="121.368" x2="135.347" y2="153.093" stroke-linecap="round" style="stroke:red;stroke-width:1" />
<line x1="135.347" y1="153.093" x2="125.78" y2="231.008" stroke-linecap="round" style="stroke:purple;stroke-width:1" />
<line x1="125.78" y1="231.008" x2="188.033" y2="279.645" stroke-linecap="round" style="stroke:blue;stroke-width:1" />
<line x1="188.033" y1="279.645" x2="262.253" y2="251.155" stroke-linecap="round" style="stroke:green;stroke-width:1" />
<line x1="262.253" y1="251.155" x2="276.145" y2="172.37" stroke-linecap="round" style="stroke:orange;stroke-width:1" />
<line x1="276.145" y1="172.37" x2="215.391" y2="119.557" stroke-linecap="round" style="stroke:yellow;stroke-width:1" />
<line x1="215.391" y1="119.557" x2="138.355" y2="144.587" stroke-linecap="round" style="stroke:red;stroke-width:1" />
<line x1="138.355" y1="144.587" x2="120.021" y2="223.998" stroke-linecap="round" style="stroke:purple;stroke-width:1" />
<line x1="120.021" y1="223.998" x2="179.007" y2="280.96" stroke-linecap="round" style="stroke:blue;stroke-width:1" />
<line x1="179.007" y1="280.96" x2="258.696" y2="259.607" stroke-linecap="round" style="stroke:green;stroke-width:1" />
<line x1="258.696" y1="259.607" x2="281.574" y2="179.822" stroke-linecap="round" style="stroke:orange;stroke-width:1" />
<line x1="281.574" y1="179.822" x2="224.627" y2="118.754" stroke-linecap="round" style="stroke:yellow;stroke-width:1" />
<line x1="224.627" y1="118.754" x2="142.463" y2="136.219" stroke-linecap="round" style="stroke:red;stroke-width:1" />
<line x1="142.463" y1="136.219" x2="114.952" y2="216.115" stroke-linecap="round" style="stroke:purple;stroke-width:1" />
<line x1="114.952" y1="216.115" x2="169.589" y2="281.229" stroke-linecap="round" style="stroke:blue;stroke-width:1" />
<line x1="169.589" y1="281.229" x2="254.036" y2="267.854" stroke-linecap="round" style="stroke:green;stroke-width:1" />
<line x1="254.036" y1="267.854" x2="286.252" y2="188.116" stroke-linecap="round" style="stroke:orange;stroke-width:1" />
<line x1="286.252" y1="188.116" x2="234.195" y2="119.034" stroke-linecap="round" style="stroke:yellow;stroke-width:1" />
<line x1="234.195" y1="119.034" x2="147.672" y2="128.128" stroke-linecap="round" style="stroke:red;stroke-width:1" />
<line x1="147.672" y1="128.128" x2="110.693" y2="207.43" stroke-linecap="round" style="stroke:purple;stroke-width:1" />
<line x1="110.693" y1="207.43" x2="159.902" y2="280.385" stroke-linecap="round" style="stroke:blue;stroke-width:1" />
<line x1="159.902" y1="280.385" x2="248.281" y2="275.753" stroke-linecap="round" style="stroke:green;stroke-width:1" />
<line x1="248.281" y1="275.753" x2="290.064" y2="197.171" stroke-linecap="round" style="stroke:orange;stroke-width:1" />
<line x1="290.064" y1="197.171" x2="243.968" y2="120.455" stroke-linecap="round" style="stroke:yellow;stroke-width:1" />
<line x1="243.968" y1="120.455" x2="153.968" y2="120.455" stroke-linecap="round" style="stroke:red;stroke-width:1" />
<line x1="153.968" y1="120.455" x2="107.357" y2="198.029" stroke-linecap="round" style="stroke:purple;stroke-width:1" />
<line x1="107.357" y1="198.029" x2="150.079" y2="278.377" stroke-linecap="round" style="stroke:blue;stroke-width:1" />
<line x1="150.079" y1="278.377" x2="241.454" y2="283.166" stroke-linecap="round" style="stroke:green;stroke-width:1" />
<line x1="241.454" y1="283.166" x2="292.9" y2="206.895" stroke-linecap="round" style="stroke:orange;stroke-width:1" />
<line x1="292.9" y1="206.895" x2="253.808" y2="123.062" stroke-linecap="round" style="stroke:yellow;stroke-width:1" />
<line x1="253.808" y1="123.062" x2="161.317" y2="113.341" stroke-linecap="round" style="stroke:red;stroke-width:1" />
<line x1="161.317" y1="113.341" x2="105.047" y2="188.013" stroke-linecap="round" style="stroke:purple;stroke-width:1" />
<line x1="105.047" y1="188.013" x2="140.26" y2="275.168" stroke-linecap="round" style="stroke:blue;stroke-width:1" />
<line x1="140.26" y1="275.168" x2="233.597" y2="289.951" stroke-linecap="round" style="stroke:green;stroke-width:1" />
<line x1="233.597" y1="289.951" x2="294.662" y2="217.177" stroke-linecap="round" style="stroke:orange;stroke-width:1" />
<line x1="294.662" y1="217.177" x2="263.57" y2="126.88" stroke-linecap="round" style="stroke:yellow;stroke-width:1" />
<line x1="263.57" y1="126.88" x2="169.668" y2="106.92" stroke-linecap="round" style="stroke:red;stroke-width:1" />
<line x1="169.668" y1="106.92" x2="103.855" y2="177.496" stroke-linecap="round" style="stroke:purple;stroke-width:1" />
<line x1="103.855" y1="177.496" x2="130.592" y2="270.738" stroke-linecap="round" style="stroke:blue;stroke-width:1" />
<line x1="130.592" y1="270.738" x2="224.77" y2="295.973" stroke-linecap="round" style="stroke:green;stroke-width:1" />
<line x1="224.77" y1="295.973" x2="295.265" y2="227.896" stroke-linecap="round" style="stroke:orange;stroke-width:1" />
<line x1="295.265" y1="227.896" x2="273.107" y2="131.921" stroke-linecap="round" style="stroke:yellow;stroke-width:1" />
<line x1="273.107" y1="131.921" x2="178.952" y2="101.328" stroke-linecap="round" style="stroke:red;stroke-width:1" />
<line x1="178.952" y1="101.328" x2="103.858" y2="166.606" stroke-linecap="round" style="stroke:purple;stroke-width:1" />
<line x1="103.858" y1="166.606" x2="121.223" y2="265.087" stroke-linecap="round" style="stroke:blue;stroke-width:2" />
<line x1="121.223" y1="265.087" x2="215.048" y2="301.103" stroke-linecap="round" style="stroke:green;stroke-width:2" />
<line x1="215.048" y1="301.103" x2="294.637" y2="238.921" stroke-linecap="round" style="stroke:orange;stroke-width:2" />
<line x1="294.637" y1="238.921" x2="282.267" y2="138.178" stroke-linecap="round" style="stroke:yellow;stroke-width:2" />
<line x1="282.267" y1="138.178" x2="189.085" y2="96.691" stroke-linecap="round" style="stroke:red;stroke-width:2" />
<line x1="189.085" y1="96.691" x2="105.122" y2="155.483" stroke-linecap="round" style="stroke:purple;stroke-width:2" />
<line x1="105.122" y1="155.483" x2="112.307" y2="258.232" stroke-linecap="round" style="stroke:blue;stroke-width:2" />
<line x1="112.307" y1="258.232" x2="204.526" y2="305.22" stroke-linecap="round" style="stroke:green;stroke-width:2" />
<line x1="204.526" y1="305.22" x2="292.723" y2="250.108" stroke-linecap="round" style="stroke:orange;stroke-width:2" />
<line x1="292.723" y1="250.108" x2="290.899" y2="145.624" stroke-linecap="round" style="stroke:yellow;stroke-width:2" />
<line x1="290.899" y1="145.624" x2="199.966" y2="93.124" stroke-linecap="round" style="stroke:red;stroke-width:2" />
<line x1="199.966" y1="93.124" x2="107.694" y2="144.271" stroke-linecap="round" style="stroke:purple;stroke-width:2" />
<line x1="107.694" y1="144.271" x2="103.995" y2="250.206" stroke-linecap="round" style="stroke:blue;stroke-width:2" />
<line x1="103.995" y1="250.206" x2="193.313" y2="308.21" stroke-linecap="round" style="stroke:green;stroke-width:2" />
<line x1="193.313" y1="308.21" x2="289.484" y2="261.304" stroke-linecap="round" style="stroke:orange;stroke-width:2" />
<line x1="289.484" y1="261.304" x2="298.853" y2="154.213" stroke-linecap="round" style="stroke:yellow;stroke-width:2" />
<line x1="298.853" y1="154.213" x2="211.479" y2="90.732" stroke-linecap="round" style="stroke:red;stroke-width:2" />
<line x1="211.479" y1="90.732" x2="111.604" y2="133.126" stroke-linecap="round" style="stroke:purple;stroke-width:2" />
<line x1="111.604" y1="133.126" x2="96.434" y2="241.065" stroke-linecap="round" style="stroke:blue;stroke-width:2" />
<line x1="96.434" y1="241.065" x2="181.531" y2="309.976" stroke-linecap="round" style="stroke:green;stroke-width:2" />
<line x1="181.531" y1="309.976" x2="284.897" y2="272.354" stroke-linecap="round" style="stroke:orange;stroke-width:2" />
<line x1="284.897" y1="272.354" x2="305.981" y2="163.884" stroke-linecap="round" style="stroke:yellow;stroke-width:2" />
<line x1="305.981" y1="163.884" x2="223.492" y2="89.611" stroke-linecap="round" style="stroke:red;stroke-width:2" />
<line x1="223.492" y1="89.611" x2="116.864" y2="122.21" stroke-linecap="round" style="stroke:purple;stroke-width:2" />
<line x1="116.864" y1="122.21" x2="89.769" y2="230.883" stroke-linecap="round" style="stroke:blue;stroke-width:2" />
<line x1="89.769" y1="230.883" x2="169.319" y2="310.433" stroke-linecap="round" style="stroke:green;stroke-width:2" />
<line x1="169.319" y1="310.433" x2="278.962" y2="283.096" stroke-linecap="round" style="stroke:orange;stroke-width:2" />
<line x1="278.962" y1="283.096" x2="312.146" y2="174.555" stroke-linecap="round" style="stroke:yellow;stroke-width:2" />
<line x1="312.146" y1="174.555" x2="235.865" y2="89.836" stroke-linecap="round" style="stroke:red;stroke-width:2" />
<line x1="235.865" y1="89.836" x2="123.469" y2="111.684" stroke-linecap="round" style="stroke:purple;stroke-width:2" />
<line x1="123.469" y1="111.684" x2="84.137" y2="219.749" stroke-linecap="round" style="stroke:blue;stroke-width:2" />
<line x1="84.137" y1="219.749" x2="156.824" y2="309.509" stroke-linecap="round" style="stroke:green;stroke-width:2" />
<line x1="156.824" y1="309.509" x2="271.695" y2="293.365" stroke-linecap="round" style="stroke:orange;stroke-width:2" />
<line x1="271.695" y1="293.365" x2="317.215" y2="186.126" stroke-linecap="round" style="stroke:yellow;stroke-width:2" />
<line x1="317.215" y1="186.126" x2="248.444" y2="91.471" stroke-linecap="round" style="stroke:red;stroke-width:2" />
<line x1="248.444" y1="91.471" x2="131.391" y2="101.712" stroke-linecap="round" style="stroke:purple;stroke-width:2" />
<line x1="131.391" y1="101.712" x2="79.663" y2="207.77" stroke-linecap="round" style="stroke:blue;stroke-width:2" />
<line x1="79.663" y1="207.77" x2="144.203" y2="307.152" stroke-linecap="round" style="stroke:green;stroke-width:2" />
<line x1="144.203" y1="307.152" x2="263.131" y2="302.999" stroke-linecap="round" style="stroke:orange;stroke-width:2" />
<line x1="263.131" y1="302.999" x2="321.066" y2="198.482" stroke-linecap="round" style="stroke:yellow;stroke-width:2" />
<line x1="321.066" y1="198.482" x2="261.066" y2="94.559" stroke-linecap="round" style="stroke:red;stroke-width:2" />
<line x1="261.066" y1="94.559" x2="140.584" y2="92.456" stroke-linecap="round" style="stroke:purple;stroke-width:2" />
<line x1="140.584" y1="92.456" x2="76.464" y2="195.07" stroke-linecap="round" style="stroke:blue;stroke-width:2" />
<line x1="76.464" y1="195.07" x2="131.624" y2="303.327" stroke-linecap="round" style="stroke:green;stroke-width:2" />
<line x1="131.624" y1="303.327" x2="253.327" y2="311.837" stroke-linecap="round" style="stroke:orange;stroke-width:2" />
<line x1="253.327" y1="311.837" x2="323.59" y2="211.491" stroke-linecap="round" style="stroke:yellow;stroke-width:2" />
<line x1="323.59" y1="211.491" x2="273.561" y2="99.125" stroke-linecap="round" style="stroke:red;stroke-width:2" />
<line x1="273.561" y1="99.125" x2="150.982" y2="84.074" stroke-linecap="round" style="stroke:purple;stroke-width:2" />
<line x1="150.982" y1="84.074" x2="74.64" y2="181.787" stroke-linecap="round" style="stroke:blue;stroke-width:2" />
<line x1="74.64" y1="181.787" x2="119.257" y2="298.018" stroke-linecap="round" style="stroke:green;stroke-width:2" />
<line x1="119.257" y1="298.018" x2="242.358" y2="319.724" stroke-linecap="round" style="stroke:orange;stroke-width:2" />
<line x1="242.358" y1="319.724" x2="324.693" y2="225.008" stroke-linecap="round" style="stroke:yellow;stroke-width:2" />
<line x1="324.693" y1="225.008" x2="285.757" y2="105.175" stroke-linecap="round" style="stroke:red;stroke-width:2" />
<line x1="285.757" y1="105.175" x2="162.499" y2="76.719" stroke-linecap="round" style="stroke:purple;stroke-width:2" />
<line x1="162.499" y1="76.719" x2="74.277" y2="168.075" stroke-linecap="round" style="stroke:blue;stroke-width:2" />
<line x1="74.277" y1="168.075" x2="107.276" y2="291.231" stroke-linecap="round" style="stroke:green;stroke-width:2" />
<line x1="107.276" y1="291.231" x2="230.317" y2="326.513" stroke-linecap="round" style="stroke:orange;stroke-width:2" />
<line x1="230.317" y1="326.513" x2="324.296" y2="238.876" stroke-linecap="round" style="stroke:yellow;stroke-width:2" />
<line x1="324.296" y1="238.876" x2="297.475" y2="112.695" stroke-linecap="round" style="stroke:red;stroke-width:2" />
<line x1="297.475" y1="112.695" x2="175.03" y2="70.534" stroke-linecap="round" style="stroke:purple;stroke-width:2" />
<line x1="175.03" y1="70.534" x2="75.444" y2="154.096" stroke-linecap="round" style="stroke:blue;stroke-width:2" />
<line x1="75.444" y1="154.096" x2="95.859" y2="282.989" stroke-linecap="round" style="stroke:green;stroke-width:2" />
<line x1="95.859" y1="282.989" x2="217.32" y2="332.062" stroke-linecap="round" style="stroke:orange;stroke-width:2" />
<line x1="217.32" y1="332.062" x2="322.341" y2="252.923" stroke-linecap="round" style="stroke:yellow;stroke-width:2" />
<line x1="322.341" y1="252.923" x2="308.543" y2="121.646" stroke-linecap="round" style="stroke:red;stroke-width:2" />
<line x1="308.543" y1="121.646" x2="188.457" y2="65.649" stroke-linecap="round" style="stroke:purple;stroke-width:2" />
<line x1="188.457" y1="65.649" x2="78.195" y2="140.022" stroke-linecap="round" style="stroke:blue;stroke-width:2" />
<line x1="78.195" y1="140.022" x2="85.182" y2="273.339" stroke-linecap="round" style="stroke:green;stroke-width:2" />
<line x1="85.182" y1="273.339" x2="203.497" y2="336.248" stroke-linecap="round" style="stroke:orange;stroke-width:2" />
<line x1="203.497" y1="336.248" x2="318.786" y2="266.975" stroke-linecap="round" style="stroke:yellow;stroke-width:2" />
<line x1="318.786" y1="266.975" x2="318.786" y2="131.975" stroke-linecap="round" style="stroke:red;stroke-width:2" />
<line x1="318.786" y1="131.975" x2="202.64" y2="62.187" stroke-linecap="round" style="stroke:purple;stroke-width:2" />
<line x1="202.64" y1="62.187" x2="82.559" y2="126.035" stroke-linecap="round" style="stroke:blue;stroke-width:2" />
<line x1="82.559" y1="126.035" x2="75.415" y2="262.348" stroke-linecap="round" style="stroke:green;stroke-width:2" />
<line x1="75.415" y1="262.348" x2="188.993" y2="338.957" stroke-linecap="round" style="stroke:orange;stroke-width:2" />
<line x1="188.993" y1="338.957" x2="313.61" y2="280.847" stroke-linecap="round" style="stroke:yellow;stroke-width:2" />
<line x1="313.61" y1="280.847" x2="328.035" y2="143.603" stroke-linecap="round" style="stroke:red;stroke-width:2" />
<line x1="328.035" y1="143.603" x2="217.424" y2="60.252" stroke-linecap="round" style="stroke:purple;stroke-width:2" />
<line x1="217.424" y1="60.252" x2="88.545" y2="112.322" stroke-linecap="round" style="stroke:blue;stroke-width:2" />
<line x1="88.545" y1="112.322" x2="66.722" y2="250.105" stroke-linecap="round" style="stroke:green;stroke-width:2" />
<line x1="66.722" y1="250.105" x2="173.968" y2="340.095" stroke-linecap="round" style="stroke:orange;stroke-width:2" />
<line x1="173.968" y1="340.095" x2="306.813" y2="294.353" stroke-linecap="round" style="stroke:yellow;stroke-width:2" />
<line x1="306.813" y1="294.353" x2="336.129" y2="156.434" stroke-linecap="round" style="stroke:red;stroke-width:2" />
<line x1="336.129" y1="156.434" x2="232.642" y2="59.931" stroke-linecap="round" style="stroke:purple;stroke-width:2" />
<line x1="232.642" y1="59.931" x2="96.143" y2="99.072" stroke-linecap="round" style="stroke:blue;stroke-width:2" />
<line x1="96.143" y1="99.072" x2="59.261" y2="236.716" stroke-linecap="round" style="stroke:green;stroke-width:2" />
<line x1="59.261" y1="236.716" x2="158.597" y2="339.582" stroke-linecap="round" style="stroke:orange;stroke-width:2" />
<line x1="158.597" y1="339.582" x2="298.419" y2="307.302" stroke-linecap="round" style="stroke:yellow;stroke-width:2" />
<line x1="298.419" y1="307.302" x2="342.917" y2="170.35" stroke-linecap="round" style="stroke:red;stroke-width:2" />
<line x1="342.917" y1="170.35" x2="248.116" y2="61.294" stroke-linecap="round" style="stroke:purple;stroke-width:2" />
<line x1="248.116" y1="61.294" x2="105.319" y2="86.473" stroke-linecap="round" style="stroke:blue;stroke-width:2" />
<line x1="105.319" y1="86.473" x2="53.176" y2="222.309" stroke-linecap="round" style="stroke:green;stroke-width:2" />
<line x1="53.176" y1="222.309" x2="143.063" y2="337.359" stroke-linecap="round" style="stroke:orange;stroke-width:2" />
<line x1="143.063" y1="337.359" x2="288.471" y2="319.505" stroke-linecap="round" style="stroke:yellow;stroke-width:2" />
<line x1="288.471" y1="319.505" x2="348.261" y2="185.214" stroke-linecap="round" style="stroke:red;stroke-width:2" />
<line x1="348.261" y1="185.214" x2="263.658" y2="64.389" stroke-linecap="round" style="stroke:purple;stroke-width:2" />
<line x1="263.658" y1="64.389" x2="116.019" y2="74.713" stroke-linecap="round" style="stroke:blue;stroke-width:2" />
<line x1="116.019" y1="74.713" x2="48.601" y2="207.027" stroke-linecap="round" style="stroke:green;stroke-width:2" />
<line x1="48.601" y1="207.027" x2="127.559" y2="333.386" stroke-linecap="round" style="stroke:orange;stroke-width:2" />
<line x1="127.559" y1="333.386" x2="277.036" y2="330.777" stroke-linecap="round" style="stroke:yellow;stroke-width:2" />
<line x1="277.036" y1="330.777" x2="352.036" y2="200.873" stroke-linecap="round" style="stroke:red;stroke-width:2" />
<line x1="352.036" y1="200.873" x2="279.072" y2="69.243" stroke-linecap="round" style="stroke:purple;stroke-width:2" />
<line x1="279.072" y1="69.243" x2="128.164" y2="63.973" stroke-linecap="round" style="stroke:blue;stroke-width:2" />
<line x1="128.164" y1="63.973" x2="45.651" y2="191.032" stroke-linecap="round" style="stroke:green;stroke-width:2" />
<line x1="45.651" y1="191.032" x2="112.283" y2="327.649" stroke-linecap="round" style="stroke:orange;stroke-width:2" />
<line x1="112.283" y1="327.649" x2="264.203" y2="340.94" stroke-linecap="round" style="stroke:yellow;stroke-width:2" />
<line x1="264.203" y1="340.94" x2="354.134" y2="217.16" stroke-linecap="round" style="stroke:red;stroke-width:2" />
<line x1="354.134" y1="217.16" x2="294.157" y2="75.863" stroke-linecap="round" style="stroke:purple;stroke-width:2" />
<line x1="294.157" y1="75.863" x2="141.656" y2="54.43" stroke-linecap="round" style="stroke:blue;stroke-width:2" />
<line x1="141.656" y1="54.43" x2="44.426" y2="174.499" stroke-linecap="round" style="stroke:green;stroke-width:2" />
<line x1="44.426" y1="174.499" x2="97.439" y2="320.151" stroke-linecap="round" style="stroke:orange;stroke-width:2" />
<line x1="97.439" y1="320.151" x2="250.082" y2="349.822" stroke-linecap="round" style="stroke:yellow;stroke-width:2" />
<line x1="250.082" y1="349.822" x2="354.466" y2="233.891" stroke-linecap="round" style="stroke:red;stroke-width:2" />
<line x1="354.466" y1="233.891" x2="308.71" y2="84.229" stroke-linecap="round" style="stroke:purple;stroke-width:2" />
<line x1="308.71" y1="84.229" x2="156.374" y2="46.247" stroke-linecap="round" style="stroke:blue;stroke-width:2" />
<line x1="156.374" y1="46.247" x2="45.005" y2="157.616" stroke-linecap="round" style="stroke:green;stroke-width:2" />
<line x1="45.005" y1="157.616" x2="83.229" y2="310.923" stroke-linecap="round" style="stroke:orange;stroke-width:2" />
<line x1="83.229" y1="310.923" x2="234.803" y2="357.264" stroke-linecap="round" style="stroke:yellow;stroke-width:2" />
<line x1="234.803" y1="357.264" x2="352.963" y2="250.872" stroke-linecap="round" style="stroke:red;stroke-width:2" />
<line x1="352.963" y1="250.872" x2="322.529" y2="94.302" stroke-linecap="round" style="stroke:purple;stroke-width:2" />
<line x1="322.529" y1="94.302" x2="172.178" y2="39.579" stroke-linecap="round" style="stroke:blue;stroke-width:2" />
<line x1="172.178" y1="39.579" x2="47.446" y2="140.585" stroke-linecap="round" style="stroke:green;stroke-width:2" />
<line x1="47.446" y1="140.585" x2="69.853" y2="300.018" stroke-linecap="round" style="stroke:orange;stroke-width:2" />
<line x1="69.853" y1="300.018" x2="218.515" y2="363.121" stroke-linecap="round" style="stroke:yellow;stroke-width:2" />
<line x1="218.515" y1="363.121" x2="349.576" y2="267.9" stroke-linecap="round" style="stroke:red;stroke-width:2" />
<line x1="349.576" y1="267.9" x2="335.413" y2="106.018" stroke-linecap="round" style="stroke:purple;stroke-width:2" />
<line x1="335.413" y1="106.018" x2="188.91" y2="34.564" stroke-linecap="round" style="stroke:blue;stroke-width:2" />
<line x1="188.91" y1="34.564" x2="51.787" y2="123.612" stroke-linecap="round" style="stroke:green;stroke-width:2" />
<line x1="51.787" y1="123.612" x2="57.511" y2="287.512" stroke-linecap="round" style="stroke:orange;stroke-width:2" />
<line x1="57.511" y1="287.512" x2="201.386" y2="367.263" stroke-linecap="round" style="stroke:yellow;stroke-width:2" />
<line x1="201.386" y1="367.263" x2="344.28" y2="284.763" stroke-linecap="round" style="stroke:red;stroke-width:2" />
<line x1="344.28" y1="284.763" x2="347.168" y2="119.288" stroke-linecap="round" style="stroke:purple;stroke-width:2" />
<line x1="347.168" y1="119.288" x2="206.392" y2="31.321" stroke-linecap="round" style="stroke:blue;stroke-width:2" />
<line x1="206.392" y1="31.321" x2="58.039" y2="106.91" stroke-linecap="round" style="stroke:green;stroke-width:2" />
<line x1="58.039" y1="106.91" x2="46.39" y2="273.503" stroke-linecap="round" style="stroke:orange;stroke-width:2" />
<line x1="46.39" y1="273.503" x2="183.598" y2="369.577" stroke-linecap="round" style="stroke:yellow;stroke-width:2" />
<line x1="183.598" y1="369.577" x2="337.074" y2="301.245" stroke-linecap="round" style="stroke:red;stroke-width:2" />
<line x1="337.074" y1="301.245" x2="357.609" y2="134.001" stroke-linecap="round" style="stroke:purple;stroke-width:2" />
<line x1="357.609" y1="134.001" x2="224.435" y2="29.954" stroke-linecap="round" style="stroke:blue;stroke-width:2" />
<line x1="224.435" y1="29.954" x2="66.193" y2="90.697" stroke-linecap="round" style="stroke:green;stroke-width:2" />
<line x1="66.193" y1="90.697" x2="36.673" y2="258.114" stroke-linecap="round" style="stroke:orange;stroke-width:2" />
<line x1="36.673" y1="258.114" x2="165.351" y2="369.972" stroke-linecap="round" style="stroke:yellow;stroke-width:2" />
<line x1="165.351" y1="369.972" x2="327.982" y2="317.13" stroke-linecap="round" style="stroke:red;stroke-width:2" />
<line x1="327.982" y1="317.13" x2="366.561" y2="150.026" stroke-linecap="round" style="stroke:purple;stroke-width:2" />
<line x1="366.561" y1="150.026" x2="242.835" y2="30.545" stroke-linecap="round" style="stroke:blue;stroke-width:2" />
<line x1="242.835" y1="30.545" x2="76.213" y2="75.191" stroke-linecap="round" style="stroke:green;stroke-width:2" />
<line x1="76.213" y1="75.191" x2="28.528" y2="241.489" stroke-linecap="round" style="stroke:orange;stroke-width:2" />
<line x1="28.528" y1="241.489" x2="146.855" y2="368.379" stroke-linecap="round" style="stroke:yellow;stroke-width:2" />
<line x1="146.855" y1="368.379" x2="317.053" y2="332.202" stroke-linecap="round" style="stroke:red;stroke-width:2" />
<line x1="317.053" y1="332.202" x2="373.865" y2="167.209" stroke-linecap="round" style="stroke:purple;stroke-width:2" />
<line x1="373.865" y1="167.209" x2="261.377" y2="33.151" stroke-linecap="round" style="stroke:blue;stroke-width:2" />
<line x1="261.377" y1="33.151" x2="88.038" y2="60.605" stroke-linecap="round" style="stroke:green;stroke-width:2" />
<line x1="88.038" y1="60.605" x2="22.107" y2="223.789" stroke-linecap="round" style="stroke:orange;stroke-width:2" />
<line x1="22.107" y1="223.789" x2="128.327" y2="364.748" stroke-linecap="round" style="stroke:yellow;stroke-width:2" />
<line x1="128.327" y1="364.748" x2="304.357" y2="346.246" stroke-linecap="round" style="stroke:red;stroke-width:2" />
<line x1="304.357" y1="346.246" x2="379.372" y2="185.376" stroke-linecap="round" style="stroke:purple;stroke-width:2" />
<line x1="379.372" y1="185.376" x2="279.836" y2="37.807" stroke-linecap="round" style="stroke:blue;stroke-width:2" />
<line x1="279.836" y1="37.807" x2="101.581" y2="47.149" stroke-linecap="round" style="stroke:green;stroke-width:2" />
<line x1="101.581" y1="47.149" x2="17.546" y2="205.197" stroke-linecap="round" style="stroke:orange;stroke-width:2" />
<line x1="17.546" y1="205.197" x2="109.995" y2="359.059" stroke-linecap="round" style="stroke:yellow;stroke-width:2" />
</svg>