<svg width="600" height="400" viewBox="0 0 600 400" xmlns="http://www.w3.org/2000/svg">
<rect width="100%" height="100%" style="fill:white;stroke:;stroke-width:1" />
<line x1="7.228915662650603" y1="366.66666666666663" x2="600.0" y2="366.66666666666663" stroke-lineca="round" style="stroke:black;stroke-width:1" />
<line x1="14.457831325301205" y1="399.99999999999994" x2="14.457831325301205" y2="0.0" stroke-lineca="round" style="stroke:black;stroke-width:1" />
<line x1="14.458" y1="250.0" x2="21.687" y2="70.917" stroke-linecap="round" style="stroke:blue;stroke-width:1" />
<line x1="21.687" y1="70.917" x2="28.916" y2="236.618" stroke-linecap="round" style="stroke:blue;stroke-width:1" />
<line x1="28.916" y1="236.618" x2="36.145" y2="57.355" stroke-linecap="round" style="stroke:blue;stroke-width:1" />
<line x1="36.145" y1="57.355" x2="43.373" y2="279.734" stroke-linecap="round" style="stroke:blue;stroke-width:1" />
<line x1="43.373" y1="279.734" x2="50.602" y2="116.049" stroke-linecap="round" style="stroke:blue;stroke-width:1" />
<line x1="50.602" y1="116.049" x2="57.831" y2="124.125" stroke-linecap="round" style="stroke:blue;stroke-width:1" />
<line x1="57.831" y1="124.125" x2="65.06" y2="109.023" stroke-linecap="round" style="stroke:blue;stroke-width:1" />
<line x1="65.06" y1="109.023" x2="72.289" y2="138.505" stroke-linecap="round" style="stroke:blue;stroke-width:1" />
<line x1="72.289" y1="138.505" x2="79.518" y2="85.911" stroke-linecap="round" style="stroke:blue;stroke-width:1" />
<line x1="79.518" y1="85.911" x2="86.747" y2="193.957" stroke-linecap="round" style="stroke:blue;stroke-width:1" />
<line x1="86.747" y1="193.957" x2="93.976" y2="42.094" stroke-linecap="round" style="stroke:blue;stroke-width:1" />
<line x1="93.976" y1="42.094" x2="101.205" y2="333.398" stroke-linecap="round" style="stroke:blue;stroke-width:1" />
<line x1="101.205" y1="333.398" x2="108.434" y2="249.869" stroke-linecap="round" style="stroke:blue;stroke-width:1" />
<line x1="108.434" y1="249.869" x2="115.663" y2="70.764" stroke-linecap="round" style="stroke:blue;stroke-width:1" />
<line x1="115.663" y1="70.764" x2="122.892" y2="237.08" stroke-linecap="round" style="stroke:blue;stroke-width:1" />
<line x1="122.892" y1="237.08" x2="130.12" y2="57.753" stroke-linecap="round" style="stroke:blue;stroke-width:1" />
<line x1="130.12" y1="57.753" x2="137.349" y2="278.405" stroke-linecap="round" style="stroke:blue;stroke-width:1" />
<line x1="137.349" y1="278.405" x2="144.578" y2="113.591" stroke-linecap="round" style="stroke:blue;stroke-width:1" />
<line x1="144.578" y1="113.591" x2="151.807" y2="129.025" stroke-linecap="round" style="stroke:blue;stroke-width:1" />
<line x1="151.807" y1="129.025" x2="159.036" y2="100.606" stroke-linecap="round" style="stroke:blue;stroke-width:1" />
<line x1="159.036" y1="100.606" x2="166.265" y2="157.254" stroke-linecap="round" style="stroke:blue;stroke-width:1" />
<line x1="166.265" y1="157.254" x2="173.494" y2="63.045" stroke-linecap="round" style="stroke:blue;stroke-width:1" />
<line x1="173.494" y1="63.045" x2="180.723" y2="261.119" stroke-linecap="round" style="stroke:blue;stroke-width:1" />
<line x1="180.723" y1="261.119" x2="187.952" y2="85.372" stroke-linecap="round" style="stroke:blue;stroke-width:1" />
<line x1="187.952" y1="85.372" x2="195.181" y2="195.399" stroke-linecap="round" style="stroke:blue;stroke-width:1" />
<line x1="195.181" y1="195.399" x2="202.41" y2="41.914" stroke-linecap="round" style="stroke:blue;stroke-width:1" />
<line x1="202.41" y1="41.914" x2="209.639" y2="334.062" stroke-linecap="round" style="stroke:blue;stroke-width:1" />
<line x1="209.639" y1="334.062" x2="216.867" y2="251.947" stroke-linecap="round" style="stroke:blue;stroke-width:1" />
<line x1="216.867" y1="251.947" x2="224.096" y2="73.239" stroke-linecap="round" style="stroke:blue;stroke-width:1" />
<line x1="224.096" y1="73.239" x2="231.325" y2="229.666" stroke-linecap="round" style="stroke:blue;stroke-width:1" />
<line x1="231.325" y1="229.666" x2="238.554" y2="51.964" stroke-linecap="round" style="stroke:blue;stroke-width:1" />
<line x1="238.554" y1="51.964" x2="245.783" y2="298.069" stroke-linecap="round" style="stroke:blue;stroke-width:1" />
<line x1="245.783" y1="298.069" x2="253.012" y2="154.191" stroke-linecap="round" style="stroke:blue;stroke-width:1" />
<line x1="253.012" y1="154.191" x2="260.241" y2="66.218" stroke-linecap="round" style="stroke:blue;stroke-width:1" />
<line x1="260.241" y1="66.218" x2="267.47" y2="251.068" stroke-linecap="round" style="stroke:blue;stroke-width:1" />
<line x1="267.47" y1="251.068" x2="274.699" y2="72.179" stroke-linecap="round" style="stroke:blue;stroke-width:1" />
<line x1="274.699" y1="72.179" x2="281.928" y2="232.823" stroke-linecap="round" style="stroke:blue;stroke-width:1" />
<line x1="281.928" y1="232.823" x2="289.157" y2="54.272" stroke-linecap="round" style="stroke:blue;stroke-width:1" />
<line x1="289.157" y1="54.272" x2="296.386" y2="290.137" stroke-linecap="round" style="stroke:blue;stroke-width:1" />
<line x1="296.386" y1="290.137" x2="303.614" y2="136.724" stroke-linecap="round" style="stroke:blue;stroke-width:1" />
<line x1="303.614" y1="136.724" x2="310.843" y2="88.511" stroke-linecap="round" style="stroke:blue;stroke-width:1" />
<line x1="310.843" y1="88.511" x2="318.072" y2="187.095" stroke-linecap="round" style="stroke:blue;stroke-width:1" />
<line x1="318.072" y1="187.095" x2="325.301" y2="43.615" stroke-linecap="round" style="stroke:blue;stroke-width:1" />
<line x1="325.301" y1="43.615" x2="332.53" y2="327.805" stroke-linecap="round" style="stroke:blue;stroke-width:1" />
<line x1="332.53" y1="327.805" x2="339.759" y2="232.775" stroke-linecap="round" style="stroke:blue;stroke-width:1" />
<line x1="339.759" y1="232.775" x2="346.988" y2="54.235" stroke-linecap="round" style="stroke:blue;stroke-width:1" />
<line x1="346.988" y1="54.235" x2="354.217" y2="290.262" stroke-linecap="round" style="stroke:blue;stroke-width:1" />
<line x1="354.217" y1="290.262" x2="361.446" y2="136.99" stroke-linecap="round" style="stroke:blue;stroke-width:1" />
<line x1="361.446" y1="136.99" x2="368.675" y2="88.118" stroke-linecap="round" style="stroke:blue;stroke-width:1" />
<line x1="368.675" y1="88.118" x2="375.904" y2="188.121" stroke-linecap="round" style="stroke:blue;stroke-width:1" />
<line x1="375.904" y1="188.121" x2="383.133" y2="43.318" stroke-linecap="round" style="stroke:blue;stroke-width:1" />
<line x1="383.133" y1="43.318" x2="390.361" y2="328.895" stroke-linecap="round" style="stroke:blue;stroke-width:1" />
<line x1="390.361" y1="328.895" x2="397.59" y2="236.048" stroke-linecap="round" style="stroke:blue;stroke-width:1" />
<line x1="397.59" y1="236.048" x2="404.819" y2="56.871" stroke-linecap="round" style="stroke:blue;stroke-width:1" />
<line x1="404.819" y1="56.871" x2="412.048" y2="281.353" stroke-linecap="round" style="stroke:blue;stroke-width:1" />
<line x1="412.048" y1="281.353" x2="419.277" y2="119.101" stroke-linecap="round" style="stroke:blue;stroke-width:1" />
<line x1="419.277" y1="119.101" x2="426.506" y2="118.238" stroke-linecap="round" style="stroke:blue;stroke-width:1" />
<line x1="426.506" y1="118.238" x2="433.735" y2="119.881" stroke-linecap="round" style="stroke:blue;stroke-width:1" />
<line x1="433.735" y1="119.881" x2="440.964" y2="116.769" stroke-linecap="round" style="stroke:blue;stroke-width:1" />
<line x1="440.964" y1="116.769" x2="448.193" y2="122.716" stroke-linecap="round" style="stroke:blue;stroke-width:1" />
<line x1="448.193" y1="122.716" x2="455.422" y2="111.548" stroke-linecap="round" style="stroke:blue;stroke-width:1" />
<line x1="455.422" y1="111.548" x2="462.651" y2="133.205" stroke-linecap="round" style="stroke:blue;stroke-width:1" />
<line x1="462.651" y1="133.205" x2="469.88" y2="93.868" stroke-linecap="round" style="stroke:blue;stroke-width:1" />
<line x1="469.88" y1="93.868" x2="477.108" y2="173.457" stroke-linecap="round" style="stroke:blue;stroke-width:1" />
<line x1="477.108" y1="173.457" x2="484.337" y2="49.91" stroke-linecap="round" style="stroke:blue;stroke-width:1" />
<line x1="484.337" y1="49.91" x2="491.566" y2="305.233" stroke-linecap="round" style="stroke:blue;stroke-width:1" />
<line x1="491.566" y1="305.233" x2="498.795" y2="171.232" stroke-linecap="round" style="stroke:blue;stroke-width:1" />
<line x1="498.795" y1="171.232" x2="506.024" y2="51.349" stroke-linecap="round" style="stroke:blue;stroke-width:1" />
<line x1="506.024" y1="51.349" x2="513.253" y2="300.202" stroke-linecap="round" style="stroke:blue;stroke-width:1" />
<line x1="513.253" y1="300.202" x2="520.482" y2="159.139" stroke-linecap="round" style="stroke:blue;stroke-width:1" />
<line x1="520.482" y1="159.139" x2="527.711" y2="61.201" stroke-linecap="round" style="stroke:blue;stroke-width:1" />
<line x1="527.711" y1="61.201" x2="534.94" y2="267.068" stroke-linecap="round" style="stroke:blue;stroke-width:1" />
<line x1="534.94" y1="267.068" x2="542.169" y2="94.295" stroke-linecap="round" style="stroke:blue;stroke-width:1" />
<line x1="542.169" y1="94.295" x2="549.398" y2="172.397" stroke-linecap="round" style="stroke:blue;stroke-width:1" />
<line x1="549.398" y1="172.397" x2="556.627" y2="50.581" stroke-linecap="round" style="stroke:blue;stroke-width:1" />
<line x1="556.627" y1="50.581" x2="563.855" y2="302.88" stroke-linecap="round" style="stroke:blue;stroke-width:1" />
<line x1="563.855" y1="302.88" x2="571.084" y2="165.502" stroke-linecap="round" style="stroke:blue;stroke-width:1" />
<line x1="571.084" y1="165.502" x2="578.313" y2="55.591" stroke-linecap="round" style="stroke:blue;stroke-width:1" />
<line x1="578.313" y1="55.591" x2="585.542" y2="285.659" stroke-linecap="round" style="stroke:blue;stroke-width:1" />
<line x1="585.542" y1="285.659" x2="592.771" y2="127.516" stroke-linecap="round" style="stroke:blue;stroke-width:1" />
<line x1="14.458" y1="250.0" x2="21.687" y2="70.917" stroke-linecap="round" style="stroke:green;stroke-width:1" />
<line x1="21.687" y1="70.917" x2="28.916" y2="236.618" stroke-linecap="round" style="stroke:green;stroke-width:1" />
<line x1="28.916" y1="236.618" x2="36.145" y2="57.355" stroke-linecap="round" style="stroke:green;stroke-width:1" />
<line x1="36.145" y1="57.355" x2="43.373" y2="279.734" stroke-linecap="round" style="stroke:green;stroke-width:1" />
<line x1="43.373" y1="279.734" x2="50.602" y2="116.049" stroke-linecap="round" style="stroke:green;stroke-width:1" />
<line x1="50.602" y1="116.049" x2="57.831" y2="124.125" stroke-linecap="round" style="stroke:green;stroke-width:1" />
<line x1="57.831" y1="124.125" x2="65.06" y2="109.023" stroke-linecap="round" style="stroke:green;stroke-width:1" />
<line x1="65.06" y1="109.023" x2="72.289" y2="138.505" stroke-linecap="round" style="stroke:green;stroke-width:1" />
<line x1="72.289" y1="138.505" x2="79.518" y2="85.911" stroke-linecap="round" style="stroke:green;stroke-width:1" />
<line x1="79.518" y1="85.911" x2="86.747" y2="193.957" stroke-linecap="round" style="stroke:green;stroke-width:1" />
<line x1="86.747" y1="193.957" x2="93.976" y2="42.094" stroke-linecap="round" style="stroke:green;stroke-width:1" />
<line x1="93.976" y1="42.094" x2="101.205" y2="333.398" stroke-linecap="round" style="stroke:green;stroke-width:1" />
<line x1="101.205" y1="333.398" x2="108.434" y2="249.869" stroke-linecap="round" style="stroke:green;stroke-width:1" />
<line x1="108.434" y1="249.869" x2="115.663" y2="70.764" stroke-linecap="round" style="stroke:green;stroke-width:1" />
<line x1="115.663" y1="70.764" x2="122.892" y2="237.08" stroke-linecap="round" style="stroke:green;stroke-width:1" />
<line x1="122.892" y1="237.08" x2="130.12" y2="57.753" stroke-linecap="round" style="stroke:green;stroke-width:1" />
<line x1="130.12" y1="57.753" x2="137.349" y2="278.405" stroke-linecap="round" style="stroke:green;stroke-width:1" />
<line x1="137.349" y1="278.405" x2="144.578" y2="113.591" stroke-linecap="round" style="stroke:green;stroke-width:1" />
<line x1="144.578" y1="113.591" x2="151.807" y2="129.025" stroke-linecap="round" style="stroke:green;stroke-width:1" />
<line x1="151.807" y1="129.025" x2="159.036" y2="100.606" stroke-linecap="round" style="stroke:green;stroke-width:1" />
<line x1="159.036" y1="100.606" x2="166.265" y2="157.254" stroke-linecap="round" style="stroke:green;stroke-width:1" />
<line x1="166.265" y1="157.254" x2="173.494" y2="63.045" stroke-linecap="round" style="stroke:green;stroke-width:1" />
<line x1="173.494" y1="63.045" x2="180.723" y2="261.119" stroke-linecap="round" style="stroke:green;stroke-width:1" />
<line x1="180.723" y1="261.119" x2="187.952" y2="85.372" stroke-linecap="round" style="stroke:green;stroke-width:1" />
<line x1="187.952" y1="85.372" x2="195.181" y2="195.399" stroke-linecap="round" style="stroke:green;stroke-width:1" />
<line x1="195.181" y1="195.399" x2="202.41" y2="41.914" stroke-linecap="round" style="stroke:green;stroke-width:1" />
<line x1="202.41" y1="41.914" x2="209.639" y2="334.062" stroke-linecap="round" style="stroke:green;stroke-width:1" />
<line x1="209.639" y1="334.062" x2="216.867" y2="251.947" stroke-linecap="round" style="stroke:green;stroke-width:1" />
<line x1="216.867" y1="251.947" x2="224.096" y2="73.239" stroke-linecap="round" style="stroke:green;stroke-width:1" />
<line x1="224.096" y1="73.239" x2="231.325" y2="229.666" stroke-linecap="round" style="stroke:green;stroke-width:1" />
<line x1="231.325" y1="229.666" x2="238.554" y2="51.964" stroke-linecap="round" style="stroke:green;stroke-width:1" />
<line x1="238.554" y1="51.964" x2="245.783" y2="298.069" stroke-linecap="round" style="stroke:green;stroke-width:1" />
<line x1="245.783" y1="298.069" x2="253.012" y2="154.191" stroke-linecap="round" style="stroke:green;stroke-width:1" />
<line x1="253.012" y1="154.191" x2="260.241" y2="66.218" stroke-linecap="round" style="stroke:green;stroke-width:1" />
<line x1="260.241" y1="66.218" x2="267.47" y2="251.068" stroke-linecap="round" style="stroke:green;stroke-width:1" />
<line x1="267.47" y1="251.068" x2="274.699" y2="72.179" stroke-linecap="round" style="stroke:green;stroke-width:1" />
<line x1="274.699" y1="72.179" x2="281.928" y2="232.823" stroke-linecap="round" style="stroke:green;stroke-width:1" />
<line x1="281.928" y1="232.823" x2="289.157" y2="54.272" stroke-linecap="round" style="stroke:green;stroke-width:1" />
<line x1="289.157" y1="54.272" x2="296.386" y2="290.137" stroke-linecap="round" style="stroke:green;stroke-width:1" />
<line x1="296.386" y1="290.137" x2="303.614" y2="136.724" stroke-linecap="round" style="stroke:green;stroke-width:1" />
<line x1="303.614" y1="136.724" x2="310.843" y2="88.511" stroke-linecap="round" style="stroke:green;stroke-width:1" />
<line x1="310.843" y1="88.511" x2="318.072" y2="187.095" stroke-linecap="round" style="stroke:green;stroke-width:1" />
<line x1="318.072" y1="187.095" x2="325.301" y2="43.615" stroke-linecap="round" style="stroke:green;stroke-width:1" />
<line x1="325.301" y1="43.615" x2="332.53" y2="327.805" stroke-linecap="round" style="stroke:green;stroke-width:1" />
<line x1="332.53" y1="327.805" x2="339.759" y2="232.775" stroke-linecap="round" style="stroke:green;stroke-width:1" />
<line x1="339.759" y1="232.775" x2="346.988" y2="54.235" stroke-linecap="round" style="stroke:green;stroke-width:1" />
<line x1="346.988" y1="54.235" x2="354.217" y2="290.263" stroke-linecap="round" style="stroke:green;stroke-width:1" />
<line x1="354.217" y1="290.263" x2="361.446" y2="136.991" stroke-linecap="round" style="stroke:green;stroke-width:1" />
<line x1="361.446" y1="136.991" x2="368.675" y2="88.117" stroke-linecap="round" style="stroke:green;stroke-width:1" />
<line x1="368.675" y1="88.117" x2="375.904" y2="188.125" stroke-linecap="round" style="stroke:green;stroke-width:1" />
<line x1="375.904" y1="188.125" x2="383.133" y2="43.316" stroke-linecap="round" style="stroke:green;stroke-width:1" />
<line x1="383.133" y1="43.316" x2="390.361" y2="328.899" stroke-linecap="round" style="stroke:green;stroke-width:1" />
<line x1="390.361" y1="328.899" x2="397.59" y2="236.06" stroke-linecap="round" style="stroke:green;stroke-width:1" />
<line x1="397.59" y1="236.06" x2="404.819" y2="56.881" stroke-linecap="round" style="stroke:green;stroke-width:1" />
<line x1="404.819" y1="56.881" x2="412.048" y2="281.32" stroke-linecap="round" style="stroke:green;stroke-width:1" />
<line x1="412.048" y1="281.32" x2="419.277" y2="119.038" stroke-linecap="round" style="stroke:green;stroke-width:1" />
<line x1="419.277" y1="119.038" x2="426.506" y2="118.359" stroke-linecap="round" style="stroke:green;stroke-width:1" />
<line x1="426.506" y1="118.359" x2="433.735" y2="119.651" stroke-linecap="round" style="stroke:green;stroke-width:1" />
<line x1="433.735" y1="119.651" x2="440.964" y2="117.202" stroke-linecap="round" style="stroke:green;stroke-width:1" />
<line x1="440.964" y1="117.202" x2="448.193" y2="121.876" stroke-linecap="round" style="stroke:green;stroke-width:1" />
<line x1="448.193" y1="121.876" x2="455.422" y2="113.076" stroke-linecap="round" style="stroke:green;stroke-width:1" />
<line x1="455.422" y1="113.076" x2="462.651" y2="130.07" stroke-linecap="round" style="stroke:green;stroke-width:1" />
<line x1="462.651" y1="130.07" x2="469.88" y2="98.882" stroke-linecap="round" style="stroke:green;stroke-width:1" />
<line x1="469.88" y1="98.882" x2="477.108" y2="161.298" stroke-linecap="round" style="stroke:green;stroke-width:1" />
<line x1="477.108" y1="161.298" x2="484.337" y2="59.191" stroke-linecap="round" style="stroke:green;stroke-width:1" />
<line x1="484.337" y1="59.191" x2="491.566" y2="273.644" stroke-linecap="round" style="stroke:green;stroke-width:1" />
<line x1="491.566" y1="273.644" x2="498.795" y2="105.12" stroke-linecap="round" style="stroke:green;stroke-width:1" />
<line x1="498.795" y1="105.12" x2="506.024" y2="146.992" stroke-linecap="round" style="stroke:green;stroke-width:1" />
<line x1="506.024" y1="146.992" x2="513.253" y2="74.541" stroke-linecap="round" style="stroke:green;stroke-width:1" />
<line x1="513.253" y1="74.541" x2="520.482" y2="225.823" stroke-linecap="round" style="stroke:green;stroke-width:1" />
<line x1="520.482" y1="225.823" x2="527.711" y2="49.469" stroke-linecap="round" style="stroke:green;stroke-width:1" />
<line x1="527.711" y1="49.469" x2="534.94" y2="306.785" stroke-linecap="round" style="stroke:green;stroke-width:1" />
<line x1="534.94" y1="306.785" x2="542.169" y2="175.082" stroke-linecap="round" style="stroke:green;stroke-width:1" />
<line x1="542.169" y1="175.082" x2="549.398" y2="48.931" stroke-linecap="round" style="stroke:green;stroke-width:1" />
<line x1="549.398" y1="48.931" x2="556.627" y2="308.681" stroke-linecap="round" style="stroke:green;stroke-width:1" />
<line x1="556.627" y1="308.681" x2="563.855" y2="179.862" stroke-linecap="round" style="stroke:green;stroke-width:1" />
<line x1="563.855" y1="179.862" x2="571.084" y2="46.411" stroke-linecap="round" style="stroke:green;stroke-width:1" />
<line x1="571.084" y1="46.411" x2="578.313" y2="317.663" stroke-linecap="round" style="stroke:green;stroke-width:1" />
<line x1="578.313" y1="317.663" x2="585.542" y2="203.649" stroke-linecap="round" style="stroke:green;stroke-width:1" />
<line x1="585.542" y1="203.649" x2="592.771" y2="41.822" stroke-linecap="round" style="stroke:green;stroke-width:1" />
<line x1="14.458" y1="250.0" x2="21.687" y2="70.917" stroke-linecap="round" style="stroke:red;stroke-width:1" />
<line x1="21.687" y1="70.917" x2="28.916" y2="236.618" stroke-linecap="round" style="stroke:red;stroke-width:1" />
<line x1="28.916" y1="236.618" x2="36.145" y2="57.355" stroke-linecap="round" style="stroke:red;stroke-width:1" />
<line x1="36.145" y1="57.355" x2="43.373" y2="279.734" stroke-linecap="round" style="stroke:red;stroke-width:1" />
<line x1="43.373" y1="279.734" x2="50.602" y2="116.049" stroke-linecap="round" style="stroke:red;stroke-width:1" />
<line x1="50.602" y1="116.049" x2="57.831" y2="124.125" stroke-linecap="round" style="stroke:red;stroke-width:1" />
<line x1="57.831" y1="124.125" x2="65.06" y2="109.023" stroke-linecap="round" style="stroke:red;stroke-width:1" />
<line x1="65.06" y1="109.023" x2="72.289" y2="138.505" stroke-linecap="round" style="stroke:red;stroke-width:1" />
<line x1="72.289" y1="138.505" x2="79.518" y2="85.911" stroke-linecap="round" style="stroke:red;stroke-width:1" />
<line x1="79.518" y1="85.911" x2="86.747" y2="193.957" stroke-linecap="round" style="stroke:red;stroke-width:1" />
<line x1="86.747" y1="193.957" x2="93.976" y2="42.094" stroke-linecap="round" style="stroke:red;stroke-width:1" />
<line x1="93.976" y1="42.094" x2="101.205" y2="333.398" stroke-linecap="round" style="stroke:red;stroke-width:1" />
<line x1="101.205" y1="333.398" x2="108.434" y2="249.869" stroke-linecap="round" style="stroke:red;stroke-width:1" />
<line x1="108.434" y1="249.869" x2="115.663" y2="70.764" stroke-linecap="round" style="stroke:red;stroke-width:1" />
<line x1="115.663" y1="70.764" x2="122.892" y2="237.08" stroke-linecap="round" style="stroke:red;stroke-width:1" />
<line x1="122.892" y1="237.08" x2="130.12" y2="57.753" stroke-linecap="round" style="stroke:red;stroke-width:1" />
<line x1="130.12" y1="57.753" x2="137.349" y2="278.405" stroke-linecap="round" style="stroke:red;stroke-width:1" />
<line x1="137.349" y1="278.405" x2="144.578" y2="113.591" stroke-linecap="round" style="stroke:red;stroke-width:1" />
<line x1="144.578" y1="113.591" x2="151.807" y2="129.025" stroke-linecap="round" style="stroke:red;stroke-width:1" />
<line x1="151.807" y1="129.025" x2="159.036" y2="100.606" stroke-linecap="round" style="stroke:red;stroke-width:1" />
<line x1="159.036" y1="100.606" x2="166.265" y2="157.254" stroke-linecap="round" style="stroke:red;stroke-width:1" />
<line x1="166.265" y1="157.254" x2="173.494" y2="63.045" stroke-linecap="round" style="stroke:red;stroke-width:1" />
<line x1="173.494" y1="63.045" x2="180.723" y2="261.119" stroke-linecap="round" style="stroke:red;stroke-width:1" />
<line x1="180.723" y1="261.119" x2="187.952" y2="85.372" stroke-linecap="round" style="stroke:red;stroke-width:1" />
<line x1="187.952" y1="85.372" x2="195.181" y2="195.399" stroke-linecap="round" style="stroke:red;stroke-width:1" />
<line x1="195.181" y1="195.399" x2="202.41" y2="41.914" stroke-linecap="round" style="stroke:red;stroke-width:1" />
<line x1="202.41" y1="41.914" x2="209.639" y2="334.062" stroke-linecap="round" style="stroke:red;stroke-width:1" />
<line x1="209.639" y1="334.062" x2="216.867" y2="251.947" stroke-linecap="round" style="stroke:red;stroke-width:1" />
<line x1="216.867" y1="251.947" x2="224.096" y2="73.239" stroke-linecap="round" style="stroke:red;stroke-width:1" />
<line x1="224.096" y1="73.239" x2="231.325" y2="229.666" stroke-linecap="round" style="stroke:red;stroke-width:1" />
<line x1="231.325" y1="229.666" x2="238.554" y2="51.964" stroke-linecap="round" style="stroke:red;stroke-width:1" />
<line x1="238.554" y1="51.964" x2="245.783" y2="298.069" stroke-linecap="round" style="stroke:red;stroke-width:1" />
<line x1="245.783" y1="298.069" x2="253.012" y2="154.191" stroke-linecap="round" style="stroke:red;stroke-width:1" />
<line x1="253.012" y1="154.191" x2="260.241" y2="66.218" stroke-linecap="round" style="stroke:red;stroke-width:1" />
<line x1="260.241" y1="66.218" x2="267.47" y2="251.068" stroke-linecap="round" style="stroke:red;stroke-width:1" />
<line x1="267.47" y1="251.068" x2="274.699" y2="72.179" stroke-linecap="round" style="stroke:red;stroke-width:1" />
<line x1="274.699" y1="72.179" x2="281.928" y2="232.823" stroke-linecap="round" style="stroke:red;stroke-width:1" />
<line x1="281.928" y1="232.823" x2="289.157" y2="54.272" stroke-linecap="round" style="stroke:red;stroke-width:1" />
<line x1="289.157" y1="54.272" x2="296.386" y2="290.137" stroke-linecap="round" style="stroke:red;stroke-width:1" />
<line x1="296.386" y1="290.137" x2="303.614" y2="136.725" stroke-linecap="round" style="stroke:red;stroke-width:1" />
<line x1="303.614" y1="136.725" x2="310.843" y2="88.511" stroke-linecap="round" style="stroke:red;stroke-width:1" />
<line x1="310.843" y1="88.511" x2="318.072" y2="187.096" stroke-linecap="round" style="stroke:red;stroke-width:1" />
<line x1="318.072" y1="187.096" x2="325.301" y2="43.615" stroke-linecap="round" style="stroke:red;stroke-width:1" />
<line x1="325.301" y1="43.615" x2="332.53" y2="327.805" stroke-linecap="round" style="stroke:red;stroke-width:1" />
<line x1="332.53" y1="327.805" x2="339.759" y2="232.776" stroke-linecap="round" style="stroke:red;stroke-width:1" />
<line x1="339.759" y1="232.776" x2="346.988" y2="54.236" stroke-linecap="round" style="stroke:red;stroke-width:1" />
<line x1="346.988" y1="54.236" x2="354.217" y2="290.26" stroke-linecap="round" style="stroke:red;stroke-width:1" />
<line x1="354.217" y1="290.26" x2="361.446" y2="136.984" stroke-linecap="round" style="stroke:red;stroke-width:1" />
<line x1="361.446" y1="136.984" x2="368.675" y2="88.127" stroke-linecap="round" style="stroke:red;stroke-width:1" />
<line x1="368.675" y1="88.127" x2="375.904" y2="188.098" stroke-linecap="round" style="stroke:red;stroke-width:1" />
<line x1="375.904" y1="188.098" x2="383.133" y2="43.324" stroke-linecap="round" style="stroke:red;stroke-width:1" />
<line x1="383.133" y1="43.324" x2="390.361" y2="328.871" stroke-linecap="round" style="stroke:red;stroke-width:1" />
<line x1="390.361" y1="328.871" x2="397.59" y2="235.976" stroke-linecap="round" style="stroke:red;stroke-width:1" />
<line x1="397.59" y1="235.976" x2="404.819" y2="56.809" stroke-linecap="round" style="stroke:red;stroke-width:1" />
<line x1="404.819" y1="56.809" x2="412.048" y2="281.558" stroke-linecap="round" style="stroke:red;stroke-width:1" />
<line x1="412.048" y1="281.558" x2="419.277" y2="119.491" stroke-linecap="round" style="stroke:red;stroke-width:1" />
<line x1="419.277" y1="119.491" x2="426.506" y2="117.502" stroke-linecap="round" style="stroke:red;stroke-width:1" />
<line x1="426.506" y1="117.502" x2="433.735" y2="121.296" stroke-linecap="round" style="stroke:red;stroke-width:1" />
<line x1="433.735" y1="121.296" x2="440.964" y2="114.14" stroke-linecap="round" style="stroke:red;stroke-width:1" />
<line x1="440.964" y1="114.14" x2="448.193" y2="127.919" stroke-linecap="round" style="stroke:red;stroke-width:1" />
<line x1="448.193" y1="127.919" x2="455.422" y2="102.456" stroke-linecap="round" style="stroke:red;stroke-width:1" />
<line x1="455.422" y1="102.456" x2="462.651" y2="152.991" stroke-linecap="round" style="stroke:red;stroke-width:1" />
<line x1="462.651" y1="152.991" x2="469.88" y2="67.522" stroke-linecap="round" style="stroke:red;stroke-width:1" />
<line x1="469.88" y1="67.522" x2="477.108" y2="247.006" stroke-linecap="round" style="stroke:red;stroke-width:1" />
<line x1="477.108" y1="247.006" x2="484.337" y2="67.519" stroke-linecap="round" style="stroke:red;stroke-width:1" />
<line x1="484.337" y1="67.519" x2="491.566" y2="247.017" stroke-linecap="round" style="stroke:red;stroke-width:1" />
<line x1="491.566" y1="247.017" x2="498.795" y2="67.53" stroke-linecap="round" style="stroke:red;stroke-width:1" />
<line x1="498.795" y1="67.53" x2="506.024" y2="246.981" stroke-linecap="round" style="stroke:red;stroke-width:1" />
<line x1="506.024" y1="246.981" x2="513.253" y2="67.491" stroke-linecap="round" style="stroke:red;stroke-width:1" />
<line x1="513.253" y1="67.491" x2="520.482" y2="247.102" stroke-linecap="round" style="stroke:red;stroke-width:1" />
<line x1="520.482" y1="247.102" x2="527.711" y2="67.624" stroke-linecap="round" style="stroke:red;stroke-width:1" />
<line x1="527.711" y1="67.624" x2="534.94" y2="246.69" stroke-linecap="round" style="stroke:red;stroke-width:1" />
<line x1="534.94" y1="246.69" x2="542.169" y2="67.172" stroke-linecap="round" style="stroke:red;stroke-width:1" />
<line x1="542.169" y1="67.172" x2="549.398" y2="248.093" stroke-linecap="round" style="stroke:red;stroke-width:1" />
<line x1="549.398" y1="248.093" x2="556.627" y2="68.729" stroke-linecap="round" style="stroke:red;stroke-width:1" />
<line x1="556.627" y1="68.729" x2="563.855" y2="243.283" stroke-linecap="round" style="stroke:red;stroke-width:1" />
<line x1="563.855" y1="243.283" x2="571.084" y2="63.586" stroke-linecap="round" style="stroke:red;stroke-width:1" />
<line x1="571.084" y1="63.586" x2="578.313" y2="259.389" stroke-linecap="round" style="stroke:red;stroke-width:1" />
<line x1="578.313" y1="259.389" x2="585.542" y2="82.933" stroke-linecap="round" style="stroke:red;stroke-width:1" />
<line x1="585.542" y1="82.933" x2="592.771" y2="202.011" stroke-linecap="round" style="stroke:red;stroke-width:1" />
<circle cx="14.458" cy="250.0" r="2.5" fill="blue" fill-opacity="1" />
<circle cx="21.687" cy="70.917" r="2.5" fill="blue" fill-opacity="1" />
<circle cx="28.916" cy="236.618" r="2.5" fill="blue" fill-opacity="1" />
<circle cx="36.145" cy="57.355" r="2.5" fill="blue" fill-opacity="1" />
<circle cx="43.373" cy="279.734" r="2.5" fill="blue" fill-opacity="1" />
<circle cx="50.602" cy="116.049" r="2.5" fill="blue" fill-opacity="1" />
<circle cx="57.831" cy="124.125" r="2.5" fill="blue" fill-opacity="1" />
<circle cx="65.06" cy="109.023" r="2.5" fill="blue" fill-opacity="1" />
<circle cx="72.289" cy="138.505" r="2.5" fill="blue" fill-opacity="1" />
<circle cx="79.518" cy="85.911" r="2.5" fill="blue" fill-opacity="1" />
<circle cx="86.747" cy="193.957" r="2.5" fill="blue" fill-opacity="1" />
<circle cx="93.976" cy="42.094" r="2.5" fill="blue" fill-opacity="1" />
<circle cx="101.205" cy="333.398" r="2.5" fill="blue" fill-opacity="1" />
<circle cx="108.434" cy="249.869" r="2.5" fill="blue" fill-opacity="1" />
<circle cx="115.663" cy="70.764" r="2.5" fill="blue" fill-opacity="1" />
<circle cx="122.892" cy="237.08" r="2.5" fill="blue" fill-opacity="1" />
<circle cx="130.12" cy="57.753" r="2.5" fill="blue" fill-opacity="1" />
<circle cx="137.349" cy="278.405" r="2.5" fill="blue" fill-opacity="1" />
<circle cx="144.578" cy="113.591" r="2.5" fill="blue" fill-opacity="1" />
<circle cx="151.807" cy="129.025" r="2.5" fill="blue" fill-opacity="1" />
<circle cx="159.036" cy="100.606" r="2.5" fill="blue" fill-opacity="1" />
<circle cx="166.265" cy="157.254" r="2.5" fill="blue" fill-opacity="1" />
<circle cx="173.494" cy="63.045" r="2.5" fill="blue" fill-opacity="1" />
<circle cx="180.723" cy="261.119" r="2.5" fill="blue" fill-opacity="1" />
<circle cx="187.952" cy="85.372" r="2.5" fill="blue" fill-opacity="1" />
<circle cx="195.181" cy="195.399" r="2.5" fill="blue" fill-opacity="1" />
<circle cx="202.41" cy="41.914" r="2.5" fill="blue" fill-opacity="1" />
<circle cx="209.639" cy="334.062" r="2.5" fill="blue" fill-opacity="1" />
<circle cx="216.867" cy="251.947" r="2.5" fill="blue" fill-opacity="1" />
<circle cx="224.096" cy="73.239" r="2.5" fill="blue" fill-opacity="1" />
<circle cx="231.325" cy="229.666" r="2.5" fill="blue" fill-opacity="1" />
<circle cx="238.554" cy="51.964" r="2.5" fill="blue" fill-opacity="1" />
<circle cx="245.783" cy="298.069" r="2.5" fill="blue" fill-opacity="1" />
<circle cx="253.012" cy="154.191" r="2.5" fill="blue" fill-opacity="1" />
<circle cx="260.241" cy="66.218" r="2.5" fill="blue" fill-opacity="1" />
<circle cx="267.47" cy="251.068" r="2.5" fill="blue" fill-opacity="1" />
<circle cx="274.699" cy="72.179" r="2.5" fill="blue" fill-opacity="1" />
<circle cx="281.928" cy="232.823" r="2.5" fill="blue" fill-opacity="1" />
<circle cx="289.157" cy="54.272" r="2.5" fill="blue" fill-opacity="1" />
<circle cx="296.386" cy="290.137" r="2.5" fill="blue" fill-opacity="1" />
<circle cx="303.614" cy="136.724" r="2.5" fill="blue" fill-opacity="1" />
<circle cx="310.843" cy="88.511" r="2.5" fill="blue" fill-opacity="1" />
<circle cx="318.072" cy="187.095" r="2.5" fill="blue" fill-opacity="1" />
<circle cx="325.301" cy="43.615" r="2.5" fill="blue" fill-opacity="1" />
<circle cx="332.53" cy="327.805" r="2.5" fill="blue" fill-opacity="1" />
<circle cx="339.759" cy="232.775" r="2.5" fill="blue" fill-opacity="1" />
<circle cx="346.988" cy="54.235" r="2.5" fill="blue" fill-opacity="1" />
<circle cx="354.217" cy="290.262" r="2.5" fill="blue" fill-opacity="1" />
<circle cx="361.446" cy="136.99" r="2.5" fill="blue" fill-opacity="1" />
<circle cx="368.675" cy="88.118" r="2.5" fill="blue" fill-opacity="1" />
<circle cx="375.904" cy="188.121" r="2.5" fill="blue" fill-opacity="1" />
<circle cx="383.133" cy="43.318" r="2.5" fill="blue" fill-opacity="1" />
<circle cx="390.361" cy="328.895" r="2.5" fill="blue" fill-opacity="1" />
<circle cx="397.59" cy="236.048" r="2.5" fill="blue" fill-opacity="1" />
<circle cx="404.819" cy="56.871" r="2.5" fill="blue" fill-opacity="1" />
<circle cx="412.048" cy="281.353" r="2.5" fill="blue" fill-opacity="1" />
<circle cx="419.277" cy="119.101" r="2.5" fill="blue" fill-opacity="1" />
<circle cx="426.506" cy="118.238" r="2.5" fill="blue" fill-opacity="1" />
<circle cx="433.735" cy="119.881" r="2.5" fill="blue" fill-opacity="1" />
<circle cx="440.964" cy="116.769" r="2.5" fill="blue" fill-opacity="1" />
<circle cx="448.193" cy="122.716" r="2.5" fill="blue" fill-opacity="1" />
<circle cx="455.422" cy="111.548" r="2.5" fill="blue" fill-opacity="1" />
<circle cx="462.651" cy="133.205" r="2.5" fill="blue" fill-opacity="1" />
<circle cx="469.88" cy="93.868" r="2.5" fill="blue" fill-opacity="1" />
<circle cx="477.108" cy="173.457" r="2.5" fill="blue" fill-opacity="1" />
<circle cx="484.337" cy="49.91" r="2.5" fill="blue" fill-opacity="1" />
<circle cx="491.566" cy="305.233" r="2.5" fill="blue" fill-opacity="1" />
<circle cx="498.795" cy="171.232" r="2.5" fill="blue" fill-opacity="1" />
<circle cx="506.024" cy="51.349" r="2.5" fill="blue" fill-opacity="1" />
<circle cx="513.253" cy="300.202" r="2.5" fill="blue" fill-opacity="1" />
<circle cx="520.482" cy="159.139" r="2.5" fill="blue" fill-opacity="1" />
<circle cx="527.711" cy="61.201" r="2.5" fill="blue" fill-opacity="1" />
<circle cx="534.94" cy="267.068" r="2.5" fill="blue" fill-opacity="1" />
<circle cx="542.169" cy="94.295" r="2.5" fill="blue" fill-opacity="1" />
<circle cx="549.398" cy="172.397" r="2.5" fill="blue" fill-opacity="1" />
<circle cx="556.627" cy="50.581" r="2.5" fill="blue" fill-opacity="1" />
<circle cx="563.855" cy="302.88" r="2.5" fill="blue" fill-opacity="1" />
<circle cx="571.084" cy="165.502" r="2.5" fill="blue" fill-opacity="1" />
<circle cx="578.313" cy="55.591" r="2.5" fill="blue" fill-opacity="1" />
<circle cx="585.542" cy="285.659" r="2.5" fill="blue" fill-opacity="1" />
<circle cx="592.771" cy="127.516" r="2.5" fill="blue" fill-opacity="1" />
<circle cx="14.458" cy="250.0" r="2.5" fill="green" fill-opacity="1" />
<circle cx="21.687" cy="70.917" r="2.5" fill="green" fill-opacity="1" />
<circle cx="28.916" cy="236.618" r="2.5" fill="green" fill-opacity="1" />
<circle cx="36.145" cy="57.355" r="2.5" fill="green" fill-opacity="1" />
<circle cx="43.373" cy="279.734" r="2.5" fill="green" fill-opacity="1" />
<circle cx="50.602" cy="116.049" r="2.5" fill="green" fill-opacity="1" />
<circle cx="57.831" cy="124.125" r="2.5" fill="green" fill-opacity="1" />
<circle cx="65.06" cy="109.023" r="2.5" fill="green" fill-opacity="1" />
<circle cx="72.289" cy="138.505" r="2.5" fill="green" fill-opacity="1" />
<circle cx="79.518" cy="85.911" r="2.5" fill="green" fill-opacity="1" />
<circle cx="86.747" cy="193.957" r="2.5" fill="green" fill-opacity="1" />
<circle cx="93.976" cy="42.094" r="2.5" fill="green" fill-opacity="1" />
<circle cx="101.205" cy="333.398" r="2.5" fill="green" fill-opacity="1" />
<circle cx="108.434" cy="249.869" r="2.5" fill="green" fill-opacity="1" />
<circle cx="115.663" cy="70.764" r="2.5" fill="green" fill-opacity="1" />
<circle cx="122.892" cy="237.08" r="2.5" fill="green" fill-opacity="1" />
<circle cx="130.12" cy="57.753" r="2.5" fill="green" fill-opacity="1" />
<circle cx="137.349" cy="278.405" r="2.5" fill="green" fill-opacity="1" />
<circle cx="144.578" cy="113.591" r="2.5" fill="green" fill-opacity="1" />
<circle cx="151.807" cy="129.025" r="2.5" fill="green" fill-opacity="1" />
<circle cx="159.036" cy="100.606" r="2.5" fill="green" fill-opacity="1" />
<circle cx="166.265" cy="157.254" r="2.5" fill="green" fill-opacity="1" />
<circle cx="173.494" cy="63.045" r="2.5" fill="green" fill-opacity="1" />
<circle cx="180.723" cy="261.119" r="2.5" fill="green" fill-opacity="1" />
<circle cx="187.952" cy="85.372" r="2.5" fill="green" fill-opacity="1" />
<circle cx="195.181" cy="195.399" r="2.5" fill="green" fill-opacity="1" />
<circle cx="202.41" cy="41.914" r="2.5" fill="green" fill-opacity="1" />
<circle cx="209.639" cy="334.062" r="2.5" fill="green" fill-opacity="1" />
<circle cx="216.867" cy="251.947" r="2.5" fill="green" fill-opacity="1" />
<circle cx="224.096" cy="73.239" r="2.5" fill="green" fill-opacity="1" />
<circle cx="231.325" cy="229.666" r="2.5" fill="green" fill-opacity="1" />
<circle cx="238.554" cy="51.964" r="2.5" fill="green" fill-opacity="1" />
<circle cx="245.783" cy="298.069" r="2.5" fill="green" fill-opacity="1" />
<circle cx="253.012" cy="154.191" r="2.5" fill="green" fill-opacity="1" />
<circle cx="260.241" cy="66.218" r="2.5" fill="green" fill-opacity="1" />
<circle cx="267.47" cy="251.068" r="2.5" fill="green" fill-opacity="1" />
<circle cx="274.699" cy="72.179" r="2.5" fill="green" fill-opacity="1" />
<circle cx="281.928" cy="232.823" r="2.5" fill="green" fill-opacity="1" />
<circle cx="289.157" cy="54.272" r="2.5" fill="green" fill-opacity="1" />
<circle cx="296.386" cy="290.137" r="2.5" fill="green" fill-opacity="1" />
<circle cx="303.614" cy="136.724" r="2.5" fill="green" fill-opacity="1" />
<circle cx="310.843" cy="88.511" r="2.5" fill="green" fill-opacity="1" />
<circle cx="318.072" cy="187.095" r="2.5" fill="green" fill-opacity="1" />
<circle cx="325.301" cy="43.615" r="2.5" fill="green" fill-opacity="1" />
<circle cx="332.53" cy="327.805" r="2.5" fill="green" fill-opacity="1" />
<circle cx="339.759" cy="232.775" r="2.5" fill="green" fill-opacity="1" />
<circle cx="346.988" cy="54.235" r="2.5" fill="green" fill-opacity="1" />
<circle cx="354.217" cy="290.263" r="2.5" fill="green" fill-opacity="1" />
<circle cx="361.446" cy="136.991" r="2.5" fill="green" fill-opacity="1" />
<circle cx="368.675" cy="88.117" r="2.5" fill="green" fill-opacity="1" />
<circle cx="375.904" cy="188.125" r="2.5" fill="green" fill-opacity="1" />
<circle cx="383.133" cy="43.316" r="2.5" fill="green" fill-opacity="1" />
<circle cx="390.361" cy="328.899" r="2.5" fill="green" fill-opacity="1" />
<circle cx="397.59" cy="236.06" r="2.5" fill="green" fill-opacity="1" />
<circle cx="404.819" cy="56.881" r="2.5" fill="green" fill-opacity="1" />
<circle cx="412.048" cy="281.32" r="2.5" fill="green" fill-opacity="1" />
<circle cx="419.277" cy="119.038" r="2.5" fill="green" fill-opacity="1" />
<circle cx="426.506" cy="118.359" r="2.5" fill="green" fill-opacity="1" />
<circle cx="433.735" cy="119.651" r="2.5" fill="green" fill-opacity="1" />
<circle cx="440.964" cy="117.202" r="2.5" fill="green" fill-opacity="1" />
<circle cx="448.193" cy="121.876" r="2.5" fill="green" fill-opacity="1" />
<circle cx="455.422" cy="113.076" r="2.5" fill="green" fill-opacity="1" />
<circle cx="462.651" cy="130.07" r="2.5" fill="green" fill-opacity="1" />
<circle cx="469.88" cy="98.882" r="2.5" fill="green" fill-opacity="1" />
<circle cx="477.108" cy="161.298" r="2.5" fill="green" fill-opacity="1" />
<circle cx="484.337" cy="59.191" r="2.5" fill="green" fill-opacity="1" />
<circle cx="491.566" cy="273.644" r="2.5" fill="green" fill-opacity="1" />
<circle cx="498.795" cy="105.12" r="2.5" fill="green" fill-opacity="1" />
<circle cx="506.024" cy="146.992" r="2.5" fill="green" fill-opacity="1" />
<circle cx="513.253" cy="74.541" r="2.5" fill="green" fill-opacity="1" />
<circle cx="520.482" cy="225.823" r="2.5" fill="green" fill-opacity="1" />
<circle cx="527.711" cy="49.469" r="2.5" fill="green" fill-opacity="1" />
<circle cx="534.94" cy="306.785" r="2.5" fill="green" fill-opacity="1" />
<circle cx="542.169" cy="175.082" r="2.5" fill="green" fill-opacity="1" />
<circle cx="549.398" cy="48.931" r="2.5" fill="green" fill-opacity="1" />
<circle cx="556.627" cy="308.681" r="2.5" fill="green" fill-opacity="1" />
<circle cx="563.855" cy="179.862" r="2.5" fill="green" fill-opacity="1" />
<circle cx="571.084" cy="46.411" r="2.5" fill="green" fill-opacity="1" />
<circle cx="578.313" cy="317.663" r="2.5" fill="green" fill-opacity="1" />
<circle cx="585.542" cy="203.649" r="2.5" fill="green" fill-opacity="1" />
<circle cx="592.771" cy="41.822" r="2.5" fill="green" fill-opacity="1" />
<circle cx="14.458" cy="250.0" r="2.5" fill="red" fill-opacity="1" />
<circle cx="21.687" cy="70.917" r="2.5" fill="red" fill-opacity="1" />
<circle cx="28.916" cy="236.618" r="2.5" fill="red" fill-opacity="1" />
<circle cx="36.145" cy="57.355" r="2.5" fill="red" fill-opacity="1" />
<circle cx="43.373" cy="279.734" r="2.5" fill="red" fill-opacity="1" />
<circle cx="50.602" cy="116.049" r="2.5" fill="red" fill-opacity="1" />
<circle cx="57.831" cy="124.125" r="2.5" fill="red" fill-opacity="1" />
<circle cx="65.06" cy="109.023" r="2.5" fill="red" fill-opacity="1" />
<circle cx="72.289" cy="138.505" r="2.5" fill="red" fill-opacity="1" />
<circle cx="79.518" cy="85.911" r="2.5" fill="red" fill-opacity="1" />
<circle cx="86.747" cy="193.957" r="2.5" fill="red" fill-opacity="1" />
<circle cx="93.976" cy="42.094" r="2.5" fill="red" fill-opacity="1" />
<circle cx="101.205" cy="333.398" r="2.5" fill="red" fill-opacity="1" />
<circle cx="108.434" cy="249.869" r="2.5" fill="red" fill-opacity="1" />
<circle cx="115.663" cy="70.764" r="2.5" fill="red" fill-opacity="1" />
<circle cx="122.892" cy="237.08" r="2.5" fill="red" fill-opacity="1" />
<circle cx="130.12" cy="57.753" r="2.5" fill="red" fill-opacity="1" />
<circle cx="137.349" cy="278.405" r="2.5" fill="red" fill-opacity="1" />
<circle cx="144.578" cy="113.591" r="2.5" fill="red" fill-opacity="1" />
<circle cx="151.807" cy="129.025" r="2.5" fill="red" fill-opacity="1" />
<circle cx="159.036" cy="100.606" r="2.5" fill="red" fill-opacity="1" />
<circle cx="166.265" cy="157.254" r="2.5" fill="red" fill-opacity="1" />
<circle cx="173.494" cy="63.045" r="2.5" fill="red" fill-opacity="1" />
<circle cx="180.723" cy="261.119" r="2.5" fill="red" fill-opacity="1" />
<circle cx="187.952" cy="85.372" r="2.5" fill="red" fill-opacity="1" />
<circle cx="195.181" cy="195.399" r="2.5" fill="red" fill-opacity="1" />
<circle cx="202.41" cy="41.914" r="2.5" fill="red" fill-opacity="1" />
<circle cx="209.639" cy="334.062" r="2.5" fill="red" fill-opacity="1" />
<circle cx="216.867" cy="251.947" r="2.5" fill="red" fill-opacity="1" />
<circle cx="224.096" cy="73.239" r="2.5" fill="red" fill-opacity="1" />
<circle cx="231.325" cy="229.666" r="2.5" fill="red" fill-opacity="1" />
<circle cx="238.554" cy="51.964" r="2.5" fill="red" fill-opacity="1" />
<circle cx="245.783" cy="298.069" r="2.5" fill="red" fill-opacity="1" />
<circle cx="253.012" cy="154.191" r="2.5" fill="red" fill-opacity="1" />
<circle cx="260.241" cy="66.218" r="2.5" fill="red" fill-opacity="1" />
<circle cx="267.47" cy="251.068" r="2.5" fill="red" fill-opacity="1" />
<circle cx="274.699" cy="72.179" r="2.5" fill="red" fill-opacity="1" />
<circle cx="281.928" cy="232.823" r="2.5" fill="red" fill-opacity="1" />
<circle cx="289.157" cy="54.272" r="2.5" fill="red" fill-opacity="1" />
<circle cx="296.386" cy="290.137" r="2.5" fill="red" fill-opacity="1" />
<circle cx="303.614" cy="136.725" r="2.5" fill="red" fill-opacity="1" />
<circle cx="310.843" cy="88.511" r="2.5" fill="red" fill-opacity="1" />
<circle cx="318.072" cy="187.096" r="2.5" fill="red" fill-opacity="1" />
<circle cx="325.301" cy="43.615" r="2.5" fill="red" fill-opacity="1" />
<circle cx="332.53" cy="327.805" r="2.5" fill="red" fill-opacity="1" />
<circle cx="339.759" cy="232.776" r="2.5" fill="red" fill-opacity="1" />
<circle cx="346.988" cy="54.236" r="2.5" fill="red" fill-opacity="1" />
<circle cx="354.217" cy="290.26" r="2.5" fill="red" fill-opacity="1" />
<circle cx="361.446" cy="136.984" r="2.5" fill="red" fill-opacity="1" />
<circle cx="368.675" cy="88.127" r="2.5" fill="red" fill-opacity="1" />
<circle cx="375.904" cy="188.098" r="2.5" fill="red" fill-opacity="1" />
<circle cx="383.133" cy="43.324" r="2.5" fill="red" fill-opacity="1" />
<circle cx="390.361" cy="328.871" r="2.5" fill="red" fill-opacity="1" />
<circle cx="397.59" cy="235.976" r="2.5" fill="red" fill-opacity="1" />
<circle cx="404.819" cy="56.809" r="2.5" fill="red" fill-opacity="1" />
<circle cx="412.048" cy="281.558" r="2.5" fill="red" fill-opacity="1" />
<circle cx="419.277" cy="119.491" r="2.5" fill="red" fill-opacity="1" />
<circle cx="426.506" cy="117.502" r="2.5" fill="red" fill-opacity="1" />
<circle cx="433.735" cy="121.296" r="2.5" fill="red" fill-opacity="1" />
<circle cx="440.964" cy="114.14" r="2.5" fill="red" fill-opacity="1" />
<circle cx="448.193" cy="127.919" r="2.5" fill="red" fill-opacity="1" />
<circle cx="455.422" cy="102.456" r="2.5" fill="red" fill-opacity="1" />
<circle cx="462.651" cy="152.991" r="2.5" fill="red" fill-opacity="1" />
<circle cx="469.88" cy="67.522" r="2.5" fill="red" fill-opacity="1" />
<circle cx="477.108" cy="247.006" r="2.5" fill="red" fill-opacity="1" />
<circle cx="484.337" cy="67.519" r="2.5" fill="red" fill-opacity="1" />
<circle cx="491.566" cy="247.017" r="2.5" fill="red" fill-opacity="1" />
<circle cx="498.795" cy="67.53" r="2.5" fill="red" fill-opacity="1" />
<circle cx="506.024" cy="246.981" r="2.5" fill="red" fill-opacity="1" />
<circle cx="513.253" cy="67.491" r="2.5" fill="red" fill-opacity="1" />
<circle cx="520.482" cy="247.102" r="2.5" fill="red" fill-opacity="1" />
<circle cx="527.711" cy="67.624" r="2.5" fill="red" fill-opacity="1" />
<circle cx="534.94" cy="246.69" r="2.5" fill="red" fill-opacity="1" />
<circle cx="542.169" cy="67.172" r="2.5" fill="red" fill-opacity="1" />
<circle cx="549.398" cy="248.093" r="2.5" fill="red" fill-opacity="1" />
<circle cx="556.627" cy="68.729" r="2.5" fill="red" fill-opacity="1" />
<circle cx="563.855" cy="243.283" r="2.5" fill="red" fill-opacity="1" />
<circle cx="571.084" cy="63.586" r="2.5" fill="red" fill-opacity="1" />
<circle cx="578.313" cy="259.389" r="2.5" fill="red" fill-opacity="1" />
<circle cx="585.542" cy="82.933" r="2.5" fill="red" fill-opacity="1" />
<circle cx="592.771" cy="202.011" r="2.5" fill="red" fill-opacity="1" />
</svg>