<svg width="800" height="600" viewBox="0 0 800 600" xmlns="http://www.w3.org/2000/svg">
<rect width="100%" height="100%" style="fill:white;stroke:;stroke-width:1" />
<line x1="80.0" y1="495.0" x2="720.0" y2="495.0" stroke-linecap="round" style="stroke:red;stroke-width:70" />
<line x1="80.0" y1="429.0" x2="720.0" y2="429.0" stroke-linecap="round" style="stroke:orange;stroke-width:70" />
<line x1="80.0" y1="363.0" x2="720.0" y2="363.0" stroke-linecap="round" style="stroke:yellow;stroke-width:70" />
<line x1="80.0" y1="297.0" x2="720.0" y2="297.0" stroke-linecap="round" style="stroke:green;stroke-width:70" />
<line x1="80.0" y1="231.0" x2="720.0" y2="231.0" stroke-linecap="round" style="stroke:darkorchid;stroke-width:70" />
<line x1="80.0" y1="165.0" x2="720.0" y2="165.0" stroke-linecap="round" style="stroke:royalblue;stroke-width:70" />
<line x1="80.0" y1="99.0" x2="720.0" y2="99.0" stroke-linecap="round" style="stroke:dodgerblue;stroke-width:70" />
<path d="M 400.0 470.0 A 170 170 0 0 0 400.0 130.0" stroke-linecap="round" 
            fill="transparent" fill-opacity="0" style="stroke:white;stroke-width:25"/>
<path d="M 400.0 130.0 A 170 170 0 0 0 400.0 470.0" stroke-linecap="round" 
            fill="transparent" fill-opacity="0" style="stroke:white;stroke-width:25"/>
<line x1="400.0" y1="470.0" x2="400.0" y2="130.0" stroke-linecap="round" style="stroke:white;stroke-width:25" />
<line x1="400.0" y1="300.0" x2="279.792" y2="420.208" stroke-linecap="round" style="stroke:white;stroke-width:25" />
<line x1="400.0" y1="300.0" x2="520.208" y2="420.208" stroke-linecap="round" style="stroke:white;stroke-width:25" />
</svg>