<svg width="450" height="450" viewBox="0 0 450 450" xmlns="http://www.w3.org/2000/svg">
<rect width="100%" height="100%" style="fill:green;stroke:gray;stroke-width:1" />
<g id="turtle2" visibility="visible" transform="rotate(270.0,225.0,225.0) translate(225.0, 225.0)">
<polygon points="0,16 2,14 1,10 4,7 7,9 9,8 6,5 7,1 5,-3 8,-6 6,-8 4,-5 0,-7 -4,-5 -6,-8 -8,-6 -5,-3 -7,1 -6,5 -9,8 -7,9 -4,7 -1,10 -2,14" transform="skewX(0) scale(1,1)" style="stroke:black;stroke-width:1;fill:orange" />
</g>
<g id="turtle2" visibility="visible" transform="rotate(132.492,221.313,221.623) translate(221.313, 221.623)">
<polygon points="0,16 2,14 1,10 4,7 7,9 9,8 6,5 7,1 5,-3 8,-6 6,-8 4,-5 0,-7 -4,-5 -6,-8 -8,-6 -5,-3 -7,1 -6,5 -9,8 -7,9 -4,7 -1,10 -2,14" transform="skewX(0) scale(1,1)" style="stroke:black;stroke-width:1;fill:orange" />
</g>
<g id="turtle2" visibility="visible" transform="rotate(-5.0160000000000196,225.618,232.044) translate(225.618, 232.044)">
<polygon points="0,16 2,14 1,10 4,7 7,9 9,8 6,5 7,1 5,-3 8,-6 6,-8 4,-5 0,-7 -4,-5 -6,-8 -8,-6 -5,-3 -7,1 -6,5 -9,8 -7,9 -4,7 -1,10 -2,14" transform="skewX(0) scale(1,1)" style="stroke:black;stroke-width:1;fill:orange" />
</g>
<g id="turtle2" visibility="visible" transform="rotate(-142.524,230.269,218.127) translate(230.269, 218.127)">
<polygon points="0,16 2,14 1,10 4,7 7,9 9,8 6,5 7,1 5,-3 8,-6 6,-8 4,-5 0,-7 -4,-5 -6,-8 -8,-6 -5,-3 -7,1 -6,5 -9,8 -7,9 -4,7 -1,10 -2,14" transform="skewX(0) scale(1,1)" style="stroke:black;stroke-width:1;fill:orange" />
</g>
<g id="turtle2" visibility="visible" transform="rotate(-280.03200000000004,215.153,226.742) translate(215.153, 226.742)">
<polygon points="0,16 2,14 1,10 4,7 7,9 9,8 6,5 7,1 5,-3 8,-6 6,-8 4,-5 0,-7 -4,-5 -6,-8 -8,-6 -5,-3 -7,1 -6,5 -9,8 -7,9 -4,7 -1,10 -2,14" transform="skewX(0) scale(1,1)" style="stroke:black;stroke-width:1;fill:orange" />
</g>
<g id="turtle2" visibility="visible" transform="rotate(-417.5400000000001,234.434,231.001) translate(234.434, 231.001)">
<polygon points="0,16 2,14 1,10 4,7 7,9 9,8 6,5 7,1 5,-3 8,-6 6,-8 4,-5 0,-7 -4,-5 -6,-8 -8,-6 -5,-3 -7,1 -6,5 -9,8 -7,9 -4,7 -1,10 -2,14" transform="skewX(0) scale(1,1)" style="stroke:black;stroke-width:1;fill:orange" />
</g>
<g id="turtle2" visibility="visible" transform="rotate(-555.048,221.82,213.173) translate(221.82, 213.173)">
<polygon points="0,16 2,14 1,10 4,7 7,9 9,8 6,5 7,1 5,-3 8,-6 6,-8 4,-5 0,-7 -4,-5 -6,-8 -8,-6 -5,-3 -7,1 -6,5 -9,8 -7,9 -4,7 -1,10 -2,14" transform="skewX(0) scale(1,1)" style="stroke:black;stroke-width:1;fill:orange" />
</g>
<g id="turtle2" visibility="visible" transform="rotate(-692.556,218.903,236.74) translate(218.903, 236.74)">
<polygon points="0,16 2,14 1,10 4,7 7,9 9,8 6,5 7,1 5,-3 8,-6 6,-8 4,-5 0,-7 -4,-5 -6,-8 -8,-6 -5,-3 -7,1 -6,5 -9,8 -7,9 -4,7 -1,10 -2,14" transform="skewX(0) scale(1,1)" style="stroke:black;stroke-width:1;fill:orange" />
</g>
<g id="turtle2" visibility="visible" transform="rotate(-830.0640000000001,238.284,220.148) translate(238.284, 220.148)">
<polygon points="0,16 2,14 1,10 4,7 7,9 9,8 6,5 7,1 5,-3 8,-6 6,-8 4,-5 0,-7 -4,-5 -6,-8 -8,-6 -5,-3 -7,1 -6,5 -9,8 -7,9 -4,7 -1,10 -2,14" transform="skewX(0) scale(1,1)" style="stroke:black;stroke-width:1;fill:orange" />
</g>
<g id="turtle2" visibility="visible" transform="rotate(-967.5720000000001,211.135,219.277) translate(211.135, 219.277)">
<polygon points="0,16 2,14 1,10 4,7 7,9 9,8 6,5 7,1 5,-3 8,-6 6,-8 4,-5 0,-7 -4,-5 -6,-8 -8,-6 -5,-3 -7,1 -6,5 -9,8 -7,9 -4,7 -1,10 -2,14" transform="skewX(0) scale(1,1)" style="stroke:black;stroke-width:1;fill:orange" />
</g>
<g id="turtle2" visibility="visible" transform="rotate(-1105.0800000000002,231.702,239.321) translate(231.702, 239.321)">
<polygon points="0,16 2,14 1,10 4,7 7,9 9,8 6,5 7,1 5,-3 8,-6 6,-8 4,-5 0,-7 -4,-5 -6,-8 -8,-6 -5,-3 -7,1 -6,5 -9,8 -7,9 -4,7 -1,10 -2,14" transform="skewX(0) scale(1,1)" style="stroke:black;stroke-width:1;fill:orange" />
</g>
<g id="turtle2" visibility="visible" transform="rotate(-1242.5880000000002,229.962,209.177) translate(229.962, 209.177)">
<polygon points="0,16 2,14 1,10 4,7 7,9 9,8 6,5 7,1 5,-3 8,-6 6,-8 4,-5 0,-7 -4,-5 -6,-8 -8,-6 -5,-3 -7,1 -6,5 -9,8 -7,9 -4,7 -1,10 -2,14" transform="skewX(0) scale(1,1)" style="stroke:black;stroke-width:1;fill:orange" />
</g>
<g id="turtle2" visibility="visible" transform="rotate(-1380.096,210.015,233.685) translate(210.015, 233.685)">
<polygon points="0,16 2,14 1,10 4,7 7,9 9,8 6,5 7,1 5,-3 8,-6 6,-8 4,-5 0,-7 -4,-5 -6,-8 -8,-6 -5,-3 -7,1 -6,5 -9,8 -7,9 -4,7 -1,10 -2,14" transform="skewX(0) scale(1,1)" style="stroke:black;stroke-width:1;fill:orange" />
</g>
<g id="turtle2" visibility="visible" transform="rotate(-1517.604,242.607,228.87) translate(242.607, 228.87)">
<polygon points="0,16 2,14 1,10 4,7 7,9 9,8 6,5 7,1 5,-3 8,-6 6,-8 4,-5 0,-7 -4,-5 -6,-8 -8,-6 -5,-3 -7,1 -6,5 -9,8 -7,9 -4,7 -1,10 -2,14" transform="skewX(0) scale(1,1)" style="stroke:black;stroke-width:1;fill:orange" />
</g>
<g id="turtle2" visibility="visible" transform="rotate(-1655.112,214.239,209.696) translate(214.239, 209.696)">
<polygon points="0,16 2,14 1,10 4,7 7,9 9,8 6,5 7,1 5,-3 8,-6 6,-8 4,-5 0,-7 -4,-5 -6,-8 -8,-6 -5,-3 -7,1 -6,5 -9,8 -7,9 -4,7 -1,10 -2,14" transform="skewX(0) scale(1,1)" style="stroke:black;stroke-width:1;fill:orange" />
</g>
<g id="turtle2" visibility="visible" transform="rotate(-1792.6200000000003,222.513,244.204) translate(222.513, 244.204)">
<polygon points="0,16 2,14 1,10 4,7 7,9 9,8 6,5 7,1 5,-3 8,-6 6,-8 4,-5 0,-7 -4,-5 -6,-8 -8,-6 -5,-3 -7,1 -6,5 -9,8 -7,9 -4,7 -1,10 -2,14" transform="skewX(0) scale(1,1)" style="stroke:black;stroke-width:1;fill:orange" />
</g>
<g id="turtle2" visibility="visible" transform="rotate(-1930.1280000000002,240.292,212.11) translate(240.292, 212.11)">
<polygon points="0,16 2,14 1,10 4,7 7,9 9,8 6,5 7,1 5,-3 8,-6 6,-8 4,-5 0,-7 -4,-5 -6,-8 -8,-6 -5,-3 -7,1 -6,5 -9,8 -7,9 -4,7 -1,10 -2,14" transform="skewX(0) scale(1,1)" style="stroke:black;stroke-width:1;fill:orange" />
</g>
<g id="turtle2" visibility="visible" transform="rotate(-2067.636,204.402,224.15) translate(204.402, 224.15)">
<polygon points="0,16 2,14 1,10 4,7 7,9 9,8 6,5 7,1 5,-3 8,-6 6,-8 4,-5 0,-7 -4,-5 -6,-8 -8,-6 -5,-3 -7,1 -6,5 -9,8 -7,9 -4,7 -1,10 -2,14" transform="skewX(0) scale(1,1)" style="stroke:black;stroke-width:1;fill:orange" />
</g>
<g id="turtle2" visibility="visible" transform="rotate(-2205.1440000000002,240.038,239.962) translate(240.038, 239.962)">
<polygon points="0,16 2,14 1,10 4,7 7,9 9,8 6,5 7,1 5,-3 8,-6 6,-8 4,-5 0,-7 -4,-5 -6,-8 -8,-6 -5,-3 -7,1 -6,5 -9,8 -7,9 -4,7 -1,10 -2,14" transform="skewX(0) scale(1,1)" style="stroke:black;stroke-width:1;fill:orange" />
</g>
<g id="turtle2" visibility="visible" transform="rotate(-2342.652,223.992,203.229) translate(223.992, 203.229)">
<polygon points="0,16 2,14 1,10 4,7 7,9 9,8 6,5 7,1 5,-3 8,-6 6,-8 4,-5 0,-7 -4,-5 -6,-8 -8,-6 -5,-3 -7,1 -6,5 -9,8 -7,9 -4,7 -1,10 -2,14" transform="skewX(0) scale(1,1)" style="stroke:black;stroke-width:1;fill:orange" />
</g>
<g id="turtle2" visibility="visible" transform="rotate(-2480.1600000000003,210.675,242.169) translate(210.675, 242.169)">
<polygon points="0,16 2,14 1,10 4,7 7,9 9,8 6,5 7,1 5,-3 8,-6 6,-8 4,-5 0,-7 -4,-5 -6,-8 -8,-6 -5,-3 -7,1 -6,5 -9,8 -7,9 -4,7 -1,10 -2,14" transform="skewX(0) scale(1,1)" style="stroke:black;stroke-width:1;fill:orange" />
</g>
<g id="turtle2" visibility="visible" transform="rotate(-2617.668,247.708,221.943) translate(247.708, 221.943)">
<polygon points="0,16 2,14 1,10 4,7 7,9 9,8 6,5 7,1 5,-3 8,-6 6,-8 4,-5 0,-7 -4,-5 -6,-8 -8,-6 -5,-3 -7,1 -6,5 -9,8 -7,9 -4,7 -1,10 -2,14" transform="skewX(0) scale(1,1)" style="stroke:black;stroke-width:1;fill:orange" />
</g>
<g id="turtle2" visibility="visible" transform="rotate(-2755.1760000000004,205.748,211.608) translate(205.748, 211.608)">
<polygon points="0,16 2,14 1,10 4,7 7,9 9,8 6,5 7,1 5,-3 8,-6 6,-8 4,-5 0,-7 -4,-5 -6,-8 -8,-6 -5,-3 -7,1 -6,5 -9,8 -7,9 -4,7 -1,10 -2,14" transform="skewX(0) scale(1,1)" style="stroke:black;stroke-width:1;fill:orange" />
</g>
<g id="turtle2" visibility="visible" transform="rotate(-2892.684,230.265,248.394) translate(230.265, 248.394)">
<polygon points="0,16 2,14 1,10 4,7 7,9 9,8 6,5 7,1 5,-3 8,-6 6,-8 4,-5 0,-7 -4,-5 -6,-8 -8,-6 -5,-3 -7,1 -6,5 -9,8 -7,9 -4,7 -1,10 -2,14" transform="skewX(0) scale(1,1)" style="stroke:black;stroke-width:1;fill:orange" />
</g>
<g id="turtle2" visibility="visible" transform="rotate(-3030.192,237.176,203.746) translate(237.176, 203.746)">
<polygon points="0,16 2,14 1,10 4,7 7,9 9,8 6,5 7,1 5,-3 8,-6 6,-8 4,-5 0,-7 -4,-5 -6,-8 -8,-6 -5,-3 -7,1 -6,5 -9,8 -7,9 -4,7 -1,10 -2,14" transform="skewX(0) scale(1,1)" style="stroke:black;stroke-width:1;fill:orange" />
</g>
<g id="turtle2" visibility="visible" transform="rotate(-3167.7000000000003,201.183,232.601) translate(201.183, 232.601)">
<polygon points="0,16 2,14 1,10 4,7 7,9 9,8 6,5 7,1 5,-3 8,-6 6,-8 4,-5 0,-7 -4,-5 -6,-8 -8,-6 -5,-3 -7,1 -6,5 -9,8 -7,9 -4,7 -1,10 -2,14" transform="skewX(0) scale(1,1)" style="stroke:black;stroke-width:1;fill:orange" />
</g>
<g id="turtle2" visibility="visible" transform="rotate(-3305.208,248.145,235.691) translate(248.145, 235.691)">
<polygon points="0,16 2,14 1,10 4,7 7,9 9,8 6,5 7,1 5,-3 8,-6 6,-8 4,-5 0,-7 -4,-5 -6,-8 -8,-6 -5,-3 -7,1 -6,5 -9,8 -7,9 -4,7 -1,10 -2,14" transform="skewX(0) scale(1,1)" style="stroke:black;stroke-width:1;fill:orange" />
</g>
<g id="turtle2" visibility="visible" transform="rotate(-3442.7160000000003,214.967,201.035) translate(214.967, 201.035)">
<polygon points="0,16 2,14 1,10 4,7 7,9 9,8 6,5 7,1 5,-3 8,-6 6,-8 4,-5 0,-7 -4,-5 -6,-8 -8,-6 -5,-3 -7,1 -6,5 -9,8 -7,9 -4,7 -1,10 -2,14" transform="skewX(0) scale(1,1)" style="stroke:black;stroke-width:1;fill:orange" />
</g>
<g id="turtle2" visibility="visible" transform="rotate(-3580.224,216.048,249.897) translate(216.048, 249.897)">
<polygon points="0,16 2,14 1,10 4,7 7,9 9,8 6,5 7,1 5,-3 8,-6 6,-8 4,-5 0,-7 -4,-5 -6,-8 -8,-6 -5,-3 -7,1 -6,5 -9,8 -7,9 -4,7 -1,10 -2,14" transform="skewX(0) scale(1,1)" style="stroke:black;stroke-width:1;fill:orange" />
</g>
<g id="turtle2" visibility="visible" transform="rotate(-3717.7320000000004,248.833,212.47) translate(248.833, 212.47)">
<polygon points="0,16 2,14 1,10 4,7 7,9 9,8 6,5 7,1 5,-3 8,-6 6,-8 4,-5 0,-7 -4,-5 -6,-8 -8,-6 -5,-3 -7,1 -6,5 -9,8 -7,9 -4,7 -1,10 -2,14" transform="skewX(0) scale(1,1)" style="stroke:black;stroke-width:1;fill:orange" />
</g>
<g id="turtle2" visibility="visible" transform="rotate(-3855.2400000000007,198.518,218.023) translate(198.518, 218.023)">
<polygon points="0,16 2,14 1,10 4,7 7,9 9,8 6,5 7,1 5,-3 8,-6 6,-8 4,-5 0,-7 -4,-5 -6,-8 -8,-6 -5,-3 -7,1 -6,5 -9,8 -7,9 -4,7 -1,10 -2,14" transform="skewX(0) scale(1,1)" style="stroke:black;stroke-width:1;fill:orange" />
</g>
<g id="turtle2" visibility="visible" transform="rotate(-3992.7480000000005,240.059,248.414) translate(240.059, 248.414)">
<polygon points="0,16 2,14 1,10 4,7 7,9 9,8 6,5 7,1 5,-3 8,-6 6,-8 4,-5 0,-7 -4,-5 -6,-8 -8,-6 -5,-3 -7,1 -6,5 -9,8 -7,9 -4,7 -1,10 -2,14" transform="skewX(0) scale(1,1)" style="stroke:black;stroke-width:1;fill:orange" />
</g>
<g id="turtle2" visibility="visible" transform="rotate(-4130.256,229.787,197.124) translate(229.787, 197.124)">
<polygon points="0,16 2,14 1,10 4,7 7,9 9,8 6,5 7,1 5,-3 8,-6 6,-8 4,-5 0,-7 -4,-5 -6,-8 -8,-6 -5,-3 -7,1 -6,5 -9,8 -7,9 -4,7 -1,10 -2,14" transform="skewX(0) scale(1,1)" style="stroke:black;stroke-width:1;fill:orange" />
</g>
<g id="turtle2" visibility="visible" transform="rotate(-4267.764,202.293,242.59) translate(202.293, 242.59)">
<polygon points="0,16 2,14 1,10 4,7 7,9 9,8 6,5 7,1 5,-3 8,-6 6,-8 4,-5 0,-7 -4,-5 -6,-8 -8,-6 -5,-3 -7,1 -6,5 -9,8 -7,9 -4,7 -1,10 -2,14" transform="skewX(0) scale(1,1)" style="stroke:black;stroke-width:1;fill:orange" />
</g>
<g id="turtle2" visibility="visible" transform="rotate(-4405.272,254.056,227.403) translate(254.056, 227.403)">
<polygon points="0,16 2,14 1,10 4,7 7,9 9,8 6,5 7,1 5,-3 8,-6 6,-8 4,-5 0,-7 -4,-5 -6,-8 -8,-6 -5,-3 -7,1 -6,5 -9,8 -7,9 -4,7 -1,10 -2,14" transform="skewX(0) scale(1,1)" style="stroke:black;stroke-width:1;fill:orange" />
</g>
<g id="turtle2" visibility="visible" transform="rotate(-4542.780000000001,204.909,203.289) translate(204.909, 203.289)">
<polygon points="0,16 2,14 1,10 4,7 7,9 9,8 6,5 7,1 5,-3 8,-6 6,-8 4,-5 0,-7 -4,-5 -6,-8 -8,-6 -5,-3 -7,1 -6,5 -9,8 -7,9 -4,7 -1,10 -2,14" transform="skewX(0) scale(1,1)" style="stroke:black;stroke-width:1;fill:orange" />
</g>
<g id="turtle2" visibility="visible" transform="rotate(-4680.2880000000005,225.151,255.0) translate(225.151, 255.0)">
<polygon points="0,16 2,14 1,10 4,7 7,9 9,8 6,5 7,1 5,-3 8,-6 6,-8 4,-5 0,-7 -4,-5 -6,-8 -8,-6 -5,-3 -7,1 -6,5 -9,8 -7,9 -4,7 -1,10 -2,14" transform="skewX(0) scale(1,1)" style="stroke:black;stroke-width:1;fill:orange" />
</g>
<g id="turtle2" visibility="visible" transform="rotate(-4817.796,245.431,202.471) translate(245.431, 202.471)">
<polygon points="0,16 2,14 1,10 4,7 7,9 9,8 6,5 7,1 5,-3 8,-6 6,-8 4,-5 0,-7 -4,-5 -6,-8 -8,-6 -5,-3 -7,1 -6,5 -9,8 -7,9 -4,7 -1,10 -2,14" transform="skewX(0) scale(1,1)" style="stroke:black;stroke-width:1;fill:orange" />
</g>
<g id="turtle2" visibility="visible" transform="rotate(-4955.304,194.31,227.849) translate(194.31, 227.849)">
<polygon points="0,16 2,14 1,10 4,7 7,9 9,8 6,5 7,1 5,-3 8,-6 6,-8 4,-5 0,-7 -4,-5 -6,-8 -8,-6 -5,-3 -7,1 -6,5 -9,8 -7,9 -4,7 -1,10 -2,14" transform="skewX(0) scale(1,1)" style="stroke:black;stroke-width:1;fill:orange" />
</g>
<g id="turtle2" visibility="visible" transform="rotate(-5092.812000000001,249.876,243.873) translate(249.876, 243.873)">
<polygon points="0,16 2,14 1,10 4,7 7,9 9,8 6,5 7,1 5,-3 8,-6 6,-8 4,-5 0,-7 -4,-5 -6,-8 -8,-6 -5,-3 -7,1 -6,5 -9,8 -7,9 -4,7 -1,10 -2,14" transform="skewX(0) scale(1,1)" style="stroke:black;stroke-width:1;fill:orange" />
</g>
<g id="turtle2" visibility="visible" transform="rotate(-5230.320000000001,219.335,193.889) translate(219.335, 193.889)">
<polygon points="0,16 2,14 1,10 4,7 7,9 9,8 6,5 7,1 5,-3 8,-6 6,-8 4,-5 0,-7 -4,-5 -6,-8 -8,-6 -5,-3 -7,1 -6,5 -9,8 -7,9 -4,7 -1,10 -2,14" transform="skewX(0) scale(1,1)" style="stroke:black;stroke-width:1;fill:orange" />
</g>
<g id="turtle2" visibility="visible" transform="rotate(-5367.828,207.953,252.1) translate(207.953, 252.1)">
<polygon points="0,16 2,14 1,10 4,7 7,9 9,8 6,5 7,1 5,-3 8,-6 6,-8 4,-5 0,-7 -4,-5 -6,-8 -8,-6 -5,-3 -7,1 -6,5 -9,8 -7,9 -4,7 -1,10 -2,14" transform="skewX(0) scale(1,1)" style="stroke:black;stroke-width:1;fill:orange" />
</g>
<g id="turtle2" visibility="visible" transform="rotate(-5505.336,256.25,216.43) translate(256.25, 216.43)">
<polygon points="0,16 2,14 1,10 4,7 7,9 9,8 6,5 7,1 5,-3 8,-6 6,-8 4,-5 0,-7 -4,-5 -6,-8 -8,-6 -5,-3 -7,1 -6,5 -9,8 -7,9 -4,7 -1,10 -2,14" transform="skewX(0) scale(1,1)" style="stroke:black;stroke-width:1;fill:orange" />
</g>
<g id="turtle2" visibility="visible" transform="rotate(-5642.844,195.827,210.035) translate(195.827, 210.035)">
<polygon points="0,16 2,14 1,10 4,7 7,9 9,8 6,5 7,1 5,-3 8,-6 6,-8 4,-5 0,-7 -4,-5 -6,-8 -8,-6 -5,-3 -7,1 -6,5 -9,8 -7,9 -4,7 -1,10 -2,14" transform="skewX(0) scale(1,1)" style="stroke:black;stroke-width:1;fill:orange" />
</g>
<g id="turtle2" visibility="visible" transform="rotate(-5780.352000000001,236.535,256.096) translate(236.535, 256.096)">
<polygon points="0,16 2,14 1,10 4,7 7,9 9,8 6,5 7,1 5,-3 8,-6 6,-8 4,-5 0,-7 -4,-5 -6,-8 -8,-6 -5,-3 -7,1 -6,5 -9,8 -7,9 -4,7 -1,10 -2,14" transform="skewX(0) scale(1,1)" style="stroke:black;stroke-width:1;fill:orange" />
</g>
<g id="turtle2" visibility="visible" transform="rotate(-5917.860000000001,237.641,193.932) translate(237.641, 193.932)">
<polygon points="0,16 2,14 1,10 4,7 7,9 9,8 6,5 7,1 5,-3 8,-6 6,-8 4,-5 0,-7 -4,-5 -6,-8 -8,-6 -5,-3 -7,1 -6,5 -9,8 -7,9 -4,7 -1,10 -2,14" transform="skewX(0) scale(1,1)" style="stroke:black;stroke-width:1;fill:orange" />
</g>
<g id="turtle2" visibility="visible" transform="rotate(-6055.368,194.358,239.529) translate(194.358, 239.529)">
<polygon points="0,16 2,14 1,10 4,7 7,9 9,8 6,5 7,1 5,-3 8,-6 6,-8 4,-5 0,-7 -4,-5 -6,-8 -8,-6 -5,-3 -7,1 -6,5 -9,8 -7,9 -4,7 -1,10 -2,14" transform="skewX(0) scale(1,1)" style="stroke:black;stroke-width:1;fill:orange" />
</g>
<g id="turtle2" visibility="visible" transform="rotate(-6192.876,257.759,235.093) translate(257.759, 235.093)">
<polygon points="0,16 2,14 1,10 4,7 7,9 9,8 6,5 7,1 5,-3 8,-6 6,-8 4,-5 0,-7 -4,-5 -6,-8 -8,-6 -5,-3 -7,1 -6,5 -9,8 -7,9 -4,7 -1,10 -2,14" transform="skewX(0) scale(1,1)" style="stroke:black;stroke-width:1;fill:orange" />
</g>
<g id="turtle2" visibility="visible" transform="rotate(-6330.384,207.479,195.117) translate(207.479, 195.117)">
<polygon points="0,16 2,14 1,10 4,7 7,9 9,8 6,5 7,1 5,-3 8,-6 6,-8 4,-5 0,-7 -4,-5 -6,-8 -8,-6 -5,-3 -7,1 -6,5 -9,8 -7,9 -4,7 -1,10 -2,14" transform="skewX(0) scale(1,1)" style="stroke:black;stroke-width:1;fill:orange" />
</g>
<g id="turtle2" visibility="visible" transform="rotate(-6467.892000000001,217.659,259.221) translate(217.659, 259.221)">
<polygon points="0,16 2,14 1,10 4,7 7,9 9,8 6,5 7,1 5,-3 8,-6 6,-8 4,-5 0,-7 -4,-5 -6,-8 -8,-6 -5,-3 -7,1 -6,5 -9,8 -7,9 -4,7 -1,10 -2,14" transform="skewX(0) scale(1,1)" style="stroke:black;stroke-width:1;fill:orange" />
</g>
<g id="turtle2" visibility="visible" transform="rotate(-6605.400000000001,253.819,204.519) translate(253.819, 204.519)">
<polygon points="0,16 2,14 1,10 4,7 7,9 9,8 6,5 7,1 5,-3 8,-6 6,-8 4,-5 0,-7 -4,-5 -6,-8 -8,-6 -5,-3 -7,1 -6,5 -9,8 -7,9 -4,7 -1,10 -2,14" transform="skewX(0) scale(1,1)" style="stroke:black;stroke-width:1;fill:orange" />
</g>
<g id="turtle2" visibility="visible" transform="rotate(-6742.908,189.566,220.591) translate(189.566, 220.591)">
<polygon points="0,16 2,14 1,10 4,7 7,9 9,8 6,5 7,1 5,-3 8,-6 6,-8 4,-5 0,-7 -4,-5 -6,-8 -8,-6 -5,-3 -7,1 -6,5 -9,8 -7,9 -4,7 -1,10 -2,14" transform="skewX(0) scale(1,1)" style="stroke:black;stroke-width:1;fill:orange" />
</g>
<g id="turtle2" visibility="visible" transform="rotate(-6880.416,248.376,252.451) translate(248.376, 252.451)">
<polygon points="0,16 2,14 1,10 4,7 7,9 9,8 6,5 7,1 5,-3 8,-6 6,-8 4,-5 0,-7 -4,-5 -6,-8 -8,-6 -5,-3 -7,1 -6,5 -9,8 -7,9 -4,7 -1,10 -2,14" transform="skewX(0) scale(1,1)" style="stroke:black;stroke-width:1;fill:orange" />
</g>
<g id="turtle2" visibility="visible" transform="rotate(-7017.924000000001,226.319,188.623) translate(226.319, 188.623)">
<polygon points="0,16 2,14 1,10 4,7 7,9 9,8 6,5 7,1 5,-3 8,-6 6,-8 4,-5 0,-7 -4,-5 -6,-8 -8,-6 -5,-3 -7,1 -6,5 -9,8 -7,9 -4,7 -1,10 -2,14" transform="skewX(0) scale(1,1)" style="stroke:black;stroke-width:1;fill:orange" />
</g>
<g id="turtle2" visibility="visible" transform="rotate(-7155.432000000001,199.216,251.176) translate(199.216, 251.176)">
<polygon points="0,16 2,14 1,10 4,7 7,9 9,8 6,5 7,1 5,-3 8,-6 6,-8 4,-5 0,-7 -4,-5 -6,-8 -8,-6 -5,-3 -7,1 -6,5 -9,8 -7,9 -4,7 -1,10 -2,14" transform="skewX(0) scale(1,1)" style="stroke:black;stroke-width:1;fill:orange" />
</g>
<g id="turtle2" visibility="visible" transform="rotate(-7292.9400000000005,262.032,223.098) translate(262.032, 223.098)">
<polygon points="0,16 2,14 1,10 4,7 7,9 9,8 6,5 7,1 5,-3 8,-6 6,-8 4,-5 0,-7 -4,-5 -6,-8 -8,-6 -5,-3 -7,1 -6,5 -9,8 -7,9 -4,7 -1,10 -2,14" transform="skewX(0) scale(1,1)" style="stroke:black;stroke-width:1;fill:orange" />
</g>
<g id="turtle2" visibility="visible" transform="rotate(-7430.448,196.15,201.174) translate(196.15, 201.174)">
<polygon points="0,16 2,14 1,10 4,7 7,9 9,8 6,5 7,1 5,-3 8,-6 6,-8 4,-5 0,-7 -4,-5 -6,-8 -8,-6 -5,-3 -7,1 -6,5 -9,8 -7,9 -4,7 -1,10 -2,14" transform="skewX(0) scale(1,1)" style="stroke:black;stroke-width:1;fill:orange" />
</g>
<g id="turtle2" visibility="visible" transform="rotate(-7567.956,230.225,262.386) translate(230.225, 262.386)">
<polygon points="0,16 2,14 1,10 4,7 7,9 9,8 6,5 7,1 5,-3 8,-6 6,-8 4,-5 0,-7 -4,-5 -6,-8 -8,-6 -5,-3 -7,1 -6,5 -9,8 -7,9 -4,7 -1,10 -2,14" transform="skewX(0) scale(1,1)" style="stroke:black;stroke-width:1;fill:orange" />
</g>
<g id="turtle2" visibility="visible" transform="rotate(-7705.464000000001,246.588,193.632) translate(246.588, 193.632)">
<polygon points="0,16 2,14 1,10 4,7 7,9 9,8 6,5 7,1 5,-3 8,-6 6,-8 4,-5 0,-7 -4,-5 -6,-8 -8,-6 -5,-3 -7,1 -6,5 -9,8 -7,9 -4,7 -1,10 -2,14" transform="skewX(0) scale(1,1)" style="stroke:black;stroke-width:1;fill:orange" />
</g>
<g id="turtle2" visibility="visible" transform="rotate(-7842.972000000001,187.574,233.621) translate(187.574, 233.621)">
<polygon points="0,16 2,14 1,10 4,7 7,9 9,8 6,5 7,1 5,-3 8,-6 6,-8 4,-5 0,-7 -4,-5 -6,-8 -8,-6 -5,-3 -7,1 -6,5 -9,8 -7,9 -4,7 -1,10 -2,14" transform="skewX(0) scale(1,1)" style="stroke:black;stroke-width:1;fill:orange" />
</g>
<g id="turtle2" visibility="visible" transform="rotate(-7980.480000000001,258.702,244.083) translate(258.702, 244.083)">
<polygon points="0,16 2,14 1,10 4,7 7,9 9,8 6,5 7,1 5,-3 8,-6 6,-8 4,-5 0,-7 -4,-5 -6,-8 -8,-6 -5,-3 -7,1 -6,5 -9,8 -7,9 -4,7 -1,10 -2,14" transform="skewX(0) scale(1,1)" style="stroke:black;stroke-width:1;fill:orange" />
</g>
<g id="turtle2" visibility="visible" transform="rotate(-8117.988000000001,212.94,187.858) translate(212.94, 187.858)">
<polygon points="0,16 2,14 1,10 4,7 7,9 9,8 6,5 7,1 5,-3 8,-6 6,-8 4,-5 0,-7 -4,-5 -6,-8 -8,-6 -5,-3 -7,1 -6,5 -9,8 -7,9 -4,7 -1,10 -2,14" transform="skewX(0) scale(1,1)" style="stroke:black;stroke-width:1;fill:orange" />
</g>
<g id="turtle2" visibility="visible" transform="rotate(-8255.496000000001,208.671,260.824) translate(208.671, 260.824)">
<polygon points="0,16 2,14 1,10 4,7 7,9 9,8 6,5 7,1 5,-3 8,-6 6,-8 4,-5 0,-7 -4,-5 -6,-8 -8,-6 -5,-3 -7,1 -6,5 -9,8 -7,9 -4,7 -1,10 -2,14" transform="skewX(0) scale(1,1)" style="stroke:black;stroke-width:1;fill:orange" />
</g>
<g id="turtle2" visibility="visible" transform="rotate(-8393.004,261.53,209.491) translate(261.53, 209.491)">
<polygon points="0,16 2,14 1,10 4,7 7,9 9,8 6,5 7,1 5,-3 8,-6 6,-8 4,-5 0,-7 -4,-5 -6,-8 -8,-6 -5,-3 -7,1 -6,5 -9,8 -7,9 -4,7 -1,10 -2,14" transform="skewX(0) scale(1,1)" style="stroke:black;stroke-width:1;fill:orange" />
</g>
<g id="turtle2" visibility="visible" transform="rotate(-8530.512,187.292,211.656) translate(187.292, 211.656)">
<polygon points="0,16 2,14 1,10 4,7 7,9 9,8 6,5 7,1 5,-3 8,-6 6,-8 4,-5 0,-7 -4,-5 -6,-8 -8,-6 -5,-3 -7,1 -6,5 -9,8 -7,9 -4,7 -1,10 -2,14" transform="skewX(0) scale(1,1)" style="stroke:black;stroke-width:1;fill:orange" />
</g>
<g id="turtle2" visibility="visible" transform="rotate(-8668.02,243.937,260.586) translate(243.937, 260.586)">
<polygon points="0,16 2,14 1,10 4,7 7,9 9,8 6,5 7,1 5,-3 8,-6 6,-8 4,-5 0,-7 -4,-5 -6,-8 -8,-6 -5,-3 -7,1 -6,5 -9,8 -7,9 -4,7 -1,10 -2,14" transform="skewX(0) scale(1,1)" style="stroke:black;stroke-width:1;fill:orange" />
</g>
<g id="turtle2" visibility="visible" transform="rotate(-8805.528,235.151,185.669) translate(235.151, 185.669)">
<polygon points="0,16 2,14 1,10 4,7 7,9 9,8 6,5 7,1 5,-3 8,-6 6,-8 4,-5 0,-7 -4,-5 -6,-8 -8,-6 -5,-3 -7,1 -6,5 -9,8 -7,9 -4,7 -1,10 -2,14" transform="skewX(0) scale(1,1)" style="stroke:black;stroke-width:1;fill:orange" />
</g>
<g id="turtle2" visibility="visible" transform="rotate(-8943.036,190.69,247.312) translate(190.69, 247.312)">
<polygon points="0,16 2,14 1,10 4,7 7,9 9,8 6,5 7,1 5,-3 8,-6 6,-8 4,-5 0,-7 -4,-5 -6,-8 -8,-6 -5,-3 -7,1 -6,5 -9,8 -7,9 -4,7 -1,10 -2,14" transform="skewX(0) scale(1,1)" style="stroke:black;stroke-width:1;fill:orange" />
</g>
<g id="turtle2" visibility="visible" transform="rotate(-9080.544,265.671,231.774) translate(265.671, 231.774)">
<polygon points="0,16 2,14 1,10 4,7 7,9 9,8 6,5 7,1 5,-3 8,-6 6,-8 4,-5 0,-7 -4,-5 -6,-8 -8,-6 -5,-3 -7,1 -6,5 -9,8 -7,9 -4,7 -1,10 -2,14" transform="skewX(0) scale(1,1)" style="stroke:black;stroke-width:1;fill:orange" />
</g>
<g id="turtle2" visibility="visible" transform="rotate(-9218.052000000001,199.4,192.295) translate(199.4, 192.295)">
<polygon points="0,16 2,14 1,10 4,7 7,9 9,8 6,5 7,1 5,-3 8,-6 6,-8 4,-5 0,-7 -4,-5 -6,-8 -8,-6 -5,-3 -7,1 -6,5 -9,8 -7,9 -4,7 -1,10 -2,14" transform="skewX(0) scale(1,1)" style="stroke:black;stroke-width:1;fill:orange" />
</g>
<g id="turtle2" visibility="visible" transform="rotate(-9355.560000000001,221.761,266.707) translate(221.761, 266.707)">
<polygon points="0,16 2,14 1,10 4,7 7,9 9,8 6,5 7,1 5,-3 8,-6 6,-8 4,-5 0,-7 -4,-5 -6,-8 -8,-6 -5,-3 -7,1 -6,5 -9,8 -7,9 -4,7 -1,10 -2,14" transform="skewX(0) scale(1,1)" style="stroke:black;stroke-width:1;fill:orange" />
</g>
<g id="turtle2" visibility="visible" transform="rotate(-9493.068000000001,255.778,196.23) translate(255.778, 196.23)">
<polygon points="0,16 2,14 1,10 4,7 7,9 9,8 6,5 7,1 5,-3 8,-6 6,-8 4,-5 0,-7 -4,-5 -6,-8 -8,-6 -5,-3 -7,1 -6,5 -9,8 -7,9 -4,7 -1,10 -2,14" transform="skewX(0) scale(1,1)" style="stroke:black;stroke-width:1;fill:orange" />
</g>
<g id="turtle2" visibility="visible" transform="rotate(-9630.576000000001,182.576,225.427) translate(182.576, 225.427)">
<polygon points="0,16 2,14 1,10 4,7 7,9 9,8 6,5 7,1 5,-3 8,-6 6,-8 4,-5 0,-7 -4,-5 -6,-8 -8,-6 -5,-3 -7,1 -6,5 -9,8 -7,9 -4,7 -1,10 -2,14" transform="skewX(0) scale(1,1)" style="stroke:black;stroke-width:1;fill:orange" />
</g>
<g id="turtle2" visibility="visible" transform="rotate(-9768.084,256.789,253.539) translate(256.789, 253.539)">
<polygon points="0,16 2,14 1,10 4,7 7,9 9,8 6,5 7,1 5,-3 8,-6 6,-8 4,-5 0,-7 -4,-5 -6,-8 -8,-6 -5,-3 -7,1 -6,5 -9,8 -7,9 -4,7 -1,10 -2,14" transform="skewX(0) scale(1,1)" style="stroke:black;stroke-width:1;fill:orange" />
</g>
<g id="turtle2" visibility="visible" transform="rotate(-9905.592,220.809,182.193) translate(220.809, 182.193)">
<polygon points="0,16 2,14 1,10 4,7 7,9 9,8 6,5 7,1 5,-3 8,-6 6,-8 4,-5 0,-7 -4,-5 -6,-8 -8,-6 -5,-3 -7,1 -6,5 -9,8 -7,9 -4,7 -1,10 -2,14" transform="skewX(0) scale(1,1)" style="stroke:black;stroke-width:1;fill:orange" />
</g>
<g id="turtle2" visibility="visible" transform="rotate(-10043.1,199.001,259.627) translate(199.001, 259.627)">
<polygon points="0,16 2,14 1,10 4,7 7,9 9,8 6,5 7,1 5,-3 8,-6 6,-8 4,-5 0,-7 -4,-5 -6,-8 -8,-6 -5,-3 -7,1 -6,5 -9,8 -7,9 -4,7 -1,10 -2,14" transform="skewX(0) scale(1,1)" style="stroke:black;stroke-width:1;fill:orange" />
</g>
<g id="turtle2" visibility="visible" transform="rotate(-10180.608,267.844,216.976) translate(267.844, 216.976)">
<polygon points="0,16 2,14 1,10 4,7 7,9 9,8 6,5 7,1 5,-3 8,-6 6,-8 4,-5 0,-7 -4,-5 -6,-8 -8,-6 -5,-3 -7,1 -6,5 -9,8 -7,9 -4,7 -1,10 -2,14" transform="skewX(0) scale(1,1)" style="stroke:black;stroke-width:1;fill:orange" />
</g>
<g id="turtle2" visibility="visible" transform="rotate(-10318.116,187.745,201.825) translate(187.745, 201.825)">
<polygon points="0,16 2,14 1,10 4,7 7,9 9,8 6,5 7,1 5,-3 8,-6 6,-8 4,-5 0,-7 -4,-5 -6,-8 -8,-6 -5,-3 -7,1 -6,5 -9,8 -7,9 -4,7 -1,10 -2,14" transform="skewX(0) scale(1,1)" style="stroke:black;stroke-width:1;fill:orange" />
</g>
<g id="turtle2" visibility="visible" transform="rotate(-10455.624000000002,236.893,267.527) translate(236.893, 267.527)">
<polygon points="0,16 2,14 1,10 4,7 7,9 9,8 6,5 7,1 5,-3 8,-6 6,-8 4,-5 0,-7 -4,-5 -6,-8 -8,-6 -5,-3 -7,1 -6,5 -9,8 -7,9 -4,7 -1,10 -2,14" transform="skewX(0) scale(1,1)" style="stroke:black;stroke-width:1;fill:orange" />
</g>
<g id="turtle2" visibility="visible" transform="rotate(-10593.132000000001,245.085,185.356) translate(245.085, 185.356)">
<polygon points="0,16 2,14 1,10 4,7 7,9 9,8 6,5 7,1 5,-3 8,-6 6,-8 4,-5 0,-7 -4,-5 -6,-8 -8,-6 -5,-3 -7,1 -6,5 -9,8 -7,9 -4,7 -1,10 -2,14" transform="skewX(0) scale(1,1)" style="stroke:black;stroke-width:1;fill:orange" />
</g>
<g id="turtle2" visibility="visible" transform="rotate(-10730.640000000001,183.149,240.764) translate(183.149, 240.764)">
<polygon points="0,16 2,14 1,10 4,7 7,9 9,8 6,5 7,1 5,-3 8,-6 6,-8 4,-5 0,-7 -4,-5 -6,-8 -8,-6 -5,-3 -7,1 -6,5 -9,8 -7,9 -4,7 -1,10 -2,14" transform="skewX(0) scale(1,1)" style="stroke:black;stroke-width:1;fill:orange" />
</g>
<g id="turtle2" visibility="visible" transform="rotate(-10868.148000000001,266.767,241.749) translate(266.767, 241.749)">
<polygon points="0,16 2,14 1,10 4,7 7,9 9,8 6,5 7,1 5,-3 8,-6 6,-8 4,-5 0,-7 -4,-5 -6,-8 -8,-6 -5,-3 -7,1 -6,5 -9,8 -7,9 -4,7 -1,10 -2,14" transform="skewX(0) scale(1,1)" style="stroke:black;stroke-width:1;fill:orange" />
</g>
<g id="turtle2" visibility="visible" transform="rotate(-11005.656,205.397,184.187) translate(205.397, 184.187)">
<polygon points="0,16 2,14 1,10 4,7 7,9 9,8 6,5 7,1 5,-3 8,-6 6,-8 4,-5 0,-7 -4,-5 -6,-8 -8,-6 -5,-3 -7,1 -6,5 -9,8 -7,9 -4,7 -1,10 -2,14" transform="skewX(0) scale(1,1)" style="stroke:black;stroke-width:1;fill:orange" />
</g>
<g id="turtle2" visibility="visible" transform="rotate(-11143.164,211.807,268.6) translate(211.807, 268.6)">
<polygon points="0,16 2,14 1,10 4,7 7,9 9,8 6,5 7,1 5,-3 8,-6 6,-8 4,-5 0,-7 -4,-5 -6,-8 -8,-6 -5,-3 -7,1 -6,5 -9,8 -7,9 -4,7 -1,10 -2,14" transform="skewX(0) scale(1,1)" style="stroke:black;stroke-width:1;fill:orange" />
</g>
<g id="turtle2" visibility="visible" transform="rotate(-11280.672,264.415,201.623) translate(264.415, 201.623)">
<polygon points="0,16 2,14 1,10 4,7 7,9 9,8 6,5 7,1 5,-3 8,-6 6,-8 4,-5 0,-7 -4,-5 -6,-8 -8,-6 -5,-3 -7,1 -6,5 -9,8 -7,9 -4,7 -1,10 -2,14" transform="skewX(0) scale(1,1)" style="stroke:black;stroke-width:1;fill:orange" />
</g>
<g id="turtle2" visibility="visible" transform="rotate(-11418.18,179.88,215.557) translate(179.88, 215.557)">
<polygon points="0,16 2,14 1,10 4,7 7,9 9,8 6,5 7,1 5,-3 8,-6 6,-8 4,-5 0,-7 -4,-5 -6,-8 -8,-6 -5,-3 -7,1 -6,5 -9,8 -7,9 -4,7 -1,10 -2,14" transform="skewX(0) scale(1,1)" style="stroke:black;stroke-width:1;fill:orange" />
</g>
<g id="turtle2" visibility="visible" transform="rotate(-11555.688,252.05,262.66) translate(252.05, 262.66)">
<polygon points="0,16 2,14 1,10 4,7 7,9 9,8 6,5 7,1 5,-3 8,-6 6,-8 4,-5 0,-7 -4,-5 -6,-8 -8,-6 -5,-3 -7,1 -6,5 -9,8 -7,9 -4,7 -1,10 -2,14" transform="skewX(0) scale(1,1)" style="stroke:black;stroke-width:1;fill:orange" />
</g>
<g id="turtle2" visibility="visible" transform="rotate(-11693.196000000002,230.525,178.692) translate(230.525, 178.692)">
<polygon points="0,16 2,14 1,10 4,7 7,9 9,8 6,5 7,1 5,-3 8,-6 6,-8 4,-5 0,-7 -4,-5 -6,-8 -8,-6 -5,-3 -7,1 -6,5 -9,8 -7,9 -4,7 -1,10 -2,14" transform="skewX(0) scale(1,1)" style="stroke:black;stroke-width:1;fill:orange" />
</g>
<g id="turtle2" visibility="visible" transform="rotate(-11830.704000000002,189.442,255.589) translate(189.442, 255.589)">
<polygon points="0,16 2,14 1,10 4,7 7,9 9,8 6,5 7,1 5,-3 8,-6 6,-8 4,-5 0,-7 -4,-5 -6,-8 -8,-6 -5,-3 -7,1 -6,5 -9,8 -7,9 -4,7 -1,10 -2,14" transform="skewX(0) scale(1,1)" style="stroke:black;stroke-width:1;fill:orange" />
</g>
<g id="turtle2" visibility="visible" transform="rotate(-11968.212000000001,272.147,226.472) translate(272.147, 226.472)">
<polygon points="0,16 2,14 1,10 4,7 7,9 9,8 6,5 7,1 5,-3 8,-6 6,-8 4,-5 0,-7 -4,-5 -6,-8 -8,-6 -5,-3 -7,1 -6,5 -9,8 -7,9 -4,7 -1,10 -2,14" transform="skewX(0) scale(1,1)" style="stroke:black;stroke-width:1;fill:orange" />
</g>
<g id="turtle2" visibility="visible" transform="rotate(-12105.720000000001,191.04,191.883) translate(191.04, 191.883)">
<polygon points="0,16 2,14 1,10 4,7 7,9 9,8 6,5 7,1 5,-3 8,-6 6,-8 4,-5 0,-7 -4,-5 -6,-8 -8,-6 -5,-3 -7,1 -6,5 -9,8 -7,9 -4,7 -1,10 -2,14" transform="skewX(0) scale(1,1)" style="stroke:black;stroke-width:1;fill:orange" />
</g>
<g id="turtle2" visibility="visible" transform="rotate(-12243.228000000001,227.686,272.621) translate(227.686, 272.621)">
<polygon points="0,16 2,14 1,10 4,7 7,9 9,8 6,5 7,1 5,-3 8,-6 6,-8 4,-5 0,-7 -4,-5 -6,-8 -8,-6 -5,-3 -7,1 -6,5 -9,8 -7,9 -4,7 -1,10 -2,14" transform="skewX(0) scale(1,1)" style="stroke:black;stroke-width:1;fill:orange" />
</g>
<g id="turtle2" visibility="visible" transform="rotate(-12380.736,255.353,187.869) translate(255.353, 187.869)">
<polygon points="0,16 2,14 1,10 4,7 7,9 9,8 6,5 7,1 5,-3 8,-6 6,-8 4,-5 0,-7 -4,-5 -6,-8 -8,-6 -5,-3 -7,1 -6,5 -9,8 -7,9 -4,7 -1,10 -2,14" transform="skewX(0) scale(1,1)" style="stroke:black;stroke-width:1;fill:orange" />
</g>
<g id="turtle2" visibility="visible" transform="rotate(-12518.244,177.28,231.914) translate(177.28, 231.914)">
<polygon points="0,16 2,14 1,10 4,7 7,9 9,8 6,5 7,1 5,-3 8,-6 6,-8 4,-5 0,-7 -4,-5 -6,-8 -8,-6 -5,-3 -7,1 -6,5 -9,8 -7,9 -4,7 -1,10 -2,14" transform="skewX(0) scale(1,1)" style="stroke:black;stroke-width:1;fill:orange" />
</g>
<g id="turtle2" visibility="visible" transform="rotate(-12655.752,265.071,252.282) translate(265.071, 252.282)">
<polygon points="0,16 2,14 1,10 4,7 7,9 9,8 6,5 7,1 5,-3 8,-6 6,-8 4,-5 0,-7 -4,-5 -6,-8 -8,-6 -5,-3 -7,1 -6,5 -9,8 -7,9 -4,7 -1,10 -2,14" transform="skewX(0) scale(1,1)" style="stroke:black;stroke-width:1;fill:orange" />
</g>
<g id="turtle2" visibility="visible" transform="rotate(-12793.26,213.822,177.565) translate(213.822, 177.565)">
<polygon points="0,16 2,14 1,10 4,7 7,9 9,8 6,5 7,1 5,-3 8,-6 6,-8 4,-5 0,-7 -4,-5 -6,-8 -8,-6 -5,-3 -7,1 -6,5 -9,8 -7,9 -4,7 -1,10 -2,14" transform="skewX(0) scale(1,1)" style="stroke:black;stroke-width:1;fill:orange" />
</g>
<g id="turtle2" visibility="visible" transform="rotate(-12930.768,201.076,267.751) translate(201.076, 267.751)">
<polygon points="0,16 2,14 1,10 4,7 7,9 9,8 6,5 7,1 5,-3 8,-6 6,-8 4,-5 0,-7 -4,-5 -6,-8 -8,-6 -5,-3 -7,1 -6,5 -9,8 -7,9 -4,7 -1,10 -2,14" transform="skewX(0) scale(1,1)" style="stroke:black;stroke-width:1;fill:orange" />
</g>
<g id="turtle2" visibility="visible" transform="rotate(-13068.276000000002,271.76,209.557) translate(271.76, 209.557)">
<polygon points="0,16 2,14 1,10 4,7 7,9 9,8 6,5 7,1 5,-3 8,-6 6,-8 4,-5 0,-7 -4,-5 -6,-8 -8,-6 -5,-3 -7,1 -6,5 -9,8 -7,9 -4,7 -1,10 -2,14" transform="skewX(0) scale(1,1)" style="stroke:black;stroke-width:1;fill:orange" />
</g>
<g id="turtle2" visibility="visible" transform="rotate(-13205.784000000001,179.858,204.697) translate(179.858, 204.697)">
<polygon points="0,16 2,14 1,10 4,7 7,9 9,8 6,5 7,1 5,-3 8,-6 6,-8 4,-5 0,-7 -4,-5 -6,-8 -8,-6 -5,-3 -7,1 -6,5 -9,8 -7,9 -4,7 -1,10 -2,14" transform="skewX(0) scale(1,1)" style="stroke:black;stroke-width:1;fill:orange" />
</g>
<g id="turtle2" visibility="visible" transform="rotate(-13343.292000000001,244.672,270.695) translate(244.672, 270.695)">
<polygon points="0,16 2,14 1,10 4,7 7,9 9,8 6,5 7,1 5,-3 8,-6 6,-8 4,-5 0,-7 -4,-5 -6,-8 -8,-6 -5,-3 -7,1 -6,5 -9,8 -7,9 -4,7 -1,10 -2,14" transform="skewX(0) scale(1,1)" style="stroke:black;stroke-width:1;fill:orange" />
</g>
<g id="turtle2" visibility="visible" transform="rotate(-13480.800000000001,241.443,177.781) translate(241.443, 177.781)">
<polygon points="0,16 2,14 1,10 4,7 7,9 9,8 6,5 7,1 5,-3 8,-6 6,-8 4,-5 0,-7 -4,-5 -6,-8 -8,-6 -5,-3 -7,1 -6,5 -9,8 -7,9 -4,7 -1,10 -2,14" transform="skewX(0) scale(1,1)" style="stroke:black;stroke-width:1;fill:orange" />
</g>
<g id="turtle2" visibility="visible" transform="rotate(-13618.308,180.76,248.829) translate(180.76, 248.829)">
<polygon points="0,16 2,14 1,10 4,7 7,9 9,8 6,5 7,1 5,-3 8,-6 6,-8 4,-5 0,-7 -4,-5 -6,-8 -8,-6 -5,-3 -7,1 -6,5 -9,8 -7,9 -4,7 -1,10 -2,14" transform="skewX(0) scale(1,1)" style="stroke:black;stroke-width:1;fill:orange" />
</g>
<g id="turtle2" visibility="visible" transform="rotate(-13755.816,273.958,237.374) translate(273.958, 237.374)">
<polygon points="0,16 2,14 1,10 4,7 7,9 9,8 6,5 7,1 5,-3 8,-6 6,-8 4,-5 0,-7 -4,-5 -6,-8 -8,-6 -5,-3 -7,1 -6,5 -9,8 -7,9 -4,7 -1,10 -2,14" transform="skewX(0) scale(1,1)" style="stroke:black;stroke-width:1;fill:orange" />
</g>
<g id="turtle2" visibility="visible" transform="rotate(-13893.324,197.122,182.599) translate(197.122, 182.599)">
<polygon points="0,16 2,14 1,10 4,7 7,9 9,8 6,5 7,1 5,-3 8,-6 6,-8 4,-5 0,-7 -4,-5 -6,-8 -8,-6 -5,-3 -7,1 -6,5 -9,8 -7,9 -4,7 -1,10 -2,14" transform="skewX(0) scale(1,1)" style="stroke:black;stroke-width:1;fill:orange" />
</g>
<g id="turtle2" visibility="visible" transform="rotate(-14030.832,216.876,275.339) translate(216.876, 275.339)">
<polygon points="0,16 2,14 1,10 4,7 7,9 9,8 6,5 7,1 5,-3 8,-6 6,-8 4,-5 0,-7 -4,-5 -6,-8 -8,-6 -5,-3 -7,1 -6,5 -9,8 -7,9 -4,7 -1,10 -2,14" transform="skewX(0) scale(1,1)" style="stroke:black;stroke-width:1;fill:orange" />
</g>
<g id="turtle2" visibility="visible" transform="rotate(-14168.34,265.186,193.218) translate(265.186, 193.218)">
<polygon points="0,16 2,14 1,10 4,7 7,9 9,8 6,5 7,1 5,-3 8,-6 6,-8 4,-5 0,-7 -4,-5 -6,-8 -8,-6 -5,-3 -7,1 -6,5 -9,8 -7,9 -4,7 -1,10 -2,14" transform="skewX(0) scale(1,1)" style="stroke:black;stroke-width:1;fill:orange" />
</g>
<g id="turtle2" visibility="visible" transform="rotate(-14305.848000000002,173.657,221.273) translate(173.657, 221.273)">
<polygon points="0,16 2,14 1,10 4,7 7,9 9,8 6,5 7,1 5,-3 8,-6 6,-8 4,-5 0,-7 -4,-5 -6,-8 -8,-6 -5,-3 -7,1 -6,5 -9,8 -7,9 -4,7 -1,10 -2,14" transform="skewX(0) scale(1,1)" style="stroke:black;stroke-width:1;fill:orange" />
</g>
<g id="turtle2" visibility="visible" transform="rotate(-14443.356000000002,260.508,262.606) translate(260.508, 262.606)">
<polygon points="0,16 2,14 1,10 4,7 7,9 9,8 6,5 7,1 5,-3 8,-6 6,-8 4,-5 0,-7 -4,-5 -6,-8 -8,-6 -5,-3 -7,1 -6,5 -9,8 -7,9 -4,7 -1,10 -2,14" transform="skewX(0) scale(1,1)" style="stroke:black;stroke-width:1;fill:orange" />
</g>
<g id="turtle2" visibility="visible" transform="rotate(-14580.864000000001,224.216,173.044) translate(224.216, 173.044)">
<polygon points="0,16 2,14 1,10 4,7 7,9 9,8 6,5 7,1 5,-3 8,-6 6,-8 4,-5 0,-7 -4,-5 -6,-8 -8,-6 -5,-3 -7,1 -6,5 -9,8 -7,9 -4,7 -1,10 -2,14" transform="skewX(0) scale(1,1)" style="stroke:black;stroke-width:1;fill:orange" />
</g>
<g id="turtle2" visibility="visible" transform="rotate(-14718.372000000001,190.323,264.019) translate(190.323, 264.019)">
<polygon points="0,16 2,14 1,10 4,7 7,9 9,8 6,5 7,1 5,-3 8,-6 6,-8 4,-5 0,-7 -4,-5 -6,-8 -8,-6 -5,-3 -7,1 -6,5 -9,8 -7,9 -4,7 -1,10 -2,14" transform="skewX(0) scale(1,1)" style="stroke:black;stroke-width:1;fill:orange" />
</g>
<g id="turtle2" visibility="visible" transform="rotate(-14855.880000000001,277.165,219.628) translate(277.165, 219.628)">
<polygon points="0,16 2,14 1,10 4,7 7,9 9,8 6,5 7,1 5,-3 8,-6 6,-8 4,-5 0,-7 -4,-5 -6,-8 -8,-6 -5,-3 -7,1 -6,5 -9,8 -7,9 -4,7 -1,10 -2,14" transform="skewX(0) scale(1,1)" style="stroke:black;stroke-width:1;fill:orange" />
</g>
<g id="turtle2" visibility="visible" transform="rotate(-14993.388,182.716,193.583) translate(182.716, 193.583)">
<polygon points="0,16 2,14 1,10 4,7 7,9 9,8 6,5 7,1 5,-3 8,-6 6,-8 4,-5 0,-7 -4,-5 -6,-8 -8,-6 -5,-3 -7,1 -6,5 -9,8 -7,9 -4,7 -1,10 -2,14" transform="skewX(0) scale(1,1)" style="stroke:black;stroke-width:1;fill:orange" />
</g>
<g id="turtle2" visibility="visible" transform="rotate(-15130.896,235.002,276.961) translate(235.002, 276.961)">
<polygon points="0,16 2,14 1,10 4,7 7,9 9,8 6,5 7,1 5,-3 8,-6 6,-8 4,-5 0,-7 -4,-5 -6,-8 -8,-6 -5,-3 -7,1 -6,5 -9,8 -7,9 -4,7 -1,10 -2,14" transform="skewX(0) scale(1,1)" style="stroke:black;stroke-width:1;fill:orange" />
</g>
<g id="turtle2" visibility="visible" transform="rotate(-15268.404,252.847,179.728) translate(252.847, 179.728)">
<polygon points="0,16 2,14 1,10 4,7 7,9 9,8 6,5 7,1 5,-3 8,-6 6,-8 4,-5 0,-7 -4,-5 -6,-8 -8,-6 -5,-3 -7,1 -6,5 -9,8 -7,9 -4,7 -1,10 -2,14" transform="skewX(0) scale(1,1)" style="stroke:black;stroke-width:1;fill:orange" />
</g>
<g id="turtle2" visibility="visible" transform="rotate(-15405.912,173.66,239.636) translate(173.66, 239.636)">
<polygon points="0,16 2,14 1,10 4,7 7,9 9,8 6,5 7,1 5,-3 8,-6 6,-8 4,-5 0,-7 -4,-5 -6,-8 -8,-6 -5,-3 -7,1 -6,5 -9,8 -7,9 -4,7 -1,10 -2,14" transform="skewX(0) scale(1,1)" style="stroke:black;stroke-width:1;fill:orange" />
</g>
<g id="turtle2" visibility="visible" transform="rotate(-15543.420000000002,272.952,248.992) translate(272.952, 248.992)">
<polygon points="0,16 2,14 1,10 4,7 7,9 9,8 6,5 7,1 5,-3 8,-6 6,-8 4,-5 0,-7 -4,-5 -6,-8 -8,-6 -5,-3 -7,1 -6,5 -9,8 -7,9 -4,7 -1,10 -2,14" transform="skewX(0) scale(1,1)" style="stroke:black;stroke-width:1;fill:orange" />
</g>
<g id="turtle2" visibility="visible" transform="rotate(-15680.928000000002,205.764,174.701) translate(205.764, 174.701)">
<polygon points="0,16 2,14 1,10 4,7 7,9 9,8 6,5 7,1 5,-3 8,-6 6,-8 4,-5 0,-7 -4,-5 -6,-8 -8,-6 -5,-3 -7,1 -6,5 -9,8 -7,9 -4,7 -1,10 -2,14" transform="skewX(0) scale(1,1)" style="stroke:black;stroke-width:1;fill:orange" />
</g>
<g id="turtle2" visibility="visible" transform="rotate(-15818.436000000002,205.122,275.298) translate(205.122, 275.298)">
<polygon points="0,16 2,14 1,10 4,7 7,9 9,8 6,5 7,1 5,-3 8,-6 6,-8 4,-5 0,-7 -4,-5 -6,-8 -8,-6 -5,-3 -7,1 -6,5 -9,8 -7,9 -4,7 -1,10 -2,14" transform="skewX(0) scale(1,1)" style="stroke:black;stroke-width:1;fill:orange" />
</g>
<g id="turtle2" visibility="visible" transform="rotate(-15955.944000000001,273.84,201.238) translate(273.84, 201.238)">
<polygon points="0,16 2,14 1,10 4,7 7,9 9,8 6,5 7,1 5,-3 8,-6 6,-8 4,-5 0,-7 -4,-5 -6,-8 -8,-6 -5,-3 -7,1 -6,5 -9,8 -7,9 -4,7 -1,10 -2,14" transform="skewX(0) scale(1,1)" style="stroke:black;stroke-width:1;fill:orange" />
</g>
<g id="turtle2" visibility="visible" transform="rotate(-16093.452000000001,172.716,209.465) translate(172.716, 209.465)">
<polygon points="0,16 2,14 1,10 4,7 7,9 9,8 6,5 7,1 5,-3 8,-6 6,-8 4,-5 0,-7 -4,-5 -6,-8 -8,-6 -5,-3 -7,1 -6,5 -9,8 -7,9 -4,7 -1,10 -2,14" transform="skewX(0) scale(1,1)" style="stroke:black;stroke-width:1;fill:orange" />
</g>
<g id="turtle2" visibility="visible" transform="rotate(-16230.960000000003,253.177,271.969) translate(253.177, 271.969)">
<polygon points="0,16 2,14 1,10 4,7 7,9 9,8 6,5 7,1 5,-3 8,-6 6,-8 4,-5 0,-7 -4,-5 -6,-8 -8,-6 -5,-3 -7,1 -6,5 -9,8 -7,9 -4,7 -1,10 -2,14" transform="skewX(0) scale(1,1)" style="stroke:black;stroke-width:1;fill:orange" />
</g>
<g id="turtle2" visibility="visible" transform="rotate(-16368.468,235.995,171.11) translate(235.995, 171.11)">
<polygon points="0,16 2,14 1,10 4,7 7,9 9,8 6,5 7,1 5,-3 8,-6 6,-8 4,-5 0,-7 -4,-5 -6,-8 -8,-6 -5,-3 -7,1 -6,5 -9,8 -7,9 -4,7 -1,10 -2,14" transform="skewX(0) scale(1,1)" style="stroke:black;stroke-width:1;fill:orange" />
</g>
<g id="turtle2" visibility="visible" transform="rotate(-16505.976000000002,180.307,257.443) translate(180.307, 257.443)">
<polygon points="0,16 2,14 1,10 4,7 7,9 9,8 6,5 7,1 5,-3 8,-6 6,-8 4,-5 0,-7 -4,-5 -6,-8 -8,-6 -5,-3 -7,1 -6,5 -9,8 -7,9 -4,7 -1,10 -2,14" transform="skewX(0) scale(1,1)" style="stroke:black;stroke-width:1;fill:orange" />
</g>
<g id="turtle2" visibility="visible" transform="rotate(-16643.484,280.094,231.293) translate(280.094, 231.293)">
<polygon points="0,16 2,14 1,10 4,7 7,9 9,8 6,5 7,1 5,-3 8,-6 6,-8 4,-5 0,-7 -4,-5 -6,-8 -8,-6 -5,-3 -7,1 -6,5 -9,8 -7,9 -4,7 -1,10 -2,14" transform="skewX(0) scale(1,1)" style="stroke:black;stroke-width:1;fill:orange" />
</g>
<g id="turtle2" visibility="visible" transform="rotate(-16780.992000000002,188.478,182.974) translate(188.478, 182.974)">
<polygon points="0,16 2,14 1,10 4,7 7,9 9,8 6,5 7,1 5,-3 8,-6 6,-8 4,-5 0,-7 -4,-5 -6,-8 -8,-6 -5,-3 -7,1 -6,5 -9,8 -7,9 -4,7 -1,10 -2,14" transform="skewX(0) scale(1,1)" style="stroke:black;stroke-width:1;fill:orange" />
</g>
<g id="turtle2" visibility="visible" transform="rotate(-16918.5,223.537,280.883) translate(223.537, 280.883)">
<polygon points="0,16 2,14 1,10 4,7 7,9 9,8 6,5 7,1 5,-3 8,-6 6,-8 4,-5 0,-7 -4,-5 -6,-8 -8,-6 -5,-3 -7,1 -6,5 -9,8 -7,9 -4,7 -1,10 -2,14" transform="skewX(0) scale(1,1)" style="stroke:black;stroke-width:1;fill:orange" />
</g>
<g id="turtle2" visibility="visible" transform="rotate(-17056.008,263.982,184.622) translate(263.982, 184.622)">
<polygon points="0,16 2,14 1,10 4,7 7,9 9,8 6,5 7,1 5,-3 8,-6 6,-8 4,-5 0,-7 -4,-5 -6,-8 -8,-6 -5,-3 -7,1 -6,5 -9,8 -7,9 -4,7 -1,10 -2,14" transform="skewX(0) scale(1,1)" style="stroke:black;stroke-width:1;fill:orange" />
</g>
<g id="turtle2" visibility="visible" transform="rotate(-17193.516,168.759,228.456) translate(168.759, 228.456)">
<polygon points="0,16 2,14 1,10 4,7 7,9 9,8 6,5 7,1 5,-3 8,-6 6,-8 4,-5 0,-7 -4,-5 -6,-8 -8,-6 -5,-3 -7,1 -6,5 -9,8 -7,9 -4,7 -1,10 -2,14" transform="skewX(0) scale(1,1)" style="stroke:black;stroke-width:1;fill:orange" />
</g>
<g id="turtle2" visibility="visible" transform="rotate(-17331.024,268.977,260.581) translate(268.977, 260.581)">
<polygon points="0,16 2,14 1,10 4,7 7,9 9,8 6,5 7,1 5,-3 8,-6 6,-8 4,-5 0,-7 -4,-5 -6,-8 -8,-6 -5,-3 -7,1 -6,5 -9,8 -7,9 -4,7 -1,10 -2,14" transform="skewX(0) scale(1,1)" style="stroke:black;stroke-width:1;fill:orange" />
</g>
<g id="turtle2" visibility="visible" transform="rotate(-17468.532000000003,216.575,168.839) translate(216.575, 168.839)">
<polygon points="0,16 2,14 1,10 4,7 7,9 9,8 6,5 7,1 5,-3 8,-6 6,-8 4,-5 0,-7 -4,-5 -6,-8 -8,-6 -5,-3 -7,1 -6,5 -9,8 -7,9 -4,7 -1,10 -2,14" transform="skewX(0) scale(1,1)" style="stroke:black;stroke-width:1;fill:orange" />
</g>
<g id="turtle2" visibility="visible" transform="rotate(-17606.04,193.154,272.285) translate(193.154, 272.285)">
<polygon points="0,16 2,14 1,10 4,7 7,9 9,8 6,5 7,1 5,-3 8,-6 6,-8 4,-5 0,-7 -4,-5 -6,-8 -8,-6 -5,-3 -7,1 -6,5 -9,8 -7,9 -4,7 -1,10 -2,14" transform="skewX(0) scale(1,1)" style="stroke:black;stroke-width:1;fill:orange" />
</g>
<g id="turtle2" visibility="visible" transform="rotate(-17743.548000000003,280.635,211.594) translate(280.635, 211.594)">
<polygon points="0,16 2,14 1,10 4,7 7,9 9,8 6,5 7,1 5,-3 8,-6 6,-8 4,-5 0,-7 -4,-5 -6,-8 -8,-6 -5,-3 -7,1 -6,5 -9,8 -7,9 -4,7 -1,10 -2,14" transform="skewX(0) scale(1,1)" style="stroke:black;stroke-width:1;fill:orange" />
</g>
<g id="turtle2" visibility="visible" transform="rotate(-17881.056,174.73,197.199) translate(174.73, 197.199)">
<polygon points="0,16 2,14 1,10 4,7 7,9 9,8 6,5 7,1 5,-3 8,-6 6,-8 4,-5 0,-7 -4,-5 -6,-8 -8,-6 -5,-3 -7,1 -6,5 -9,8 -7,9 -4,7 -1,10 -2,14" transform="skewX(0) scale(1,1)" style="stroke:black;stroke-width:1;fill:orange" />
</g>
<g id="turtle2" visibility="visible" transform="rotate(-18018.564000000002,243.358,279.663) translate(243.358, 279.663)">
<polygon points="0,16 2,14 1,10 4,7 7,9 9,8 6,5 7,1 5,-3 8,-6 6,-8 4,-5 0,-7 -4,-5 -6,-8 -8,-6 -5,-3 -7,1 -6,5 -9,8 -7,9 -4,7 -1,10 -2,14" transform="skewX(0) scale(1,1)" style="stroke:black;stroke-width:1;fill:orange" />
</g>
<g id="turtle2" visibility="visible" transform="rotate(-18156.072,248.475,172.095) translate(248.475, 172.095)">
<polygon points="0,16 2,14 1,10 4,7 7,9 9,8 6,5 7,1 5,-3 8,-6 6,-8 4,-5 0,-7 -4,-5 -6,-8 -8,-6 -5,-3 -7,1 -6,5 -9,8 -7,9 -4,7 -1,10 -2,14" transform="skewX(0) scale(1,1)" style="stroke:black;stroke-width:1;fill:orange" />
</g>
<g id="turtle2" visibility="visible" transform="rotate(-18293.58,171.756,248.24) translate(171.756, 248.24)">
<polygon points="0,16 2,14 1,10 4,7 7,9 9,8 6,5 7,1 5,-3 8,-6 6,-8 4,-5 0,-7 -4,-5 -6,-8 -8,-6 -5,-3 -7,1 -6,5 -9,8 -7,9 -4,7 -1,10 -2,14" transform="skewX(0) scale(1,1)" style="stroke:black;stroke-width:1;fill:orange" />
</g>
<g id="turtle2" visibility="visible" transform="rotate(-18431.088,280.162,243.899) translate(280.162, 243.899)">
<polygon points="0,16 2,14 1,10 4,7 7,9 9,8 6,5 7,1 5,-3 8,-6 6,-8 4,-5 0,-7 -4,-5 -6,-8 -8,-6 -5,-3 -7,1 -6,5 -9,8 -7,9 -4,7 -1,10 -2,14" transform="skewX(0) scale(1,1)" style="stroke:black;stroke-width:1;fill:orange" />
</g>
<g id="turtle2" visibility="visible" transform="rotate(-18568.596,196.989,173.615) translate(196.989, 173.615)">
<polygon points="0,16 2,14 1,10 4,7 7,9 9,8 6,5 7,1 5,-3 8,-6 6,-8 4,-5 0,-7 -4,-5 -6,-8 -8,-6 -5,-3 -7,1 -6,5 -9,8 -7,9 -4,7 -1,10 -2,14" transform="skewX(0) scale(1,1)" style="stroke:black;stroke-width:1;fill:orange" />
</g>
<g id="turtle2" visibility="visible" transform="rotate(-18706.104000000003,210.894,282.018) translate(210.894, 282.018)">
<polygon points="0,16 2,14 1,10 4,7 7,9 9,8 6,5 7,1 5,-3 8,-6 6,-8 4,-5 0,-7 -4,-5 -6,-8 -8,-6 -5,-3 -7,1 -6,5 -9,8 -7,9 -4,7 -1,10 -2,14" transform="skewX(0) scale(1,1)" style="stroke:black;stroke-width:1;fill:orange" />
</g>
<g id="turtle2" visibility="visible" transform="rotate(-18843.612,274.093,192.368) translate(274.093, 192.368)">
<polygon points="0,16 2,14 1,10 4,7 7,9 9,8 6,5 7,1 5,-3 8,-6 6,-8 4,-5 0,-7 -4,-5 -6,-8 -8,-6 -5,-3 -7,1 -6,5 -9,8 -7,9 -4,7 -1,10 -2,14" transform="skewX(0) scale(1,1)" style="stroke:black;stroke-width:1;fill:orange" />
</g>
<g id="turtle2" visibility="visible" transform="rotate(-18981.120000000003,166.548,215.868) translate(166.548, 215.868)">
<polygon points="0,16 2,14 1,10 4,7 7,9 9,8 6,5 7,1 5,-3 8,-6 6,-8 4,-5 0,-7 -4,-5 -6,-8 -8,-6 -5,-3 -7,1 -6,5 -9,8 -7,9 -4,7 -1,10 -2,14" transform="skewX(0) scale(1,1)" style="stroke:black;stroke-width:1;fill:orange" />
</g>
<g id="turtle2" visibility="visible" transform="rotate(-19118.628,262.063,271.382) translate(262.063, 271.382)">
<polygon points="0,16 2,14 1,10 4,7 7,9 9,8 6,5 7,1 5,-3 8,-6 6,-8 4,-5 0,-7 -4,-5 -6,-8 -8,-6 -5,-3 -7,1 -6,5 -9,8 -7,9 -4,7 -1,10 -2,14" transform="skewX(0) scale(1,1)" style="stroke:black;stroke-width:1;fill:orange" />
</g>
<g id="turtle2" visibility="visible" transform="rotate(-19256.136000000002,229.015,165.554) translate(229.015, 165.554)">
<polygon points="0,16 2,14 1,10 4,7 7,9 9,8 6,5 7,1 5,-3 8,-6 6,-8 4,-5 0,-7 -4,-5 -6,-8 -8,-6 -5,-3 -7,1 -6,5 -9,8 -7,9 -4,7 -1,10 -2,14" transform="skewX(0) scale(1,1)" style="stroke:black;stroke-width:1;fill:orange" />
</g>
<g id="turtle2" visibility="visible" transform="rotate(-19393.644,181.732,266.266) translate(181.732, 266.266)">
<polygon points="0,16 2,14 1,10 4,7 7,9 9,8 6,5 7,1 5,-3 8,-6 6,-8 4,-5 0,-7 -4,-5 -6,-8 -8,-6 -5,-3 -7,1 -6,5 -9,8 -7,9 -4,7 -1,10 -2,14" transform="skewX(0) scale(1,1)" style="stroke:black;stroke-width:1;fill:orange" />
</g>
<g id="turtle2" visibility="visible" transform="rotate(-19531.152000000002,284.988,223.794) translate(284.988, 223.794)">
<polygon points="0,16 2,14 1,10 4,7 7,9 9,8 6,5 7,1 5,-3 8,-6 6,-8 4,-5 0,-7 -4,-5 -6,-8 -8,-6 -5,-3 -7,1 -6,5 -9,8 -7,9 -4,7 -1,10 -2,14" transform="skewX(0) scale(1,1)" style="stroke:black;stroke-width:1;fill:orange" />
</g>
<g id="turtle2" visibility="visible" transform="rotate(-19668.66,179.796,185.231) translate(179.796, 185.231)">
<polygon points="0,16 2,14 1,10 4,7 7,9 9,8 6,5 7,1 5,-3 8,-6 6,-8 4,-5 0,-7 -4,-5 -6,-8 -8,-6 -5,-3 -7,1 -6,5 -9,8 -7,9 -4,7 -1,10 -2,14" transform="skewX(0) scale(1,1)" style="stroke:black;stroke-width:1;fill:orange" />
</g>
<g id="turtle2" visibility="visible" transform="rotate(-19806.168,231.491,285.065) translate(231.491, 285.065)">
<polygon points="0,16 2,14 1,10 4,7 7,9 9,8 6,5 7,1 5,-3 8,-6 6,-8 4,-5 0,-7 -4,-5 -6,-8 -8,-6 -5,-3 -7,1 -6,5 -9,8 -7,9 -4,7 -1,10 -2,14" transform="skewX(0) scale(1,1)" style="stroke:black;stroke-width:1;fill:orange" />
</g>
<g id="turtle2" visibility="visible" transform="rotate(-19943.676000000003,260.909,176.158) translate(260.909, 176.158)">
<polygon points="0,16 2,14 1,10 4,7 7,9 9,8 6,5 7,1 5,-3 8,-6 6,-8 4,-5 0,-7 -4,-5 -6,-8 -8,-6 -5,-3 -7,1 -6,5 -9,8 -7,9 -4,7 -1,10 -2,14" transform="skewX(0) scale(1,1)" style="stroke:black;stroke-width:1;fill:orange" />
</g>
<g id="turtle2" visibility="visible" transform="rotate(-20081.184,165.328,236.798) translate(165.328, 236.798)">
<polygon points="0,16 2,14 1,10 4,7 7,9 9,8 6,5 7,1 5,-3 8,-6 6,-8 4,-5 0,-7 -4,-5 -6,-8 -8,-6 -5,-3 -7,1 -6,5 -9,8 -7,9 -4,7 -1,10 -2,14" transform="skewX(0) scale(1,1)" style="stroke:black;stroke-width:1;fill:orange" />
</g>
<g id="turtle2" visibility="visible" transform="rotate(-20218.692000000003,277.146,256.715) translate(277.146, 256.715)">
<polygon points="0,16 2,14 1,10 4,7 7,9 9,8 6,5 7,1 5,-3 8,-6 6,-8 4,-5 0,-7 -4,-5 -6,-8 -8,-6 -5,-3 -7,1 -6,5 -9,8 -7,9 -4,7 -1,10 -2,14" transform="skewX(0) scale(1,1)" style="stroke:black;stroke-width:1;fill:orange" />
</g>
<g id="turtle2" visibility="visible" transform="rotate(-20356.2,207.915,166.194) translate(207.915, 166.194)">
<polygon points="0,16 2,14 1,10 4,7 7,9 9,8 6,5 7,1 5,-3 8,-6 6,-8 4,-5 0,-7 -4,-5 -6,-8 -8,-6 -5,-3 -7,1 -6,5 -9,8 -7,9 -4,7 -1,10 -2,14" transform="skewX(0) scale(1,1)" style="stroke:black;stroke-width:1;fill:orange" />
</g>
<g id="turtle2" visibility="visible" transform="rotate(-20493.708000000002,197.785,280.085) translate(197.785, 280.085)">
<polygon points="0,16 2,14 1,10 4,7 7,9 9,8 6,5 7,1 5,-3 8,-6 6,-8 4,-5 0,-7 -4,-5 -6,-8 -8,-6 -5,-3 -7,1 -6,5 -9,8 -7,9 -4,7 -1,10 -2,14" transform="skewX(0) scale(1,1)" style="stroke:black;stroke-width:1;fill:orange" />
</g>
<g id="turtle2" visibility="visible" transform="rotate(-20631.216,282.466,202.692) translate(282.466, 202.692)">
<polygon points="0,16 2,14 1,10 4,7 7,9 9,8 6,5 7,1 5,-3 8,-6 6,-8 4,-5 0,-7 -4,-5 -6,-8 -8,-6 -5,-3 -7,1 -6,5 -9,8 -7,9 -4,7 -1,10 -2,14" transform="skewX(0) scale(1,1)" style="stroke:black;stroke-width:1;fill:orange" />
</g>
<g id="turtle2" visibility="visible" transform="rotate(-20768.724000000002,167.369,202.558) translate(167.369, 202.558)">
<polygon points="0,16 2,14 1,10 4,7 7,9 9,8 6,5 7,1 5,-3 8,-6 6,-8 4,-5 0,-7 -4,-5 -6,-8 -8,-6 -5,-3 -7,1 -6,5 -9,8 -7,9 -4,7 -1,10 -2,14" transform="skewX(0) scale(1,1)" style="stroke:black;stroke-width:1;fill:orange" />
</g>
<g id="turtle2" visibility="visible" transform="rotate(-20906.232,252.426,280.658) translate(252.426, 280.658)">
<polygon points="0,16 2,14 1,10 4,7 7,9 9,8 6,5 7,1 5,-3 8,-6 6,-8 4,-5 0,-7 -4,-5 -6,-8 -8,-6 -5,-3 -7,1 -6,5 -9,8 -7,9 -4,7 -1,10 -2,14" transform="skewX(0) scale(1,1)" style="stroke:black;stroke-width:1;fill:orange" />
</g>
<g id="turtle2" visibility="visible" transform="rotate(-21043.74,242.43,165.24) translate(242.43, 165.24)">
<polygon points="0,16 2,14 1,10 4,7 7,9 9,8 6,5 7,1 5,-3 8,-6 6,-8 4,-5 0,-7 -4,-5 -6,-8 -8,-6 -5,-3 -7,1 -6,5 -9,8 -7,9 -4,7 -1,10 -2,14" transform="skewX(0) scale(1,1)" style="stroke:black;stroke-width:1;fill:orange" />
</g>
<g id="turtle2" visibility="visible" transform="rotate(-21181.248000000003,171.61,257.396) translate(171.61, 257.396)">
<polygon points="0,16 2,14 1,10 4,7 7,9 9,8 6,5 7,1 5,-3 8,-6 6,-8 4,-5 0,-7 -4,-5 -6,-8 -8,-6 -5,-3 -7,1 -6,5 -9,8 -7,9 -4,7 -1,10 -2,14" transform="skewX(0) scale(1,1)" style="stroke:black;stroke-width:1;fill:orange" />
</g>
<g id="turtle2" visibility="visible" transform="rotate(-21318.756,286.447,237.216) translate(286.447, 237.216)">
<polygon points="0,16 2,14 1,10 4,7 7,9 9,8 6,5 7,1 5,-3 8,-6 6,-8 4,-5 0,-7 -4,-5 -6,-8 -8,-6 -5,-3 -7,1 -6,5 -9,8 -7,9 -4,7 -1,10 -2,14" transform="skewX(0) scale(1,1)" style="stroke:black;stroke-width:1;fill:orange" />
</g>
<g id="turtle2" visibility="visible" transform="rotate(-21456.264000000003,187.824,174.325) translate(187.824, 174.325)">
<polygon points="0,16 2,14 1,10 4,7 7,9 9,8 6,5 7,1 5,-3 8,-6 6,-8 4,-5 0,-7 -4,-5 -6,-8 -8,-6 -5,-3 -7,1 -6,5 -9,8 -7,9 -4,7 -1,10 -2,14" transform="skewX(0) scale(1,1)" style="stroke:black;stroke-width:1;fill:orange" />
</g>
<g id="turtle2" visibility="visible" transform="rotate(-21593.772,218.16,287.675) translate(218.16, 287.675)">
<polygon points="0,16 2,14 1,10 4,7 7,9 9,8 6,5 7,1 5,-3 8,-6 6,-8 4,-5 0,-7 -4,-5 -6,-8 -8,-6 -5,-3 -7,1 -6,5 -9,8 -7,9 -4,7 -1,10 -2,14" transform="skewX(0) scale(1,1)" style="stroke:black;stroke-width:1;fill:orange" />
</g>
<g id="turtle2" visibility="visible" transform="rotate(-21731.280000000002,272.529,183.274) translate(272.529, 183.274)">
<polygon points="0,16 2,14 1,10 4,7 7,9 9,8 6,5 7,1 5,-3 8,-6 6,-8 4,-5 0,-7 -4,-5 -6,-8 -8,-6 -5,-3 -7,1 -6,5 -9,8 -7,9 -4,7 -1,10 -2,14" transform="skewX(0) scale(1,1)" style="stroke:black;stroke-width:1;fill:orange" />
</g>
<g id="turtle2" visibility="visible" transform="rotate(-21868.788,161.571,223.658) translate(161.571, 223.658)">
<polygon points="0,16 2,14 1,10 4,7 7,9 9,8 6,5 7,1 5,-3 8,-6 6,-8 4,-5 0,-7 -4,-5 -6,-8 -8,-6 -5,-3 -7,1 -6,5 -9,8 -7,9 -4,7 -1,10 -2,14" transform="skewX(0) scale(1,1)" style="stroke:black;stroke-width:1;fill:orange" />
</g>
<g id="turtle2" visibility="visible" transform="rotate(-22006.296000000002,271.006,268.971) translate(271.006, 268.971)">
<polygon points="0,16 2,14 1,10 4,7 7,9 9,8 6,5 7,1 5,-3 8,-6 6,-8 4,-5 0,-7 -4,-5 -6,-8 -8,-6 -5,-3 -7,1 -6,5 -9,8 -7,9 -4,7 -1,10 -2,14" transform="skewX(0) scale(1,1)" style="stroke:black;stroke-width:1;fill:orange" />
</g>
<g id="turtle2" visibility="visible" transform="rotate(-22143.804,220.765,161.305) translate(220.765, 161.305)">
<polygon points="0,16 2,14 1,10 4,7 7,9 9,8 6,5 7,1 5,-3 8,-6 6,-8 4,-5 0,-7 -4,-5 -6,-8 -8,-6 -5,-3 -7,1 -6,5 -9,8 -7,9 -4,7 -1,10 -2,14" transform="skewX(0) scale(1,1)" style="stroke:black;stroke-width:1;fill:orange" />
</g>
<g id="turtle2" visibility="visible" transform="rotate(-22281.312,184.975,274.98) translate(184.975, 274.98)">
<polygon points="0,16 2,14 1,10 4,7 7,9 9,8 6,5 7,1 5,-3 8,-6 6,-8 4,-5 0,-7 -4,-5 -6,-8 -8,-6 -5,-3 -7,1 -6,5 -9,8 -7,9 -4,7 -1,10 -2,14" transform="skewX(0) scale(1,1)" style="stroke:black;stroke-width:1;fill:orange" />
</g>
<path fill-rule="evenodd" fill-opacity="1" d="M 288.467 215.152  L 357.139 228.724  L 418.469 194.98  L 349.797 181.408  L 288.467 215.152 " stroke-linecap="round" style="stroke:black;stroke-width:1" fill="yellow" />
<path fill-rule="evenodd" fill-opacity="1" d="M 171.388 189.283  L 129.92 132.888  L 61.903 116.343  L 103.371 172.738  L 171.388 189.283 " stroke-linecap="round" style="stroke:black;stroke-width:1" fill="yellow" />
<path fill-rule="evenodd" fill-opacity="1" d="M 240.452 287.739  L 232.936 357.334  L 271.913 415.478  L 279.429 345.883  L 240.452 287.739 " stroke-linecap="round" style="stroke:black;stroke-width:1" fill="yellow" />
<path fill-rule="evenodd" fill-opacity="1" d="M 256.078 168.131  L 308.631 121.891  L 319.166 52.688  L 266.613 98.928  L 256.078 168.131 " stroke-linecap="round" style="stroke:black;stroke-width:1" fill="yellow" />
<path fill-rule="evenodd" fill-opacity="1" d="M 163.487 246.003  L 93.501 244.601  L 38.987 288.513  L 108.973 289.915  L 163.487 246.003 " stroke-linecap="round" style="stroke:black;stroke-width:1" fill="yellow" />
<path fill-rule="evenodd" fill-opacity="1" d="M 284.721 251.141  L 335.379 299.45  L 405.238 303.894  L 354.58 255.585  L 284.721 251.141 " stroke-linecap="round" style="stroke:black;stroke-width:1" fill="yellow" />
<path fill-rule="evenodd" fill-opacity="1" d="M 198.544 165.208  L 193.822 95.367  L 145.312 44.901  L 150.034 114.742  L 198.544 165.208 " stroke-linecap="round" style="stroke:black;stroke-width:1" fill="yellow" />
<path fill-rule="evenodd" fill-opacity="1" d="M 204.058 287.141  L 160.364 341.829  L 162.045 411.809  L 205.739 357.121  L 204.058 287.141 " stroke-linecap="round" style="stroke:black;stroke-width:1" fill="yellow" />
<path fill-rule="evenodd" fill-opacity="1" d="M 282.584 193.233  L 351.744 182.423  L 397.775 129.686  L 328.615 140.496  L 282.584 193.233 " stroke-linecap="round" style="stroke:black;stroke-width:1" fill="yellow" />
<path fill-rule="evenodd" fill-opacity="1" d="M 160.897 209.482  L 102.598 170.736  L 33.033 178.529  L 91.332 217.275  L 160.897 209.482 " stroke-linecap="round" style="stroke:black;stroke-width:1" fill="yellow" />
<path fill-rule="evenodd" fill-opacity="1" d="M 261.891 279.9  L 278.707 347.85  L 335.266 389.094  L 318.45 321.144  L 261.891 279.9 " stroke-linecap="round" style="stroke:black;stroke-width:1" fill="yellow" />
<path fill-rule="evenodd" fill-opacity="1" d="M 234.91 159.412  L 268.41 97.949  L 254.564 29.332  L 221.064 90.795  L 234.91 159.412 " stroke-linecap="round" style="stroke:black;stroke-width:1" fill="yellow" />
<path fill-rule="evenodd" fill-opacity="1" d="M 173.242 266.787  L 107.022 289.48  L 70.881 349.429  L 137.101 326.736  L 173.242 266.787 " stroke-linecap="round" style="stroke:black;stroke-width:1" fill="yellow" />
<path fill-rule="evenodd" fill-opacity="1" d="M 291.578 229.161  L 355.735 257.159  L 422.879 237.367  L 358.722 209.369  L 291.578 229.161 " stroke-linecap="round" style="stroke:black;stroke-width:1" fill="yellow" />
<path fill-rule="evenodd" fill-opacity="1" d="M 178.588 176.824  L 150.192 112.842  L 87.313 82.081  L 115.709 146.063  L 178.588 176.824 " stroke-linecap="round" style="stroke:black;stroke-width:1" fill="yellow" />
<path fill-rule="evenodd" fill-opacity="1" d="M 226.686 292.061  L 204.405 358.42  L 229.992 423.576  L 252.273 357.217  L 226.686 292.061 " stroke-linecap="round" style="stroke:black;stroke-width:1" fill="yellow" />
<path fill-rule="evenodd" fill-opacity="1" d="M 269.178 174.272  L 330.432 140.391  L 355.577 75.063  L 294.323 108.944  L 269.178 174.272 " stroke-linecap="round" style="stroke:black;stroke-width:1" fill="yellow" />
<path fill-rule="evenodd" fill-opacity="1" d="M 157.974 232.585  L 89.921 216.192  L 27.252 247.378  L 95.305 263.771  L 157.974 232.585 " stroke-linecap="round" style="stroke:black;stroke-width:1" fill="yellow" />
<path fill-rule="evenodd" fill-opacity="1" d="M 279.696 264.791  L 318.803 322.848  L 386.079 342.185  L 346.972 284.128  L 279.696 264.791 " stroke-linecap="round" style="stroke:black;stroke-width:1" fill="yellow" />
<path fill-rule="evenodd" fill-opacity="1" d="M 211.511 158.532  L 221.891 89.306  L 185.345 29.603  L 174.965 98.829  L 211.511 158.532 " stroke-linecap="round" style="stroke:black;stroke-width:1" fill="yellow" />
<path fill-rule="evenodd" fill-opacity="1" d="M 189.953 283.281  L 135.537 327.314  L 122.156 396.023  L 176.572 351.99  L 189.953 283.281 " stroke-linecap="round" style="stroke:black;stroke-width:1" fill="yellow" />
<path fill-rule="evenodd" fill-opacity="1" d="M 290.387 205.646  L 360.256 209.934  L 416.535 168.308  L 346.666 164.02  L 290.387 205.646 " stroke-linecap="round" style="stroke:black;stroke-width:1" fill="yellow" />
<path fill-rule="evenodd" fill-opacity="1" d="M 163.548 195.023  L 114.925 144.666  L 45.309 137.344  L 93.932 187.701  L 163.548 195.023 " stroke-linecap="round" style="stroke:black;stroke-width:1" fill="yellow" />
<path fill-rule="evenodd" fill-opacity="1" d="M 250.131 288.784  L 251.968 358.76  L 298.355 411.184  L 296.518 341.208  L 250.131 288.784 " stroke-linecap="round" style="stroke:black;stroke-width:1" fill="yellow" />
<path fill-rule="evenodd" fill-opacity="1" d="M 249.62 160.822  L 295.533 107.983  L 296.74 37.993  L 250.827 90.832  L 249.62 160.822 " stroke-linecap="round" style="stroke:black;stroke-width:1" fill="yellow" />
<path fill-rule="evenodd" fill-opacity="1" d="M 163.332 255.774  L 93.785 263.723  L 45.618 314.516  L 115.165 306.567  L 163.332 255.774 " stroke-linecap="round" style="stroke:black;stroke-width:1" fill="yellow" />
<path fill-rule="evenodd" fill-opacity="1" d="M 291.434 244.014  L 348.085 285.131  L 417.912 280.214  L 361.261 239.097  L 291.434 244.014 " stroke-linecap="round" style="stroke:black;stroke-width:1" fill="yellow" />
<path fill-rule="evenodd" fill-opacity="1" d="M 188.763 165.95  L 174.764 97.364  L 119.954 53.822  L 133.953 122.408  L 188.763 165.95 " stroke-linecap="round" style="stroke:black;stroke-width:1" fill="yellow" />
<path fill-rule="evenodd" fill-opacity="1" d="M 211.798 293.196  L 175.791 353.225  L 186.795 422.355  L 222.802 362.326  L 211.798 293.196 " stroke-linecap="round" style="stroke:black;stroke-width:1" fill="yellow" />
<path fill-rule="evenodd" fill-opacity="1" d="M 280.945 183.525  L 348.044 163.583  L 386.627 105.176  L 319.528 125.118  L 280.945 183.525 " stroke-linecap="round" style="stroke:black;stroke-width:1" fill="yellow" />
<path fill-rule="evenodd" fill-opacity="1" d="M 155.554 217.774  L 92.606 187.154  L 24.703 204.16  L 87.651 234.78  L 155.554 217.774 " stroke-linecap="round" style="stroke:black;stroke-width:1" fill="yellow" />
<path fill-rule="evenodd" fill-opacity="1" d="M 271.446 277.372  L 297.178 342.471  L 358.735 375.799  L 333.003 310.7  L 271.446 277.372 " stroke-linecap="round" style="stroke:black;stroke-width:1" fill="yellow" />
<path fill-rule="evenodd" fill-opacity="1" d="M 226.132 154.831  L 251.131 89.447  L 228.253 23.291  L 203.254 88.675  L 226.132 154.831 " stroke-linecap="round" style="stroke:black;stroke-width:1" fill="yellow" />
<path fill-rule="evenodd" fill-opacity="1" d="M 176.645 276.106  L 114.045 307.432  L 86.227 371.667  L 148.827 340.341  L 176.645 276.106 " stroke-linecap="round" style="stroke:black;stroke-width:1" fill="yellow" />
<path fill-rule="evenodd" fill-opacity="1" d="M 295.354 219.967  L 362.673 239.154  L 426.575 210.58  L 359.256 191.393  L 295.354 219.967 " stroke-linecap="round" style="stroke:black;stroke-width:1" fill="yellow" />
</svg>