<svg width="600" height="400" viewBox="0 0 600 400" xmlns="http://www.w3.org/2000/svg">
<rect width="100%" height="100%" style="fill:white;stroke:;stroke-width:1" />
<line x1="0.0" y1="200.0" x2="600.0" y2="200.0" stroke-lineca="round" style="stroke:black;stroke-width:1" />
<line x1="300.0" y1="400.0" x2="300.0" y2="0.0" stroke-lineca="round" style="stroke:black;stroke-width:1" />
<line x1="0.0" y1="283.907" x2="0.0" y2="283.907" stroke-linecap="round" style="stroke:black;stroke-width:1" />
<line x1="0.0" y1="283.907" x2="3.0" y2="288.919" stroke-linecap="round" style="stroke:black;stroke-width:1" />
<line x1="3.0" y1="288.919" x2="6.0" y2="293.043" stroke-linecap="round" style="stroke:black;stroke-width:1" />
<line x1="6.0" y1="293.043" x2="9.0" y2="296.236" stroke-linecap="round" style="stroke:black;stroke-width:1" />
<line x1="9.0" y1="296.236" x2="12.0" y2="298.469" stroke-linecap="round" style="stroke:black;stroke-width:1" />
<line x1="12.0" y1="298.469" x2="15.0" y2="299.717" stroke-linecap="round" style="stroke:black;stroke-width:1" />
<line x1="15.0" y1="299.717" x2="18.0" y2="299.969" stroke-linecap="round" style="stroke:black;stroke-width:1" />
<line x1="18.0" y1="299.969" x2="21.0" y2="299.223" stroke-linecap="round" style="stroke:black;stroke-width:1" />
<line x1="21.0" y1="299.223" x2="24.0" y2="297.484" stroke-linecap="round" style="stroke:black;stroke-width:1" />
<line x1="24.0" y1="297.484" x2="27.0" y2="294.772" stroke-linecap="round" style="stroke:black;stroke-width:1" />
<line x1="27.0" y1="294.772" x2="30.0" y2="291.113" stroke-linecap="round" style="stroke:black;stroke-width:1" />
<line x1="30.0" y1="291.113" x2="33.0" y2="286.544" stroke-linecap="round" style="stroke:black;stroke-width:1" />
<line x1="33.0" y1="286.544" x2="36.0" y2="281.109" stroke-linecap="round" style="stroke:black;stroke-width:1" />
<line x1="36.0" y1="281.109" x2="39.0" y2="274.865" stroke-linecap="round" style="stroke:black;stroke-width:1" />
<line x1="39.0" y1="274.865" x2="42.0" y2="267.872" stroke-linecap="round" style="stroke:black;stroke-width:1" />
<line x1="42.0" y1="267.872" x2="45.0" y2="260.201" stroke-linecap="round" style="stroke:black;stroke-width:1" />
<line x1="45.0" y1="260.201" x2="48.0" y2="251.929" stroke-linecap="round" style="stroke:black;stroke-width:1" />
<line x1="48.0" y1="251.929" x2="51.0" y2="243.138" stroke-linecap="round" style="stroke:black;stroke-width:1" />
<line x1="51.0" y1="243.138" x2="54.0" y2="233.915" stroke-linecap="round" style="stroke:black;stroke-width:1" />
<line x1="54.0" y1="233.915" x2="57.0" y2="224.354" stroke-linecap="round" style="stroke:black;stroke-width:1" />
<line x1="57.0" y1="224.354" x2="60.0" y2="214.55" stroke-linecap="round" style="stroke:black;stroke-width:1" />
<line x1="60.0" y1="214.55" x2="63.0" y2="204.6" stroke-linecap="round" style="stroke:black;stroke-width:1" />
<line x1="63.0" y1="204.6" x2="66.0" y2="194.604" stroke-linecap="round" style="stroke:black;stroke-width:1" />
<line x1="66.0" y1="194.604" x2="69.0" y2="184.663" stroke-linecap="round" style="stroke:black;stroke-width:1" />
<line x1="69.0" y1="184.663" x2="72.0" y2="174.874" stroke-linecap="round" style="stroke:black;stroke-width:1" />
<line x1="72.0" y1="174.874" x2="75.0" y2="165.336" stroke-linecap="round" style="stroke:black;stroke-width:1" />
<line x1="75.0" y1="165.336" x2="78.0" y2="156.145" stroke-linecap="round" style="stroke:black;stroke-width:1" />
<line x1="78.0" y1="156.145" x2="81.0" y2="147.392" stroke-linecap="round" style="stroke:black;stroke-width:1" />
<line x1="81.0" y1="147.392" x2="84.0" y2="139.165" stroke-linecap="round" style="stroke:black;stroke-width:1" />
<line x1="84.0" y1="139.165" x2="87.0" y2="131.545" stroke-linecap="round" style="stroke:black;stroke-width:1" />
<line x1="87.0" y1="131.545" x2="90.0" y2="124.61" stroke-linecap="round" style="stroke:black;stroke-width:1" />
<line x1="90.0" y1="124.61" x2="93.0" y2="118.427" stroke-linecap="round" style="stroke:black;stroke-width:1" />
<line x1="93.0" y1="118.427" x2="96.0" y2="113.06" stroke-linecap="round" style="stroke:black;stroke-width:1" />
<line x1="96.0" y1="113.06" x2="99.0" y2="108.562" stroke-linecap="round" style="stroke:black;stroke-width:1" />
<line x1="99.0" y1="108.562" x2="102.0" y2="104.977" stroke-linecap="round" style="stroke:black;stroke-width:1" />
<line x1="102.0" y1="104.977" x2="105.0" y2="102.341" stroke-linecap="round" style="stroke:black;stroke-width:1" />
<line x1="105.0" y1="102.341" x2="108.0" y2="100.682" stroke-linecap="round" style="stroke:black;stroke-width:1" />
<line x1="108.0" y1="100.682" x2="111.0" y2="100.014" stroke-linecap="round" style="stroke:black;stroke-width:1" />
<line x1="111.0" y1="100.014" x2="114.0" y2="100.346" stroke-linecap="round" style="stroke:black;stroke-width:1" />
<line x1="114.0" y1="100.346" x2="117.0" y2="101.673" stroke-linecap="round" style="stroke:black;stroke-width:1" />
<line x1="117.0" y1="101.673" x2="120.0" y2="103.983" stroke-linecap="round" style="stroke:black;stroke-width:1" />
<line x1="120.0" y1="103.983" x2="123.0" y2="107.252" stroke-linecap="round" style="stroke:black;stroke-width:1" />
<line x1="123.0" y1="107.252" x2="126.0" y2="111.448" stroke-linecap="round" style="stroke:black;stroke-width:1" />
<line x1="126.0" y1="111.448" x2="129.0" y2="116.529" stroke-linecap="round" style="stroke:black;stroke-width:1" />
<line x1="129.0" y1="116.529" x2="132.0" y2="122.443" stroke-linecap="round" style="stroke:black;stroke-width:1" />
<line x1="132.0" y1="122.443" x2="135.0" y2="129.133" stroke-linecap="round" style="stroke:black;stroke-width:1" />
<line x1="135.0" y1="129.133" x2="138.0" y2="136.531" stroke-linecap="round" style="stroke:black;stroke-width:1" />
<line x1="138.0" y1="136.531" x2="141.0" y2="144.563" stroke-linecap="round" style="stroke:black;stroke-width:1" />
<line x1="141.0" y1="144.563" x2="144.0" y2="153.148" stroke-linecap="round" style="stroke:black;stroke-width:1" />
<line x1="144.0" y1="153.148" x2="147.0" y2="162.202" stroke-linecap="round" style="stroke:black;stroke-width:1" />
<line x1="147.0" y1="162.202" x2="150.0" y2="171.634" stroke-linecap="round" style="stroke:black;stroke-width:1" />
<line x1="150.0" y1="171.634" x2="153.0" y2="181.349" stroke-linecap="round" style="stroke:black;stroke-width:1" />
<line x1="153.0" y1="181.349" x2="156.0" y2="191.25" stroke-linecap="round" style="stroke:black;stroke-width:1" />
<line x1="156.0" y1="191.25" x2="159.0" y2="201.239" stroke-linecap="round" style="stroke:black;stroke-width:1" />
<line x1="159.0" y1="201.239" x2="162.0" y2="211.215" stroke-linecap="round" style="stroke:black;stroke-width:1" />
<line x1="162.0" y1="211.215" x2="165.0" y2="221.08" stroke-linecap="round" style="stroke:black;stroke-width:1" />
<line x1="165.0" y1="221.08" x2="168.0" y2="230.733" stroke-linecap="round" style="stroke:black;stroke-width:1" />
<line x1="168.0" y1="230.733" x2="171.0" y2="240.08" stroke-linecap="round" style="stroke:black;stroke-width:1" />
<line x1="171.0" y1="240.08" x2="174.0" y2="249.026" stroke-linecap="round" style="stroke:black;stroke-width:1" />
<line x1="174.0" y1="249.026" x2="177.0" y2="257.482" stroke-linecap="round" style="stroke:black;stroke-width:1" />
<line x1="177.0" y1="257.482" x2="180.0" y2="265.364" stroke-linecap="round" style="stroke:black;stroke-width:1" />
<line x1="180.0" y1="265.364" x2="183.0" y2="272.593" stroke-linecap="round" style="stroke:black;stroke-width:1" />
<line x1="183.0" y1="272.593" x2="186.0" y2="279.097" stroke-linecap="round" style="stroke:black;stroke-width:1" />
<line x1="186.0" y1="279.097" x2="189.0" y2="284.81" stroke-linecap="round" style="stroke:black;stroke-width:1" />
<line x1="189.0" y1="284.81" x2="192.0" y2="289.676" stroke-linecap="round" style="stroke:black;stroke-width:1" />
<line x1="192.0" y1="289.676" x2="195.0" y2="293.646" stroke-linecap="round" style="stroke:black;stroke-width:1" />
<line x1="195.0" y1="293.646" x2="198.0" y2="296.68" stroke-linecap="round" style="stroke:black;stroke-width:1" />
<line x1="198.0" y1="296.68" x2="201.0" y2="298.748" stroke-linecap="round" style="stroke:black;stroke-width:1" />
<line x1="201.0" y1="298.748" x2="204.0" y2="299.829" stroke-linecap="round" style="stroke:black;stroke-width:1" />
<line x1="204.0" y1="299.829" x2="207.0" y2="299.914" stroke-linecap="round" style="stroke:black;stroke-width:1" />
<line x1="207.0" y1="299.914" x2="210.0" y2="298.999" stroke-linecap="round" style="stroke:black;stroke-width:1" />
<line x1="210.0" y1="298.999" x2="213.0" y2="297.096" stroke-linecap="round" style="stroke:black;stroke-width:1" />
<line x1="213.0" y1="297.096" x2="216.0" y2="294.222" stroke-linecap="round" style="stroke:black;stroke-width:1" />
<line x1="216.0" y1="294.222" x2="219.0" y2="290.407" stroke-linecap="round" style="stroke:black;stroke-width:1" />
<line x1="219.0" y1="290.407" x2="222.0" y2="285.689" stroke-linecap="round" style="stroke:black;stroke-width:1" />
<line x1="222.0" y1="285.689" x2="225.0" y2="280.114" stroke-linecap="round" style="stroke:black;stroke-width:1" />
<line x1="225.0" y1="280.114" x2="228.0" y2="273.739" stroke-linecap="round" style="stroke:black;stroke-width:1" />
<line x1="228.0" y1="273.739" x2="231.0" y2="266.628" stroke-linecap="round" style="stroke:black;stroke-width:1" />
<line x1="231.0" y1="266.628" x2="234.0" y2="258.85" stroke-linecap="round" style="stroke:black;stroke-width:1" />
<line x1="234.0" y1="258.85" x2="237.0" y2="250.485" stroke-linecap="round" style="stroke:black;stroke-width:1" />
<line x1="237.0" y1="250.485" x2="240.0" y2="241.615" stroke-linecap="round" style="stroke:black;stroke-width:1" />
<line x1="240.0" y1="241.615" x2="243.0" y2="232.329" stroke-linecap="round" style="stroke:black;stroke-width:1" />
<line x1="243.0" y1="232.329" x2="246.0" y2="222.72" stroke-linecap="round" style="stroke:black;stroke-width:1" />
<line x1="246.0" y1="222.72" x2="249.0" y2="212.884" stroke-linecap="round" style="stroke:black;stroke-width:1" />
<line x1="249.0" y1="212.884" x2="252.0" y2="202.92" stroke-linecap="round" style="stroke:black;stroke-width:1" />
<line x1="252.0" y1="202.92" x2="255.0" y2="192.926" stroke-linecap="round" style="stroke:black;stroke-width:1" />
<line x1="255.0" y1="192.926" x2="258.0" y2="183.003" stroke-linecap="round" style="stroke:black;stroke-width:1" />
<line x1="258.0" y1="183.003" x2="261.0" y2="173.25" stroke-linecap="round" style="stroke:black;stroke-width:1" />
<line x1="261.0" y1="173.25" x2="264.0" y2="163.764" stroke-linecap="round" style="stroke:black;stroke-width:1" />
<line x1="264.0" y1="163.764" x2="267.0" y2="154.64" stroke-linecap="round" style="stroke:black;stroke-width:1" />
<line x1="267.0" y1="154.64" x2="270.0" y2="145.97" stroke-linecap="round" style="stroke:black;stroke-width:1" />
<line x1="270.0" y1="145.97" x2="273.0" y2="137.839" stroke-linecap="round" style="stroke:black;stroke-width:1" />
<line x1="273.0" y1="137.839" x2="276.0" y2="130.329" stroke-linecap="round" style="stroke:black;stroke-width:1" />
<line x1="276.0" y1="130.329" x2="279.0" y2="123.516" stroke-linecap="round" style="stroke:black;stroke-width:1" />
<line x1="279.0" y1="123.516" x2="282.0" y2="117.466" stroke-linecap="round" style="stroke:black;stroke-width:1" />
<line x1="282.0" y1="117.466" x2="285.0" y2="112.242" stroke-linecap="round" style="stroke:black;stroke-width:1" />
<line x1="285.0" y1="112.242" x2="288.0" y2="107.894" stroke-linecap="round" style="stroke:black;stroke-width:1" />
<line x1="288.0" y1="107.894" x2="291.0" y2="104.466" stroke-linecap="round" style="stroke:black;stroke-width:1" />
<line x1="291.0" y1="104.466" x2="294.0" y2="101.993" stroke-linecap="round" style="stroke:black;stroke-width:1" />
<line x1="294.0" y1="101.993" x2="297.0" y2="100.5" stroke-linecap="round" style="stroke:black;stroke-width:1" />
<line x1="297.0" y1="100.5" x2="300.0" y2="100.0" stroke-linecap="round" style="stroke:black;stroke-width:1" />
<line x1="300.0" y1="100.0" x2="303.0" y2="100.5" stroke-linecap="round" style="stroke:black;stroke-width:1" />
<line x1="303.0" y1="100.5" x2="306.0" y2="101.993" stroke-linecap="round" style="stroke:black;stroke-width:1" />
<line x1="306.0" y1="101.993" x2="309.0" y2="104.466" stroke-linecap="round" style="stroke:black;stroke-width:1" />
<line x1="309.0" y1="104.466" x2="312.0" y2="107.894" stroke-linecap="round" style="stroke:black;stroke-width:1" />
<line x1="312.0" y1="107.894" x2="315.0" y2="112.242" stroke-linecap="round" style="stroke:black;stroke-width:1" />
<line x1="315.0" y1="112.242" x2="318.0" y2="117.466" stroke-linecap="round" style="stroke:black;stroke-width:1" />
<line x1="318.0" y1="117.466" x2="321.0" y2="123.516" stroke-linecap="round" style="stroke:black;stroke-width:1" />
<line x1="321.0" y1="123.516" x2="324.0" y2="130.329" stroke-linecap="round" style="stroke:black;stroke-width:1" />
<line x1="324.0" y1="130.329" x2="327.0" y2="137.839" stroke-linecap="round" style="stroke:black;stroke-width:1" />
<line x1="327.0" y1="137.839" x2="330.0" y2="145.97" stroke-linecap="round" style="stroke:black;stroke-width:1" />
<line x1="330.0" y1="145.97" x2="333.0" y2="154.64" stroke-linecap="round" style="stroke:black;stroke-width:1" />
<line x1="333.0" y1="154.64" x2="336.0" y2="163.764" stroke-linecap="round" style="stroke:black;stroke-width:1" />
<line x1="336.0" y1="163.764" x2="339.0" y2="173.25" stroke-linecap="round" style="stroke:black;stroke-width:1" />
<line x1="339.0" y1="173.25" x2="342.0" y2="183.003" stroke-linecap="round" style="stroke:black;stroke-width:1" />
<line x1="342.0" y1="183.003" x2="345.0" y2="192.926" stroke-linecap="round" style="stroke:black;stroke-width:1" />
<line x1="345.0" y1="192.926" x2="348.0" y2="202.92" stroke-linecap="round" style="stroke:black;stroke-width:1" />
<line x1="348.0" y1="202.92" x2="351.0" y2="212.884" stroke-linecap="round" style="stroke:black;stroke-width:1" />
<line x1="351.0" y1="212.884" x2="354.0" y2="222.72" stroke-linecap="round" style="stroke:black;stroke-width:1" />
<line x1="354.0" y1="222.72" x2="357.0" y2="232.329" stroke-linecap="round" style="stroke:black;stroke-width:1" />
<line x1="357.0" y1="232.329" x2="360.0" y2="241.615" stroke-linecap="round" style="stroke:black;stroke-width:1" />
<line x1="360.0" y1="241.615" x2="363.0" y2="250.485" stroke-linecap="round" style="stroke:black;stroke-width:1" />
<line x1="363.0" y1="250.485" x2="366.0" y2="258.85" stroke-linecap="round" style="stroke:black;stroke-width:1" />
<line x1="366.0" y1="258.85" x2="369.0" y2="266.628" stroke-linecap="round" style="stroke:black;stroke-width:1" />
<line x1="369.0" y1="266.628" x2="372.0" y2="273.739" stroke-linecap="round" style="stroke:black;stroke-width:1" />
<line x1="372.0" y1="273.739" x2="375.0" y2="280.114" stroke-linecap="round" style="stroke:black;stroke-width:1" />
<line x1="375.0" y1="280.114" x2="378.0" y2="285.689" stroke-linecap="round" style="stroke:black;stroke-width:1" />
<line x1="378.0" y1="285.689" x2="381.0" y2="290.407" stroke-linecap="round" style="stroke:black;stroke-width:1" />
<line x1="381.0" y1="290.407" x2="384.0" y2="294.222" stroke-linecap="round" style="stroke:black;stroke-width:1" />
<line x1="384.0" y1="294.222" x2="387.0" y2="297.096" stroke-linecap="round" style="stroke:black;stroke-width:1" />
<line x1="387.0" y1="297.096" x2="390.0" y2="298.999" stroke-linecap="round" style="stroke:black;stroke-width:1" />
<line x1="390.0" y1="298.999" x2="393.0" y2="299.914" stroke-linecap="round" style="stroke:black;stroke-width:1" />
<line x1="393.0" y1="299.914" x2="396.0" y2="299.829" stroke-linecap="round" style="stroke:black;stroke-width:1" />
<line x1="396.0" y1="299.829" x2="399.0" y2="298.748" stroke-linecap="round" style="stroke:black;stroke-width:1" />
<line x1="399.0" y1="298.748" x2="402.0" y2="296.68" stroke-linecap="round" style="stroke:black;stroke-width:1" />
<line x1="402.0" y1="296.68" x2="405.0" y2="293.646" stroke-linecap="round" style="stroke:black;stroke-width:1" />
<line x1="405.0" y1="293.646" x2="408.0" y2="289.676" stroke-linecap="round" style="stroke:black;stroke-width:1" />
<line x1="408.0" y1="289.676" x2="411.0" y2="284.81" stroke-linecap="round" style="stroke:black;stroke-width:1" />
<line x1="411.0" y1="284.81" x2="414.0" y2="279.097" stroke-linecap="round" style="stroke:black;stroke-width:1" />
<line x1="414.0" y1="279.097" x2="417.0" y2="272.593" stroke-linecap="round" style="stroke:black;stroke-width:1" />
<line x1="417.0" y1="272.593" x2="420.0" y2="265.364" stroke-linecap="round" style="stroke:black;stroke-width:1" />
<line x1="420.0" y1="265.364" x2="423.0" y2="257.482" stroke-linecap="round" style="stroke:black;stroke-width:1" />
<line x1="423.0" y1="257.482" x2="426.0" y2="249.026" stroke-linecap="round" style="stroke:black;stroke-width:1" />
<line x1="426.0" y1="249.026" x2="429.0" y2="240.08" stroke-linecap="round" style="stroke:black;stroke-width:1" />
<line x1="429.0" y1="240.08" x2="432.0" y2="230.733" stroke-linecap="round" style="stroke:black;stroke-width:1" />
<line x1="432.0" y1="230.733" x2="435.0" y2="221.08" stroke-linecap="round" style="stroke:black;stroke-width:1" />
<line x1="435.0" y1="221.08" x2="438.0" y2="211.215" stroke-linecap="round" style="stroke:black;stroke-width:1" />
<line x1="438.0" y1="211.215" x2="441.0" y2="201.239" stroke-linecap="round" style="stroke:black;stroke-width:1" />
<line x1="441.0" y1="201.239" x2="444.0" y2="191.25" stroke-linecap="round" style="stroke:black;stroke-width:1" />
<line x1="444.0" y1="191.25" x2="447.0" y2="181.349" stroke-linecap="round" style="stroke:black;stroke-width:1" />
<line x1="447.0" y1="181.349" x2="450.0" y2="171.634" stroke-linecap="round" style="stroke:black;stroke-width:1" />
<line x1="450.0" y1="171.634" x2="453.0" y2="162.202" stroke-linecap="round" style="stroke:black;stroke-width:1" />
<line x1="453.0" y1="162.202" x2="456.0" y2="153.148" stroke-linecap="round" style="stroke:black;stroke-width:1" />
<line x1="456.0" y1="153.148" x2="459.0" y2="144.563" stroke-linecap="round" style="stroke:black;stroke-width:1" />
<line x1="459.0" y1="144.563" x2="462.0" y2="136.531" stroke-linecap="round" style="stroke:black;stroke-width:1" />
<line x1="462.0" y1="136.531" x2="465.0" y2="129.133" stroke-linecap="round" style="stroke:black;stroke-width:1" />
<line x1="465.0" y1="129.133" x2="468.0" y2="122.443" stroke-linecap="round" style="stroke:black;stroke-width:1" />
<line x1="468.0" y1="122.443" x2="471.0" y2="116.529" stroke-linecap="round" style="stroke:black;stroke-width:1" />
<line x1="471.0" y1="116.529" x2="474.0" y2="111.448" stroke-linecap="round" style="stroke:black;stroke-width:1" />
<line x1="474.0" y1="111.448" x2="477.0" y2="107.252" stroke-linecap="round" style="stroke:black;stroke-width:1" />
<line x1="477.0" y1="107.252" x2="480.0" y2="103.983" stroke-linecap="round" style="stroke:black;stroke-width:1" />
<line x1="480.0" y1="103.983" x2="483.0" y2="101.673" stroke-linecap="round" style="stroke:black;stroke-width:1" />
<line x1="483.0" y1="101.673" x2="486.0" y2="100.346" stroke-linecap="round" style="stroke:black;stroke-width:1" />
<line x1="486.0" y1="100.346" x2="489.0" y2="100.014" stroke-linecap="round" style="stroke:black;stroke-width:1" />
<line x1="489.0" y1="100.014" x2="492.0" y2="100.682" stroke-linecap="round" style="stroke:black;stroke-width:1" />
<line x1="492.0" y1="100.682" x2="495.0" y2="102.341" stroke-linecap="round" style="stroke:black;stroke-width:1" />
<line x1="495.0" y1="102.341" x2="498.0" y2="104.977" stroke-linecap="round" style="stroke:black;stroke-width:1" />
<line x1="498.0" y1="104.977" x2="501.0" y2="108.562" stroke-linecap="round" style="stroke:black;stroke-width:1" />
<line x1="501.0" y1="108.562" x2="504.0" y2="113.06" stroke-linecap="round" style="stroke:black;stroke-width:1" />
<line x1="504.0" y1="113.06" x2="507.0" y2="118.427" stroke-linecap="round" style="stroke:black;stroke-width:1" />
<line x1="507.0" y1="118.427" x2="510.0" y2="124.61" stroke-linecap="round" style="stroke:black;stroke-width:1" />
<line x1="510.0" y1="124.61" x2="513.0" y2="131.545" stroke-linecap="round" style="stroke:black;stroke-width:1" />
<line x1="513.0" y1="131.545" x2="516.0" y2="139.165" stroke-linecap="round" style="stroke:black;stroke-width:1" />
<line x1="516.0" y1="139.165" x2="519.0" y2="147.392" stroke-linecap="round" style="stroke:black;stroke-width:1" />
<line x1="519.0" y1="147.392" x2="522.0" y2="156.145" stroke-linecap="round" style="stroke:black;stroke-width:1" />
<line x1="522.0" y1="156.145" x2="525.0" y2="165.336" stroke-linecap="round" style="stroke:black;stroke-width:1" />
<line x1="525.0" y1="165.336" x2="528.0" y2="174.874" stroke-linecap="round" style="stroke:black;stroke-width:1" />
<line x1="528.0" y1="174.874" x2="531.0" y2="184.663" stroke-linecap="round" style="stroke:black;stroke-width:1" />
<line x1="531.0" y1="184.663" x2="534.0" y2="194.604" stroke-linecap="round" style="stroke:black;stroke-width:1" />
<line x1="534.0" y1="194.604" x2="537.0" y2="204.6" stroke-linecap="round" style="stroke:black;stroke-width:1" />
<line x1="537.0" y1="204.6" x2="540.0" y2="214.55" stroke-linecap="round" style="stroke:black;stroke-width:1" />
<line x1="540.0" y1="214.55" x2="543.0" y2="224.354" stroke-linecap="round" style="stroke:black;stroke-width:1" />
<line x1="543.0" y1="224.354" x2="546.0" y2="233.915" stroke-linecap="round" style="stroke:black;stroke-width:1" />
<line x1="546.0" y1="233.915" x2="549.0" y2="243.138" stroke-linecap="round" style="stroke:black;stroke-width:1" />
<line x1="549.0" y1="243.138" x2="552.0" y2="251.929" stroke-linecap="round" style="stroke:black;stroke-width:1" />
<line x1="552.0" y1="251.929" x2="555.0" y2="260.201" stroke-linecap="round" style="stroke:black;stroke-width:1" />
<line x1="555.0" y1="260.201" x2="558.0" y2="267.872" stroke-linecap="round" style="stroke:black;stroke-width:1" />
<line x1="558.0" y1="267.872" x2="561.0" y2="274.865" stroke-linecap="round" style="stroke:black;stroke-width:1" />
<line x1="561.0" y1="274.865" x2="564.0" y2="281.109" stroke-linecap="round" style="stroke:black;stroke-width:1" />
<line x1="564.0" y1="281.109" x2="567.0" y2="286.544" stroke-linecap="round" style="stroke:black;stroke-width:1" />
<line x1="567.0" y1="286.544" x2="570.0" y2="291.113" stroke-linecap="round" style="stroke:black;stroke-width:1" />
<line x1="570.0" y1="291.113" x2="573.0" y2="294.772" stroke-linecap="round" style="stroke:black;stroke-width:1" />
<line x1="573.0" y1="294.772" x2="576.0" y2="297.484" stroke-linecap="round" style="stroke:black;stroke-width:1" />
<line x1="576.0" y1="297.484" x2="579.0" y2="299.223" stroke-linecap="round" style="stroke:black;stroke-width:1" />
<line x1="579.0" y1="299.223" x2="582.0" y2="299.969" stroke-linecap="round" style="stroke:black;stroke-width:1" />
<line x1="582.0" y1="299.969" x2="585.0" y2="299.717" stroke-linecap="round" style="stroke:black;stroke-width:1" />
<line x1="585.0" y1="299.717" x2="588.0" y2="298.469" stroke-linecap="round" style="stroke:black;stroke-width:1" />
<line x1="588.0" y1="298.469" x2="591.0" y2="296.236" stroke-linecap="round" style="stroke:black;stroke-width:1" />
<line x1="591.0" y1="296.236" x2="594.0" y2="293.043" stroke-linecap="round" style="stroke:black;stroke-width:1" />
<line x1="594.0" y1="293.043" x2="597.0" y2="288.919" stroke-linecap="round" style="stroke:black;stroke-width:1" />
</svg>