<svg width="300" height="259" viewBox="0 0 300 259" xmlns="http://www.w3.org/2000/svg">
<rect width="100%" height="100%" style="fill:white;stroke:gray;stroke-width:1" />
<line x1="13.636" y1="245.455" x2="47.727" y2="245.455" stroke-linecap="round" style="stroke:red;stroke-width:1" />
<line x1="47.727" y1="245.455" x2="30.682" y2="215.931" stroke-linecap="round" style="stroke:red;stroke-width:1" />
<line x1="30.682" y1="215.931" x2="64.773" y2="215.931" stroke-linecap="round" style="stroke:red;stroke-width:1" />
<line x1="64.773" y1="215.931" x2="47.728" y2="245.455" stroke-linecap="round" style="stroke:red;stroke-width:1" />
<line x1="47.728" y1="245.455" x2="81.819" y2="245.455" stroke-linecap="round" style="stroke:red;stroke-width:1" />
<line x1="81.819" y1="245.455" x2="64.774" y2="215.931" stroke-linecap="round" style="stroke:red;stroke-width:1" />
<line x1="64.774" y1="215.931" x2="47.729" y2="245.455" stroke-linecap="round" style="stroke:red;stroke-width:1" />
<line x1="47.729" y1="245.455" x2="30.684" y2="215.931" stroke-linecap="round" style="stroke:red;stroke-width:1" />
<line x1="30.684" y1="215.931" x2="64.775" y2="215.931" stroke-linecap="round" style="stroke:red;stroke-width:1" />
<line x1="64.775" y1="215.931" x2="47.73" y2="186.407" stroke-linecap="round" style="stroke:red;stroke-width:1" />
<line x1="47.73" y1="186.407" x2="81.821" y2="186.407" stroke-linecap="round" style="stroke:red;stroke-width:1" />
<line x1="81.821" y1="186.407" x2="64.776" y2="156.883" stroke-linecap="round" style="stroke:red;stroke-width:1" />
<line x1="64.776" y1="156.883" x2="98.867" y2="156.883" stroke-linecap="round" style="stroke:red;stroke-width:1" />
<line x1="98.867" y1="156.883" x2="81.822" y2="186.407" stroke-linecap="round" style="stroke:red;stroke-width:1" />
<line x1="81.822" y1="186.407" x2="115.913" y2="186.407" stroke-linecap="round" style="stroke:red;stroke-width:1" />
<line x1="115.913" y1="186.407" x2="98.868" y2="215.931" stroke-linecap="round" style="stroke:red;stroke-width:1" />
<line x1="98.868" y1="215.931" x2="132.959" y2="215.931" stroke-linecap="round" style="stroke:red;stroke-width:1" />
<line x1="132.959" y1="215.931" x2="115.914" y2="245.455" stroke-linecap="round" style="stroke:red;stroke-width:1" />
<line x1="115.914" y1="245.455" x2="98.869" y2="215.931" stroke-linecap="round" style="stroke:red;stroke-width:1" />
<line x1="98.869" y1="215.931" x2="81.824" y2="245.455" stroke-linecap="round" style="stroke:red;stroke-width:1" />
<line x1="81.824" y1="245.455" x2="115.915" y2="245.455" stroke-linecap="round" style="stroke:red;stroke-width:1" />
<line x1="115.915" y1="245.455" x2="98.87" y2="215.931" stroke-linecap="round" style="stroke:red;stroke-width:1" />
<line x1="98.87" y1="215.931" x2="132.961" y2="215.931" stroke-linecap="round" style="stroke:red;stroke-width:1" />
<line x1="132.961" y1="215.931" x2="115.916" y2="245.455" stroke-linecap="round" style="stroke:red;stroke-width:1" />
<line x1="115.916" y1="245.455" x2="150.007" y2="245.455" stroke-linecap="round" style="stroke:red;stroke-width:1" />
<line x1="150.007" y1="245.455" x2="132.962" y2="215.931" stroke-linecap="round" style="stroke:red;stroke-width:1" />
<line x1="132.962" y1="215.931" x2="115.917" y2="245.455" stroke-linecap="round" style="stroke:red;stroke-width:1" />
<line x1="115.917" y1="245.455" x2="98.872" y2="215.931" stroke-linecap="round" style="stroke:red;stroke-width:1" />
<line x1="98.872" y1="215.931" x2="132.963" y2="215.931" stroke-linecap="round" style="stroke:red;stroke-width:1" />
<line x1="132.963" y1="215.931" x2="115.918" y2="186.407" stroke-linecap="round" style="stroke:red;stroke-width:1" />
<line x1="115.918" y1="186.407" x2="98.873" y2="215.931" stroke-linecap="round" style="stroke:red;stroke-width:1" />
<line x1="98.873" y1="215.931" x2="132.964" y2="215.931" stroke-linecap="round" style="stroke:red;stroke-width:1" />
<line x1="132.964" y1="215.931" x2="115.919" y2="245.455" stroke-linecap="round" style="stroke:red;stroke-width:1" />
<line x1="115.919" y1="245.455" x2="98.874" y2="215.931" stroke-linecap="round" style="stroke:red;stroke-width:1" />
<line x1="98.874" y1="215.931" x2="81.829" y2="245.455" stroke-linecap="round" style="stroke:red;stroke-width:1" />
<line x1="81.829" y1="245.455" x2="64.784" y2="215.931" stroke-linecap="round" style="stroke:red;stroke-width:1" />
<line x1="64.784" y1="215.931" x2="47.739" y2="245.455" stroke-linecap="round" style="stroke:red;stroke-width:1" />
<line x1="47.739" y1="245.455" x2="30.694" y2="215.931" stroke-linecap="round" style="stroke:red;stroke-width:1" />
<line x1="30.694" y1="215.931" x2="64.785" y2="215.931" stroke-linecap="round" style="stroke:red;stroke-width:1" />
<line x1="64.785" y1="215.931" x2="47.74" y2="186.407" stroke-linecap="round" style="stroke:red;stroke-width:1" />
<line x1="47.74" y1="186.407" x2="81.831" y2="186.407" stroke-linecap="round" style="stroke:red;stroke-width:1" />
<line x1="81.831" y1="186.407" x2="64.786" y2="156.883" stroke-linecap="round" style="stroke:red;stroke-width:1" />
<line x1="64.786" y1="156.883" x2="98.877" y2="156.883" stroke-linecap="round" style="stroke:red;stroke-width:1" />
<line x1="98.877" y1="156.883" x2="81.832" y2="186.407" stroke-linecap="round" style="stroke:red;stroke-width:1" />
<line x1="81.832" y1="186.407" x2="115.923" y2="186.407" stroke-linecap="round" style="stroke:red;stroke-width:1" />
<line x1="115.923" y1="186.407" x2="98.878" y2="156.883" stroke-linecap="round" style="stroke:red;stroke-width:1" />
<line x1="98.878" y1="156.883" x2="81.833" y2="186.407" stroke-linecap="round" style="stroke:red;stroke-width:1" />
<line x1="81.833" y1="186.407" x2="64.788" y2="156.883" stroke-linecap="round" style="stroke:red;stroke-width:1" />
<line x1="64.788" y1="156.883" x2="98.879" y2="156.883" stroke-linecap="round" style="stroke:red;stroke-width:1" />
<line x1="98.879" y1="156.883" x2="81.834" y2="127.359" stroke-linecap="round" style="stroke:red;stroke-width:1" />
<line x1="81.834" y1="127.359" x2="115.925" y2="127.359" stroke-linecap="round" style="stroke:red;stroke-width:1" />
<line x1="115.925" y1="127.359" x2="98.88" y2="97.835" stroke-linecap="round" style="stroke:red;stroke-width:1" />
<line x1="98.88" y1="97.835" x2="132.971" y2="97.835" stroke-linecap="round" style="stroke:red;stroke-width:1" />
<line x1="132.971" y1="97.835" x2="115.926" y2="127.359" stroke-linecap="round" style="stroke:red;stroke-width:1" />
<line x1="115.926" y1="127.359" x2="150.017" y2="127.359" stroke-linecap="round" style="stroke:red;stroke-width:1" />
<line x1="150.017" y1="127.359" x2="132.972" y2="97.835" stroke-linecap="round" style="stroke:red;stroke-width:1" />
<line x1="132.972" y1="97.835" x2="115.927" y2="127.359" stroke-linecap="round" style="stroke:red;stroke-width:1" />
<line x1="115.927" y1="127.359" x2="98.882" y2="97.835" stroke-linecap="round" style="stroke:red;stroke-width:1" />
<line x1="98.882" y1="97.835" x2="132.973" y2="97.835" stroke-linecap="round" style="stroke:red;stroke-width:1" />
<line x1="132.973" y1="97.835" x2="115.928" y2="68.311" stroke-linecap="round" style="stroke:red;stroke-width:1" />
<line x1="115.928" y1="68.311" x2="150.019" y2="68.311" stroke-linecap="round" style="stroke:red;stroke-width:1" />
<line x1="150.019" y1="68.311" x2="132.974" y2="38.787" stroke-linecap="round" style="stroke:red;stroke-width:1" />
<line x1="132.974" y1="38.787" x2="167.065" y2="38.787" stroke-linecap="round" style="stroke:red;stroke-width:1" />
<line x1="167.065" y1="38.787" x2="150.02" y2="68.311" stroke-linecap="round" style="stroke:red;stroke-width:1" />
<line x1="150.02" y1="68.311" x2="184.111" y2="68.311" stroke-linecap="round" style="stroke:red;stroke-width:1" />
<line x1="184.111" y1="68.311" x2="167.066" y2="97.835" stroke-linecap="round" style="stroke:red;stroke-width:1" />
<line x1="167.066" y1="97.835" x2="201.157" y2="97.835" stroke-linecap="round" style="stroke:red;stroke-width:1" />
<line x1="201.157" y1="97.835" x2="184.112" y2="127.359" stroke-linecap="round" style="stroke:red;stroke-width:1" />
<line x1="184.112" y1="127.359" x2="167.067" y2="97.835" stroke-linecap="round" style="stroke:red;stroke-width:1" />
<line x1="167.067" y1="97.835" x2="150.022" y2="127.359" stroke-linecap="round" style="stroke:red;stroke-width:1" />
<line x1="150.022" y1="127.359" x2="184.113" y2="127.359" stroke-linecap="round" style="stroke:red;stroke-width:1" />
<line x1="184.113" y1="127.359" x2="167.068" y2="97.835" stroke-linecap="round" style="stroke:red;stroke-width:1" />
<line x1="167.068" y1="97.835" x2="201.159" y2="97.835" stroke-linecap="round" style="stroke:red;stroke-width:1" />
<line x1="201.159" y1="97.835" x2="184.114" y2="127.359" stroke-linecap="round" style="stroke:red;stroke-width:1" />
<line x1="184.114" y1="127.359" x2="218.205" y2="127.359" stroke-linecap="round" style="stroke:red;stroke-width:1" />
<line x1="218.205" y1="127.359" x2="201.16" y2="156.883" stroke-linecap="round" style="stroke:red;stroke-width:1" />
<line x1="201.16" y1="156.883" x2="235.251" y2="156.883" stroke-linecap="round" style="stroke:red;stroke-width:1" />
<line x1="235.251" y1="156.883" x2="218.206" y2="186.407" stroke-linecap="round" style="stroke:red;stroke-width:1" />
<line x1="218.206" y1="186.407" x2="201.161" y2="156.883" stroke-linecap="round" style="stroke:red;stroke-width:1" />
<line x1="201.161" y1="156.883" x2="184.116" y2="186.407" stroke-linecap="round" style="stroke:red;stroke-width:1" />
<line x1="184.116" y1="186.407" x2="218.207" y2="186.407" stroke-linecap="round" style="stroke:red;stroke-width:1" />
<line x1="218.207" y1="186.407" x2="201.162" y2="156.883" stroke-linecap="round" style="stroke:red;stroke-width:1" />
<line x1="201.162" y1="156.883" x2="235.253" y2="156.883" stroke-linecap="round" style="stroke:red;stroke-width:1" />
<line x1="235.253" y1="156.883" x2="218.208" y2="186.407" stroke-linecap="round" style="stroke:red;stroke-width:1" />
<line x1="218.208" y1="186.407" x2="252.299" y2="186.407" stroke-linecap="round" style="stroke:red;stroke-width:1" />
<line x1="252.299" y1="186.407" x2="235.254" y2="215.931" stroke-linecap="round" style="stroke:red;stroke-width:1" />
<line x1="235.254" y1="215.931" x2="269.345" y2="215.931" stroke-linecap="round" style="stroke:red;stroke-width:1" />
<line x1="269.345" y1="215.931" x2="252.3" y2="245.455" stroke-linecap="round" style="stroke:red;stroke-width:1" />
<line x1="252.3" y1="245.455" x2="235.255" y2="215.931" stroke-linecap="round" style="stroke:red;stroke-width:1" />
<line x1="235.255" y1="215.931" x2="218.21" y2="245.455" stroke-linecap="round" style="stroke:red;stroke-width:1" />
<line x1="218.21" y1="245.455" x2="201.165" y2="215.931" stroke-linecap="round" style="stroke:red;stroke-width:1" />
<line x1="201.165" y1="215.931" x2="184.12" y2="245.455" stroke-linecap="round" style="stroke:red;stroke-width:1" />
<line x1="184.12" y1="245.455" x2="167.075" y2="215.931" stroke-linecap="round" style="stroke:red;stroke-width:1" />
<line x1="167.075" y1="215.931" x2="201.166" y2="215.931" stroke-linecap="round" style="stroke:red;stroke-width:1" />
<line x1="201.166" y1="215.931" x2="184.121" y2="186.407" stroke-linecap="round" style="stroke:red;stroke-width:1" />
<line x1="184.121" y1="186.407" x2="167.076" y2="215.931" stroke-linecap="round" style="stroke:red;stroke-width:1" />
<line x1="167.076" y1="215.931" x2="201.167" y2="215.931" stroke-linecap="round" style="stroke:red;stroke-width:1" />
<line x1="201.167" y1="215.931" x2="184.122" y2="245.455" stroke-linecap="round" style="stroke:red;stroke-width:1" />
<line x1="184.122" y1="245.455" x2="167.077" y2="215.931" stroke-linecap="round" style="stroke:red;stroke-width:1" />
<line x1="167.077" y1="215.931" x2="150.032" y2="245.455" stroke-linecap="round" style="stroke:red;stroke-width:1" />
<line x1="150.032" y1="245.455" x2="184.123" y2="245.455" stroke-linecap="round" style="stroke:red;stroke-width:1" />
<line x1="184.123" y1="245.455" x2="167.078" y2="215.931" stroke-linecap="round" style="stroke:red;stroke-width:1" />
<line x1="167.078" y1="215.931" x2="201.169" y2="215.931" stroke-linecap="round" style="stroke:red;stroke-width:1" />
<line x1="201.169" y1="215.931" x2="184.124" y2="245.455" stroke-linecap="round" style="stroke:red;stroke-width:1" />
<line x1="184.124" y1="245.455" x2="218.215" y2="245.455" stroke-linecap="round" style="stroke:red;stroke-width:1" />
<line x1="218.215" y1="245.455" x2="201.17" y2="215.931" stroke-linecap="round" style="stroke:red;stroke-width:1" />
<line x1="201.17" y1="215.931" x2="184.125" y2="245.455" stroke-linecap="round" style="stroke:red;stroke-width:1" />
<line x1="184.125" y1="245.455" x2="167.08" y2="215.931" stroke-linecap="round" style="stroke:red;stroke-width:1" />
<line x1="167.08" y1="215.931" x2="201.171" y2="215.931" stroke-linecap="round" style="stroke:red;stroke-width:1" />
<line x1="201.171" y1="215.931" x2="184.126" y2="186.407" stroke-linecap="round" style="stroke:red;stroke-width:1" />
<line x1="184.126" y1="186.407" x2="218.217" y2="186.407" stroke-linecap="round" style="stroke:red;stroke-width:1" />
<line x1="218.217" y1="186.407" x2="201.172" y2="156.883" stroke-linecap="round" style="stroke:red;stroke-width:1" />
<line x1="201.172" y1="156.883" x2="235.263" y2="156.883" stroke-linecap="round" style="stroke:red;stroke-width:1" />
<line x1="235.263" y1="156.883" x2="218.218" y2="186.407" stroke-linecap="round" style="stroke:red;stroke-width:1" />
<line x1="218.218" y1="186.407" x2="252.309" y2="186.407" stroke-linecap="round" style="stroke:red;stroke-width:1" />
<line x1="252.309" y1="186.407" x2="235.264" y2="215.931" stroke-linecap="round" style="stroke:red;stroke-width:1" />
<line x1="235.264" y1="215.931" x2="269.355" y2="215.931" stroke-linecap="round" style="stroke:red;stroke-width:1" />
<line x1="269.355" y1="215.931" x2="252.31" y2="245.455" stroke-linecap="round" style="stroke:red;stroke-width:1" />
<line x1="252.31" y1="245.455" x2="235.265" y2="215.931" stroke-linecap="round" style="stroke:red;stroke-width:1" />
<line x1="235.265" y1="215.931" x2="218.22" y2="245.455" stroke-linecap="round" style="stroke:red;stroke-width:1" />
<line x1="218.22" y1="245.455" x2="252.311" y2="245.455" stroke-linecap="round" style="stroke:red;stroke-width:1" />
<line x1="252.311" y1="245.455" x2="235.266" y2="215.931" stroke-linecap="round" style="stroke:red;stroke-width:1" />
<line x1="235.266" y1="215.931" x2="269.357" y2="215.931" stroke-linecap="round" style="stroke:red;stroke-width:1" />
<line x1="269.357" y1="215.931" x2="252.312" y2="245.455" stroke-linecap="round" style="stroke:red;stroke-width:1" />
<line x1="252.312" y1="245.455" x2="286.403" y2="245.455" stroke-linecap="round" style="stroke:red;stroke-width:1" />
<g id="turtle2" visibility="visible" transform="rotate(-90,286.403,245.455) translate(286.403, 245.455)">
<polygon points="0,16 2,14 1,10 4,7 7,9 9,8 6,5 7,1 5,-3 8,-6 6,-8 4,-5 0,-7 -4,-5 -6,-8 -8,-6 -5,-3 -7,1 -6,5 -9,8 -7,9 -4,7 -1,10 -2,14" transform="skewX(0) scale(1,1)" style="stroke:red;stroke-width:1;fill:lightgray" />
</g> 
</svg>