<svg width="800" height="600" viewBox="0 0 800 600" xmlns="http://www.w3.org/2000/svg">
<rect width="100%" height="100%" style="fill:white;stroke:;stroke-width:1" />
<path fill-rule="evenodd" fill-opacity="1" d="M 400.0 300.0  A 100.0 100.0 0 0 0 400.0 100.0  A 200 200 0 0 0 400.0 500.0  A -100.0 -100.0 0 0 1 400.0 300.0 " stroke-linecap="round" style="stroke:black;stroke-width:3" fill="white" />
<path fill-rule="evenodd" fill-opacity="1" d="M 400.0 225.0  A 25.0 25.0 0 0 0 400.0 175.0  A 25.0 25.0 0 0 0 400.0 225.0 " stroke-linecap="round" style="stroke:black;stroke-width:3" fill="black" />
<path fill-rule="evenodd" fill-opacity="1" d="M 400.0 300.0  A 100.0 100.0 0 0 0 400.0 500.0  A 200 200 0 0 0 400.0 100.0  A -100.0 -100.0 0 0 1 400.0 300.0 " stroke-linecap="round" style="stroke:black;stroke-width:3" fill="black" />
<path fill-rule="evenodd" fill-opacity="1" d="M 400.0 375.0  A 25.0 25.0 0 0 0 400.0 425.0  A 25.0 25.0 0 0 0 400.0 375.0 " stroke-linecap="round" style="stroke:black;stroke-width:3" fill="white" />
</svg>